<?xml version="1.0" standalone="no"?>
<!DOCTYPE svg PUBLIC "-//W3C//DTD SVG 1.1//EN" "http://www.w3.org/Graphics/SVG/1.1/DTD/svg11.dtd" >
<svg xmlns="http://www.w3.org/2000/svg">
<metadata></metadata>
<defs>
<font id="under_authorityregular" horiz-adv-x="1546" >
<font-face units-per-em="2048" ascent="1864" descent="-184" />
<missing-glyph horiz-adv-x="512" />
<glyph unicode="&#xd;" horiz-adv-x="512" />
<glyph horiz-adv-x="0" />
<glyph horiz-adv-x="0" />
<glyph unicode=" "  horiz-adv-x="512" />
<glyph unicode="&#x09;" horiz-adv-x="512" />
<glyph unicode="&#xa0;" horiz-adv-x="512" />
<glyph unicode="!" horiz-adv-x="393" d="M254 43q8 0 12 4q6 18 -20 21q2 -8 4 -14.5t4 -10.5zM307 193v-193h-221v193h221zM168 518q-23 12 -39 -10q23 -16 39 -4q2 2 2 7t-2 7zM86 274v1135h219l2 -1135h-221z" />
<glyph unicode="." horiz-adv-x="393" d="M254 43q8 0 12 4q6 18 -20 21q2 -8 4 -14.5t4 -10.5zM307 193v-193h-221v193h221z" />
<glyph unicode="0" d="M750 754q-37 -66 -68 -120t-70 -126q-53 23 -94 56.5t-74 78.5t-54 102.5t-21 128.5q0 74 21.5 131.5t51.5 102.5q63 88 170 135v-260h138v432q-125 -6 -213 -51t-154 -111q-61 -61 -107 -157q-20 -47 -33.5 -100.5t-13.5 -116.5q0 -98 27 -171t66 -133q80 -119 210 -186 q23 -10 46.5 -19.5t50.5 -15.5q51 -14 114 -18h5h2v10v408zM784 995q39 66 69 119t69 127q104 -47 168 -137q33 -45 54 -101.5t21 -130.5q0 -72 -21.5 -130t-51.5 -101q-63 -90 -170 -137v262h-138v-432q125 6 213 51t154 111q68 68 106 157q20 45 34 99.5t14 115.5 q0 98 -26 172t-67 134q-78 119 -211 184q-41 20 -96 37q-27 6 -55.5 11t-56.5 5h-5l-4 2v-10v-408zM774 150q-147 0 -278 54t-236 158q-104 104 -158.5 235.5t-54.5 279.5q0 147 54.5 278t158.5 234q104 104 235.5 158.5t278.5 54.5q145 0 276.5 -54.5t235.5 -158.5 q104 -102 158.5 -233.5t54.5 -278.5t-54 -278.5t-159 -236.5q-104 -104 -235.5 -158t-276.5 -54zM774 1532q-135 0 -255 -51t-209 -140.5t-141 -209t-52 -254.5t52 -255t141 -209t209 -141.5t255 -52.5t254 52.5t208 141.5t141.5 208.5t52.5 255.5q0 135 -52.5 254.5 t-141.5 209t-208 140.5t-254 51zM455 840l20 -4q-6 -16 -18 -25q-16 -8 -27 -8q-14 0 -29 10q-8 10 -8 31q0 18 6 30q6 14 19 21q10 8 24 8t27 -8q10 -10 10 -23l-18 -2l-6 13q-2 2 -13 2q-10 0 -14 -4q-10 -6 -12 -17q-4 -12 -4 -20q0 -12 6 -19q6 -6 12 -6q8 0 14 6 q7 5 11 15zM549 848h-37l-10 -43h-19l19 96h20l-8 -37h37l8 37h21l-21 -96h-20zM600 805h-20l20 96h43q12 0 16 -2q8 -4 11 -8q4 -8 4 -14q0 -14 -8 -21q-4 -6 -23 -10q4 -2 5 -4t3 -4q4 -6 7.5 -14.5t7.5 -18.5h-21q-2 4 -4 10t-6 14q-4 4 -5 8.5t-3 6.5h-11h-8zM610 860 h11h22q2 2 4 3t4 3q2 4 2 11q0 6 -4 6q-2 2 -12 2h-21zM676 805l20 96h19l-21 -96h-18zM717 836l18 2q0 -8 4 -13q2 -6 15 -6q10 0 14 4q4 2 4 8t-2 9q-2 0 -14 6l-17 8q-6 2 -8 8q-2 4 -2 12q0 12 8 21q8 8 25 8q18 0 26 -8q10 -10 11 -21l-19 -2q0 6 -6 11q-2 4 -12 4 q-8 0 -10 -2q-4 -2 -4 -8q0 -4 2 -7q2 -2 6 -3t8 -5q10 -4 14 -6l8 -4q6 -10 7 -18q0 -10 -11 -21q-10 -10 -28 -10q-8 0 -21 4q-10 6 -12 12q-4 5 -4 17zM889 805h-21l-18 96h20l13 -74l39 74h20zM930 805l20 96h19l-19 -96h-20zM969 805l20 96h19l-17 -80h49l-4 -16h-67z M1051 805l18 96h72l-2 -16h-54l-4 -21h52l-5 -16h-49l-6 -27h55l-4 -16h-73zM403 920l5 26h8l2 -2h4h2l2 -2v-4v-4v-6l-4 -4q-2 -2 -4 -2q-2 -2 -6 -2h-9zM410 924h2q4 0 4 2h2q2 2 2 4q2 2 2 6v2l-2 2q-2 0 -2 1t-2 1h-2zM428 920l6 26h19l-2 -6h-13l-2 -4h13v-4h-13l-2 -8 h15v-4h-21zM453 928h4q0 -2 2 -2q0 -2 4 -2q2 0 2 2q2 0 2 2l-2 2l-2 2q-4 0 -4 2q-2 0 -2 2l-2 2q0 2 1 3t1 3q2 0 3 1t5 1q2 0 3 -1t3 -1q2 -2 2 -6h-4l-2 2l-2 2q-4 0 -4 -2v-2q0 -2 4 -2l4 -4q2 0 2 -4t-2 -6q-2 0 -3 -1t-3 -1q-4 0 -6 2q-2 0 -2 1t-2 1v4zM475 920 l4 26h6l-6 -26h-4zM498 934h12l-4 -10q0 -2 -4 -2q-2 -2 -6 -2q-2 0 -3 1t-4 1q-4 4 -4 8q0 6 2 8q0 2 5 6q2 0 4 1t4 1t3 -1t3 -1q4 -4 4 -6h-4l-2 2t-4 2l-4 -2l-4 -4v-6v-4q2 0 2 -1t2 -1h4l2 2l2 4h-6v4zM530 920h-4l-6 18l-4 -18h-4l4 26h4l8 -18l2 18h7zM537 920l4 26 h18v-6h-14v-4h12v-4h-14v-8h14l-2 -4h-18zM559 920l6 26h6q2 0 2 -1t2 -1h3h2l2 -2v-4q2 0 2 -4q0 -2 -1 -3t-1 -3l-4 -4q-2 -2 -5 -2q-2 -2 -6 -2h-8zM565 924h2q4 0 4 2h2l5 4v6v2l-3 2q-2 0 -2 1t-2 1h-2zM594 920l4 26h10q2 0 2 -1t2 -1h2l2 -2v-2v-4q-2 -2 -4 -2l2 -2 t2 -4t-2 -4l-2 -2q-2 0 -3 -1t-3 -1h-12zM600 924h4q4 0 4 2h2v2v2q-2 2 -4 2h-4zM602 936h4h4h2v2v2h-2h-4h-2zM631 920h-4l2 10l-8 16h6l4 -8v-4l2 2l2 4l4 6h6l-12 -16zM784 918h-4l-2 18l-8 -18h-6v26h4l2 -18l8 18h4l2 -18l9 18h4zM817 918h-4l-2 18l-8 -18h-6v26h4 v-18l10 18h4l2 -18l8 18h4zM850 918h-4l-2 18l-8 -18h-7v26h5v-18l10 18h4l2 -18l8 18h4zM858 924h4v-6h-6zM885 928l4 -2q0 -2 -4 -6q-2 0 -3 -1t-3 -1q-4 0 -9 4q-2 0 -2 6t2 8q0 2 4 6q2 0 3.5 1t3.5 1q4 0 5 -1t3 -1q0 -2 1 -3t1 -3h-4l-2 2q-2 0 -2 1t-2 1q-2 -2 -4 -2 q-2 -2 -3 -4q0 -2 -1 -3t-1 -3t1 -2t1 -2q2 0 2.5 -1t2.5 -1q2 2 4 2q2 2 2 4zM909 930h-10l-2 -12h-6l6 26h4l-2 -10h10l2 10h4l-4 -26h-6zM922 918h-4l4 26h10q2 0 3 -1t3 -1t2 -2v-4q0 -4 -2 -4q0 -2 -4 -2v-4q4 -4 4 -8h-4l-4 8q0 2 -2 2h-2h-2zM924 932h4h4l2 2l2 2 q0 2 -2 2q0 2 -2 2h-6zM942 918l4 26h6l-6 -26h-4zM952 926h4q0 -2 2 -2q2 -2 5 -2q2 0 2 2q2 0 2 2l-2 2l-2 2q-4 0 -5 2q-2 0 -2 2l-2 2q0 2 1 3t1 3q2 0 3.5 1t5.5 1q2 0 3 -1t3 -1q2 -2 2 -6h-4l-2 2l-2 2q-4 0 -4 -2v-2q0 -2 4 -2l4 -4q2 0 2 -4t-2 -6q-2 0 -3 -1 t-3 -1q-4 0 -7 2q-2 0 -2 1t-2 1v4zM987 918h-6l-4 26h4l4 -20l10 20h4zM997 918l4 26h7l-7 -26h-4zM1008 918l4 26h6l-4 -22h12l-2 -4h-16zM1028 918l6 26h19l-2 -4h-13l-2 -6h13v-4h-13l-2 -8h15l-2 -4h-19zM1053 924h4v-6h-6zM1079 928l4 -2q0 -2 -4 -6q-2 0 -3 -1t-3 -1 q-4 0 -8 4q-2 0 -2 6t2 8q0 2 4 6q2 0 3 1t3 1t2 -1t2 -1h2q4 -4 4 -6h-4l-2 2q-2 0 -2 1t-2 1q-2 -2 -4 -2q-2 -2 -2 -4t-1 -3t-1 -3t1 -2t1 -2q2 0 2 -1t2 -1q2 2 4 2q0 2 2 4zM1087 928v4q2 2 2.5 3t2.5 3q0 4 4 4q2 2 6 2q2 0 6 -4t4 -6q0 -4 -1 -5t-1 -3l-6 -6 q-2 0 -3 -1t-3 -1q-4 0 -6 2l-5 4v4zM1092 928q0 -2 1 -2t1 -2q2 0 2 -1t2 -1l4 2l4 4v6v4l-4 2q-6 0 -6 -4q-4 -4 -4 -8zM1126 918h-4v22l-4 -22h-6l6 26h6l2 -18l9 18h8l-6 -26h-4l4 20z" />
<glyph unicode="1" d="M750 754q-37 -66 -68 -120t-70 -126q-53 23 -94 56.5t-74 78.5t-54 102.5t-21 128.5q0 74 21.5 131.5t51.5 102.5q63 88 170 135v-260h138v432q-125 -6 -213 -51t-154 -111q-61 -61 -107 -157q-20 -47 -33.5 -100.5t-13.5 -116.5q0 -98 27 -171t66 -133q80 -119 210 -186 q23 -10 46.5 -19.5t50.5 -15.5q51 -14 114 -18h5h2v10v408zM784 995q39 66 69 119t69 127q104 -47 168 -137q33 -45 54 -101.5t21 -130.5q0 -72 -21.5 -130t-51.5 -101q-63 -90 -170 -137v262h-138v-432q125 6 213 51t154 111q68 68 106 157q20 45 34 99.5t14 115.5 q0 98 -26 172t-67 134q-78 119 -211 184q-41 20 -96 37q-27 6 -55.5 11t-56.5 5h-5l-4 2v-10v-408zM774 150q-147 0 -278 54t-236 158q-104 104 -158.5 235.5t-54.5 279.5q0 147 54.5 278t158.5 234q104 104 235.5 158.5t278.5 54.5q145 0 276.5 -54.5t235.5 -158.5 q104 -102 158.5 -233.5t54.5 -278.5t-54 -278.5t-159 -236.5q-104 -104 -235.5 -158t-276.5 -54zM774 1532q-135 0 -255 -51t-209 -140.5t-141 -209t-52 -254.5t52 -255t141 -209t209 -141.5t255 -52.5t254 52.5t208 141.5t141.5 208.5t52.5 255.5q0 135 -52.5 254.5 t-141.5 209t-208 140.5t-254 51zM455 840l20 -4q-6 -16 -18 -25q-16 -8 -27 -8q-14 0 -29 10q-8 10 -8 31q0 18 6 30q6 14 19 21q10 8 24 8t27 -8q10 -10 10 -23l-18 -2l-6 13q-2 2 -13 2q-10 0 -14 -4q-10 -6 -12 -17q-4 -12 -4 -20q0 -12 6 -19q6 -6 12 -6q8 0 14 6 q7 5 11 15zM549 848h-37l-10 -43h-19l19 96h20l-8 -37h37l8 37h21l-21 -96h-20zM600 805h-20l20 96h43q12 0 16 -2q8 -4 11 -8q4 -8 4 -14q0 -14 -8 -21q-4 -6 -23 -10q4 -2 5 -4t3 -4q4 -6 7.5 -14.5t7.5 -18.5h-21q-2 4 -4 10t-6 14q-4 4 -5 8.5t-3 6.5h-11h-8zM610 860 h11h22q2 2 4 3t4 3q2 4 2 11q0 6 -4 6q-2 2 -12 2h-21zM676 805l20 96h19l-21 -96h-18zM717 836l18 2q0 -8 4 -13q2 -6 15 -6q10 0 14 4q4 2 4 8t-2 9q-2 0 -14 6l-17 8q-6 2 -8 8q-2 4 -2 12q0 12 8 21q8 8 25 8q18 0 26 -8q10 -10 11 -21l-19 -2q0 6 -6 11q-2 4 -12 4 q-8 0 -10 -2q-4 -2 -4 -8q0 -4 2 -7q2 -2 6 -3t8 -5q10 -4 14 -6l8 -4q6 -10 7 -18q0 -10 -11 -21q-10 -10 -28 -10q-8 0 -21 4q-10 6 -12 12q-4 5 -4 17zM889 805h-21l-18 96h20l13 -74l39 74h20zM930 805l20 96h19l-19 -96h-20zM969 805l20 96h19l-17 -80h49l-4 -16h-67z M1051 805l18 96h72l-2 -16h-54l-4 -21h52l-5 -16h-49l-6 -27h55l-4 -16h-73zM403 920l5 26h8l2 -2h4h2l2 -2v-4v-4v-6l-4 -4q-2 -2 -4 -2q-2 -2 -6 -2h-9zM410 924h2q4 0 4 2h2q2 2 2 4q2 2 2 6v2l-2 2q-2 0 -2 1t-2 1h-2zM428 920l6 26h19l-2 -6h-13l-2 -4h13v-4h-13l-2 -8 h15v-4h-21zM453 928h4q0 -2 2 -2q0 -2 4 -2q2 0 2 2q2 0 2 2l-2 2l-2 2q-4 0 -4 2q-2 0 -2 2l-2 2q0 2 1 3t1 3q2 0 3 1t5 1q2 0 3 -1t3 -1q2 -2 2 -6h-4l-2 2l-2 2q-4 0 -4 -2v-2q0 -2 4 -2l4 -4q2 0 2 -4t-2 -6q-2 0 -3 -1t-3 -1q-4 0 -6 2q-2 0 -2 1t-2 1v4zM475 920 l4 26h6l-6 -26h-4zM498 934h12l-4 -10q0 -2 -4 -2q-2 -2 -6 -2q-2 0 -3 1t-4 1q-4 4 -4 8q0 6 2 8q0 2 5 6q2 0 4 1t4 1t3 -1t3 -1q4 -4 4 -6h-4l-2 2t-4 2l-4 -2l-4 -4v-6v-4q2 0 2 -1t2 -1h4l2 2l2 4h-6v4zM530 920h-4l-6 18l-4 -18h-4l4 26h4l8 -18l2 18h7zM537 920l4 26 h18v-6h-14v-4h12v-4h-14v-8h14l-2 -4h-18zM559 920l6 26h6q2 0 2 -1t2 -1h3h2l2 -2v-4q2 0 2 -4q0 -2 -1 -3t-1 -3l-4 -4q-2 -2 -5 -2q-2 -2 -6 -2h-8zM565 924h2q4 0 4 2h2l5 4v6v2l-3 2q-2 0 -2 1t-2 1h-2zM594 920l4 26h10q2 0 2 -1t2 -1h2l2 -2v-2v-4q-2 -2 -4 -2l2 -2 t2 -4t-2 -4l-2 -2q-2 0 -3 -1t-3 -1h-12zM600 924h4q4 0 4 2h2v2v2q-2 2 -4 2h-4zM602 936h4h4h2v2v2h-2h-4h-2zM631 920h-4l2 10l-8 16h6l4 -8v-4l2 2l2 4l4 6h6l-12 -16zM784 918h-4l-2 18l-8 -18h-6v26h4l2 -18l8 18h4l2 -18l9 18h4zM817 918h-4l-2 18l-8 -18h-6v26h4 v-18l10 18h4l2 -18l8 18h4zM850 918h-4l-2 18l-8 -18h-7v26h5v-18l10 18h4l2 -18l8 18h4zM858 924h4v-6h-6zM885 928l4 -2q0 -2 -4 -6q-2 0 -3 -1t-3 -1q-4 0 -9 4q-2 0 -2 6t2 8q0 2 4 6q2 0 3.5 1t3.5 1q4 0 5 -1t3 -1q0 -2 1 -3t1 -3h-4l-2 2q-2 0 -2 1t-2 1q-2 -2 -4 -2 q-2 -2 -3 -4q0 -2 -1 -3t-1 -3t1 -2t1 -2q2 0 2.5 -1t2.5 -1q2 2 4 2q2 2 2 4zM909 930h-10l-2 -12h-6l6 26h4l-2 -10h10l2 10h4l-4 -26h-6zM922 918h-4l4 26h10q2 0 3 -1t3 -1t2 -2v-4q0 -4 -2 -4q0 -2 -4 -2v-4q4 -4 4 -8h-4l-4 8q0 2 -2 2h-2h-2zM924 932h4h4l2 2l2 2 q0 2 -2 2q0 2 -2 2h-6zM942 918l4 26h6l-6 -26h-4zM952 926h4q0 -2 2 -2q2 -2 5 -2q2 0 2 2q2 0 2 2l-2 2l-2 2q-4 0 -5 2q-2 0 -2 2l-2 2q0 2 1 3t1 3q2 0 3.5 1t5.5 1q2 0 3 -1t3 -1q2 -2 2 -6h-4l-2 2l-2 2q-4 0 -4 -2v-2q0 -2 4 -2l4 -4q2 0 2 -4t-2 -6q-2 0 -3 -1 t-3 -1q-4 0 -7 2q-2 0 -2 1t-2 1v4zM987 918h-6l-4 26h4l4 -20l10 20h4zM997 918l4 26h7l-7 -26h-4zM1008 918l4 26h6l-4 -22h12l-2 -4h-16zM1028 918l6 26h19l-2 -4h-13l-2 -6h13v-4h-13l-2 -8h15l-2 -4h-19zM1053 924h4v-6h-6zM1079 928l4 -2q0 -2 -4 -6q-2 0 -3 -1t-3 -1 q-4 0 -8 4q-2 0 -2 6t2 8q0 2 4 6q2 0 3 1t3 1t2 -1t2 -1h2q4 -4 4 -6h-4l-2 2q-2 0 -2 1t-2 1q-2 -2 -4 -2q-2 -2 -2 -4t-1 -3t-1 -3t1 -2t1 -2q2 0 2 -1t2 -1q2 2 4 2q0 2 2 4zM1087 928v4q2 2 2.5 3t2.5 3q0 4 4 4q2 2 6 2q2 0 6 -4t4 -6q0 -4 -1 -5t-1 -3l-6 -6 q-2 0 -3 -1t-3 -1q-4 0 -6 2l-5 4v4zM1092 928q0 -2 1 -2t1 -2q2 0 2 -1t2 -1l4 2l4 4v6v4l-4 2q-6 0 -6 -4q-4 -4 -4 -8zM1126 918h-4v22l-4 -22h-6l6 26h6l2 -18l9 18h8l-6 -26h-4l4 20z" />
<glyph unicode="2" d="M750 754q-37 -66 -68 -120t-70 -126q-53 23 -94 56.5t-74 78.5t-54 102.5t-21 128.5q0 74 21.5 131.5t51.5 102.5q63 88 170 135v-260h138v432q-125 -6 -213 -51t-154 -111q-61 -61 -107 -157q-20 -47 -33.5 -100.5t-13.5 -116.5q0 -98 27 -171t66 -133q80 -119 210 -186 q23 -10 46.5 -19.5t50.5 -15.5q51 -14 114 -18h5h2v10v408zM784 995q39 66 69 119t69 127q104 -47 168 -137q33 -45 54 -101.5t21 -130.5q0 -72 -21.5 -130t-51.5 -101q-63 -90 -170 -137v262h-138v-432q125 6 213 51t154 111q68 68 106 157q20 45 34 99.5t14 115.5 q0 98 -26 172t-67 134q-78 119 -211 184q-41 20 -96 37q-27 6 -55.5 11t-56.5 5h-5l-4 2v-10v-408zM774 150q-147 0 -278 54t-236 158q-104 104 -158.5 235.5t-54.5 279.5q0 147 54.5 278t158.5 234q104 104 235.5 158.5t278.5 54.5q145 0 276.5 -54.5t235.5 -158.5 q104 -102 158.5 -233.5t54.5 -278.5t-54 -278.5t-159 -236.5q-104 -104 -235.5 -158t-276.5 -54zM774 1532q-135 0 -255 -51t-209 -140.5t-141 -209t-52 -254.5t52 -255t141 -209t209 -141.5t255 -52.5t254 52.5t208 141.5t141.5 208.5t52.5 255.5q0 135 -52.5 254.5 t-141.5 209t-208 140.5t-254 51zM455 840l20 -4q-6 -16 -18 -25q-16 -8 -27 -8q-14 0 -29 10q-8 10 -8 31q0 18 6 30q6 14 19 21q10 8 24 8t27 -8q10 -10 10 -23l-18 -2l-6 13q-2 2 -13 2q-10 0 -14 -4q-10 -6 -12 -17q-4 -12 -4 -20q0 -12 6 -19q6 -6 12 -6q8 0 14 6 q7 5 11 15zM549 848h-37l-10 -43h-19l19 96h20l-8 -37h37l8 37h21l-21 -96h-20zM600 805h-20l20 96h43q12 0 16 -2q8 -4 11 -8q4 -8 4 -14q0 -14 -8 -21q-4 -6 -23 -10q4 -2 5 -4t3 -4q4 -6 7.5 -14.5t7.5 -18.5h-21q-2 4 -4 10t-6 14q-4 4 -5 8.5t-3 6.5h-11h-8zM610 860 h11h22q2 2 4 3t4 3q2 4 2 11q0 6 -4 6q-2 2 -12 2h-21zM676 805l20 96h19l-21 -96h-18zM717 836l18 2q0 -8 4 -13q2 -6 15 -6q10 0 14 4q4 2 4 8t-2 9q-2 0 -14 6l-17 8q-6 2 -8 8q-2 4 -2 12q0 12 8 21q8 8 25 8q18 0 26 -8q10 -10 11 -21l-19 -2q0 6 -6 11q-2 4 -12 4 q-8 0 -10 -2q-4 -2 -4 -8q0 -4 2 -7q2 -2 6 -3t8 -5q10 -4 14 -6l8 -4q6 -10 7 -18q0 -10 -11 -21q-10 -10 -28 -10q-8 0 -21 4q-10 6 -12 12q-4 5 -4 17zM889 805h-21l-18 96h20l13 -74l39 74h20zM930 805l20 96h19l-19 -96h-20zM969 805l20 96h19l-17 -80h49l-4 -16h-67z M1051 805l18 96h72l-2 -16h-54l-4 -21h52l-5 -16h-49l-6 -27h55l-4 -16h-73zM403 920l5 26h8l2 -2h4h2l2 -2v-4v-4v-6l-4 -4q-2 -2 -4 -2q-2 -2 -6 -2h-9zM410 924h2q4 0 4 2h2q2 2 2 4q2 2 2 6v2l-2 2q-2 0 -2 1t-2 1h-2zM428 920l6 26h19l-2 -6h-13l-2 -4h13v-4h-13l-2 -8 h15v-4h-21zM453 928h4q0 -2 2 -2q0 -2 4 -2q2 0 2 2q2 0 2 2l-2 2l-2 2q-4 0 -4 2q-2 0 -2 2l-2 2q0 2 1 3t1 3q2 0 3 1t5 1q2 0 3 -1t3 -1q2 -2 2 -6h-4l-2 2l-2 2q-4 0 -4 -2v-2q0 -2 4 -2l4 -4q2 0 2 -4t-2 -6q-2 0 -3 -1t-3 -1q-4 0 -6 2q-2 0 -2 1t-2 1v4zM475 920 l4 26h6l-6 -26h-4zM498 934h12l-4 -10q0 -2 -4 -2q-2 -2 -6 -2q-2 0 -3 1t-4 1q-4 4 -4 8q0 6 2 8q0 2 5 6q2 0 4 1t4 1t3 -1t3 -1q4 -4 4 -6h-4l-2 2t-4 2l-4 -2l-4 -4v-6v-4q2 0 2 -1t2 -1h4l2 2l2 4h-6v4zM530 920h-4l-6 18l-4 -18h-4l4 26h4l8 -18l2 18h7zM537 920l4 26 h18v-6h-14v-4h12v-4h-14v-8h14l-2 -4h-18zM559 920l6 26h6q2 0 2 -1t2 -1h3h2l2 -2v-4q2 0 2 -4q0 -2 -1 -3t-1 -3l-4 -4q-2 -2 -5 -2q-2 -2 -6 -2h-8zM565 924h2q4 0 4 2h2l5 4v6v2l-3 2q-2 0 -2 1t-2 1h-2zM594 920l4 26h10q2 0 2 -1t2 -1h2l2 -2v-2v-4q-2 -2 -4 -2l2 -2 t2 -4t-2 -4l-2 -2q-2 0 -3 -1t-3 -1h-12zM600 924h4q4 0 4 2h2v2v2q-2 2 -4 2h-4zM602 936h4h4h2v2v2h-2h-4h-2zM631 920h-4l2 10l-8 16h6l4 -8v-4l2 2l2 4l4 6h6l-12 -16zM784 918h-4l-2 18l-8 -18h-6v26h4l2 -18l8 18h4l2 -18l9 18h4zM817 918h-4l-2 18l-8 -18h-6v26h4 v-18l10 18h4l2 -18l8 18h4zM850 918h-4l-2 18l-8 -18h-7v26h5v-18l10 18h4l2 -18l8 18h4zM858 924h4v-6h-6zM885 928l4 -2q0 -2 -4 -6q-2 0 -3 -1t-3 -1q-4 0 -9 4q-2 0 -2 6t2 8q0 2 4 6q2 0 3.5 1t3.5 1q4 0 5 -1t3 -1q0 -2 1 -3t1 -3h-4l-2 2q-2 0 -2 1t-2 1q-2 -2 -4 -2 q-2 -2 -3 -4q0 -2 -1 -3t-1 -3t1 -2t1 -2q2 0 2.5 -1t2.5 -1q2 2 4 2q2 2 2 4zM909 930h-10l-2 -12h-6l6 26h4l-2 -10h10l2 10h4l-4 -26h-6zM922 918h-4l4 26h10q2 0 3 -1t3 -1t2 -2v-4q0 -4 -2 -4q0 -2 -4 -2v-4q4 -4 4 -8h-4l-4 8q0 2 -2 2h-2h-2zM924 932h4h4l2 2l2 2 q0 2 -2 2q0 2 -2 2h-6zM942 918l4 26h6l-6 -26h-4zM952 926h4q0 -2 2 -2q2 -2 5 -2q2 0 2 2q2 0 2 2l-2 2l-2 2q-4 0 -5 2q-2 0 -2 2l-2 2q0 2 1 3t1 3q2 0 3.5 1t5.5 1q2 0 3 -1t3 -1q2 -2 2 -6h-4l-2 2l-2 2q-4 0 -4 -2v-2q0 -2 4 -2l4 -4q2 0 2 -4t-2 -6q-2 0 -3 -1 t-3 -1q-4 0 -7 2q-2 0 -2 1t-2 1v4zM987 918h-6l-4 26h4l4 -20l10 20h4zM997 918l4 26h7l-7 -26h-4zM1008 918l4 26h6l-4 -22h12l-2 -4h-16zM1028 918l6 26h19l-2 -4h-13l-2 -6h13v-4h-13l-2 -8h15l-2 -4h-19zM1053 924h4v-6h-6zM1079 928l4 -2q0 -2 -4 -6q-2 0 -3 -1t-3 -1 q-4 0 -8 4q-2 0 -2 6t2 8q0 2 4 6q2 0 3 1t3 1t2 -1t2 -1h2q4 -4 4 -6h-4l-2 2q-2 0 -2 1t-2 1q-2 -2 -4 -2q-2 -2 -2 -4t-1 -3t-1 -3t1 -2t1 -2q2 0 2 -1t2 -1q2 2 4 2q0 2 2 4zM1087 928v4q2 2 2.5 3t2.5 3q0 4 4 4q2 2 6 2q2 0 6 -4t4 -6q0 -4 -1 -5t-1 -3l-6 -6 q-2 0 -3 -1t-3 -1q-4 0 -6 2l-5 4v4zM1092 928q0 -2 1 -2t1 -2q2 0 2 -1t2 -1l4 2l4 4v6v4l-4 2q-6 0 -6 -4q-4 -4 -4 -8zM1126 918h-4v22l-4 -22h-6l6 26h6l2 -18l9 18h8l-6 -26h-4l4 20z" />
<glyph unicode="3" d="M750 754q-37 -66 -68 -120t-70 -126q-53 23 -94 56.5t-74 78.5t-54 102.5t-21 128.5q0 74 21.5 131.5t51.5 102.5q63 88 170 135v-260h138v432q-125 -6 -213 -51t-154 -111q-61 -61 -107 -157q-20 -47 -33.5 -100.5t-13.5 -116.5q0 -98 27 -171t66 -133q80 -119 210 -186 q23 -10 46.5 -19.5t50.5 -15.5q51 -14 114 -18h5h2v10v408zM784 995q39 66 69 119t69 127q104 -47 168 -137q33 -45 54 -101.5t21 -130.5q0 -72 -21.5 -130t-51.5 -101q-63 -90 -170 -137v262h-138v-432q125 6 213 51t154 111q68 68 106 157q20 45 34 99.5t14 115.5 q0 98 -26 172t-67 134q-78 119 -211 184q-41 20 -96 37q-27 6 -55.5 11t-56.5 5h-5l-4 2v-10v-408zM774 150q-147 0 -278 54t-236 158q-104 104 -158.5 235.5t-54.5 279.5q0 147 54.5 278t158.5 234q104 104 235.5 158.5t278.5 54.5q145 0 276.5 -54.5t235.5 -158.5 q104 -102 158.5 -233.5t54.5 -278.5t-54 -278.5t-159 -236.5q-104 -104 -235.5 -158t-276.5 -54zM774 1532q-135 0 -255 -51t-209 -140.5t-141 -209t-52 -254.5t52 -255t141 -209t209 -141.5t255 -52.5t254 52.5t208 141.5t141.5 208.5t52.5 255.5q0 135 -52.5 254.5 t-141.5 209t-208 140.5t-254 51zM455 840l20 -4q-6 -16 -18 -25q-16 -8 -27 -8q-14 0 -29 10q-8 10 -8 31q0 18 6 30q6 14 19 21q10 8 24 8t27 -8q10 -10 10 -23l-18 -2l-6 13q-2 2 -13 2q-10 0 -14 -4q-10 -6 -12 -17q-4 -12 -4 -20q0 -12 6 -19q6 -6 12 -6q8 0 14 6 q7 5 11 15zM549 848h-37l-10 -43h-19l19 96h20l-8 -37h37l8 37h21l-21 -96h-20zM600 805h-20l20 96h43q12 0 16 -2q8 -4 11 -8q4 -8 4 -14q0 -14 -8 -21q-4 -6 -23 -10q4 -2 5 -4t3 -4q4 -6 7.5 -14.5t7.5 -18.5h-21q-2 4 -4 10t-6 14q-4 4 -5 8.5t-3 6.5h-11h-8zM610 860 h11h22q2 2 4 3t4 3q2 4 2 11q0 6 -4 6q-2 2 -12 2h-21zM676 805l20 96h19l-21 -96h-18zM717 836l18 2q0 -8 4 -13q2 -6 15 -6q10 0 14 4q4 2 4 8t-2 9q-2 0 -14 6l-17 8q-6 2 -8 8q-2 4 -2 12q0 12 8 21q8 8 25 8q18 0 26 -8q10 -10 11 -21l-19 -2q0 6 -6 11q-2 4 -12 4 q-8 0 -10 -2q-4 -2 -4 -8q0 -4 2 -7q2 -2 6 -3t8 -5q10 -4 14 -6l8 -4q6 -10 7 -18q0 -10 -11 -21q-10 -10 -28 -10q-8 0 -21 4q-10 6 -12 12q-4 5 -4 17zM889 805h-21l-18 96h20l13 -74l39 74h20zM930 805l20 96h19l-19 -96h-20zM969 805l20 96h19l-17 -80h49l-4 -16h-67z M1051 805l18 96h72l-2 -16h-54l-4 -21h52l-5 -16h-49l-6 -27h55l-4 -16h-73zM403 920l5 26h8l2 -2h4h2l2 -2v-4v-4v-6l-4 -4q-2 -2 -4 -2q-2 -2 -6 -2h-9zM410 924h2q4 0 4 2h2q2 2 2 4q2 2 2 6v2l-2 2q-2 0 -2 1t-2 1h-2zM428 920l6 26h19l-2 -6h-13l-2 -4h13v-4h-13l-2 -8 h15v-4h-21zM453 928h4q0 -2 2 -2q0 -2 4 -2q2 0 2 2q2 0 2 2l-2 2l-2 2q-4 0 -4 2q-2 0 -2 2l-2 2q0 2 1 3t1 3q2 0 3 1t5 1q2 0 3 -1t3 -1q2 -2 2 -6h-4l-2 2l-2 2q-4 0 -4 -2v-2q0 -2 4 -2l4 -4q2 0 2 -4t-2 -6q-2 0 -3 -1t-3 -1q-4 0 -6 2q-2 0 -2 1t-2 1v4zM475 920 l4 26h6l-6 -26h-4zM498 934h12l-4 -10q0 -2 -4 -2q-2 -2 -6 -2q-2 0 -3 1t-4 1q-4 4 -4 8q0 6 2 8q0 2 5 6q2 0 4 1t4 1t3 -1t3 -1q4 -4 4 -6h-4l-2 2t-4 2l-4 -2l-4 -4v-6v-4q2 0 2 -1t2 -1h4l2 2l2 4h-6v4zM530 920h-4l-6 18l-4 -18h-4l4 26h4l8 -18l2 18h7zM537 920l4 26 h18v-6h-14v-4h12v-4h-14v-8h14l-2 -4h-18zM559 920l6 26h6q2 0 2 -1t2 -1h3h2l2 -2v-4q2 0 2 -4q0 -2 -1 -3t-1 -3l-4 -4q-2 -2 -5 -2q-2 -2 -6 -2h-8zM565 924h2q4 0 4 2h2l5 4v6v2l-3 2q-2 0 -2 1t-2 1h-2zM594 920l4 26h10q2 0 2 -1t2 -1h2l2 -2v-2v-4q-2 -2 -4 -2l2 -2 t2 -4t-2 -4l-2 -2q-2 0 -3 -1t-3 -1h-12zM600 924h4q4 0 4 2h2v2v2q-2 2 -4 2h-4zM602 936h4h4h2v2v2h-2h-4h-2zM631 920h-4l2 10l-8 16h6l4 -8v-4l2 2l2 4l4 6h6l-12 -16zM784 918h-4l-2 18l-8 -18h-6v26h4l2 -18l8 18h4l2 -18l9 18h4zM817 918h-4l-2 18l-8 -18h-6v26h4 v-18l10 18h4l2 -18l8 18h4zM850 918h-4l-2 18l-8 -18h-7v26h5v-18l10 18h4l2 -18l8 18h4zM858 924h4v-6h-6zM885 928l4 -2q0 -2 -4 -6q-2 0 -3 -1t-3 -1q-4 0 -9 4q-2 0 -2 6t2 8q0 2 4 6q2 0 3.5 1t3.5 1q4 0 5 -1t3 -1q0 -2 1 -3t1 -3h-4l-2 2q-2 0 -2 1t-2 1q-2 -2 -4 -2 q-2 -2 -3 -4q0 -2 -1 -3t-1 -3t1 -2t1 -2q2 0 2.5 -1t2.5 -1q2 2 4 2q2 2 2 4zM909 930h-10l-2 -12h-6l6 26h4l-2 -10h10l2 10h4l-4 -26h-6zM922 918h-4l4 26h10q2 0 3 -1t3 -1t2 -2v-4q0 -4 -2 -4q0 -2 -4 -2v-4q4 -4 4 -8h-4l-4 8q0 2 -2 2h-2h-2zM924 932h4h4l2 2l2 2 q0 2 -2 2q0 2 -2 2h-6zM942 918l4 26h6l-6 -26h-4zM952 926h4q0 -2 2 -2q2 -2 5 -2q2 0 2 2q2 0 2 2l-2 2l-2 2q-4 0 -5 2q-2 0 -2 2l-2 2q0 2 1 3t1 3q2 0 3.5 1t5.5 1q2 0 3 -1t3 -1q2 -2 2 -6h-4l-2 2l-2 2q-4 0 -4 -2v-2q0 -2 4 -2l4 -4q2 0 2 -4t-2 -6q-2 0 -3 -1 t-3 -1q-4 0 -7 2q-2 0 -2 1t-2 1v4zM987 918h-6l-4 26h4l4 -20l10 20h4zM997 918l4 26h7l-7 -26h-4zM1008 918l4 26h6l-4 -22h12l-2 -4h-16zM1028 918l6 26h19l-2 -4h-13l-2 -6h13v-4h-13l-2 -8h15l-2 -4h-19zM1053 924h4v-6h-6zM1079 928l4 -2q0 -2 -4 -6q-2 0 -3 -1t-3 -1 q-4 0 -8 4q-2 0 -2 6t2 8q0 2 4 6q2 0 3 1t3 1t2 -1t2 -1h2q4 -4 4 -6h-4l-2 2q-2 0 -2 1t-2 1q-2 -2 -4 -2q-2 -2 -2 -4t-1 -3t-1 -3t1 -2t1 -2q2 0 2 -1t2 -1q2 2 4 2q0 2 2 4zM1087 928v4q2 2 2.5 3t2.5 3q0 4 4 4q2 2 6 2q2 0 6 -4t4 -6q0 -4 -1 -5t-1 -3l-6 -6 q-2 0 -3 -1t-3 -1q-4 0 -6 2l-5 4v4zM1092 928q0 -2 1 -2t1 -2q2 0 2 -1t2 -1l4 2l4 4v6v4l-4 2q-6 0 -6 -4q-4 -4 -4 -8zM1126 918h-4v22l-4 -22h-6l6 26h6l2 -18l9 18h8l-6 -26h-4l4 20z" />
<glyph unicode="4" d="M750 754q-37 -66 -68 -120t-70 -126q-53 23 -94 56.5t-74 78.5t-54 102.5t-21 128.5q0 74 21.5 131.5t51.5 102.5q63 88 170 135v-260h138v432q-125 -6 -213 -51t-154 -111q-61 -61 -107 -157q-20 -47 -33.5 -100.5t-13.5 -116.5q0 -98 27 -171t66 -133q80 -119 210 -186 q23 -10 46.5 -19.5t50.5 -15.5q51 -14 114 -18h5h2v10v408zM784 995q39 66 69 119t69 127q104 -47 168 -137q33 -45 54 -101.5t21 -130.5q0 -72 -21.5 -130t-51.5 -101q-63 -90 -170 -137v262h-138v-432q125 6 213 51t154 111q68 68 106 157q20 45 34 99.5t14 115.5 q0 98 -26 172t-67 134q-78 119 -211 184q-41 20 -96 37q-27 6 -55.5 11t-56.5 5h-5l-4 2v-10v-408zM774 150q-147 0 -278 54t-236 158q-104 104 -158.5 235.5t-54.5 279.5q0 147 54.5 278t158.5 234q104 104 235.5 158.5t278.5 54.5q145 0 276.5 -54.5t235.5 -158.5 q104 -102 158.5 -233.5t54.5 -278.5t-54 -278.5t-159 -236.5q-104 -104 -235.5 -158t-276.5 -54zM774 1532q-135 0 -255 -51t-209 -140.5t-141 -209t-52 -254.5t52 -255t141 -209t209 -141.5t255 -52.5t254 52.5t208 141.5t141.5 208.5t52.5 255.5q0 135 -52.5 254.5 t-141.5 209t-208 140.5t-254 51zM455 840l20 -4q-6 -16 -18 -25q-16 -8 -27 -8q-14 0 -29 10q-8 10 -8 31q0 18 6 30q6 14 19 21q10 8 24 8t27 -8q10 -10 10 -23l-18 -2l-6 13q-2 2 -13 2q-10 0 -14 -4q-10 -6 -12 -17q-4 -12 -4 -20q0 -12 6 -19q6 -6 12 -6q8 0 14 6 q7 5 11 15zM549 848h-37l-10 -43h-19l19 96h20l-8 -37h37l8 37h21l-21 -96h-20zM600 805h-20l20 96h43q12 0 16 -2q8 -4 11 -8q4 -8 4 -14q0 -14 -8 -21q-4 -6 -23 -10q4 -2 5 -4t3 -4q4 -6 7.5 -14.5t7.5 -18.5h-21q-2 4 -4 10t-6 14q-4 4 -5 8.5t-3 6.5h-11h-8zM610 860 h11h22q2 2 4 3t4 3q2 4 2 11q0 6 -4 6q-2 2 -12 2h-21zM676 805l20 96h19l-21 -96h-18zM717 836l18 2q0 -8 4 -13q2 -6 15 -6q10 0 14 4q4 2 4 8t-2 9q-2 0 -14 6l-17 8q-6 2 -8 8q-2 4 -2 12q0 12 8 21q8 8 25 8q18 0 26 -8q10 -10 11 -21l-19 -2q0 6 -6 11q-2 4 -12 4 q-8 0 -10 -2q-4 -2 -4 -8q0 -4 2 -7q2 -2 6 -3t8 -5q10 -4 14 -6l8 -4q6 -10 7 -18q0 -10 -11 -21q-10 -10 -28 -10q-8 0 -21 4q-10 6 -12 12q-4 5 -4 17zM889 805h-21l-18 96h20l13 -74l39 74h20zM930 805l20 96h19l-19 -96h-20zM969 805l20 96h19l-17 -80h49l-4 -16h-67z M1051 805l18 96h72l-2 -16h-54l-4 -21h52l-5 -16h-49l-6 -27h55l-4 -16h-73zM403 920l5 26h8l2 -2h4h2l2 -2v-4v-4v-6l-4 -4q-2 -2 -4 -2q-2 -2 -6 -2h-9zM410 924h2q4 0 4 2h2q2 2 2 4q2 2 2 6v2l-2 2q-2 0 -2 1t-2 1h-2zM428 920l6 26h19l-2 -6h-13l-2 -4h13v-4h-13l-2 -8 h15v-4h-21zM453 928h4q0 -2 2 -2q0 -2 4 -2q2 0 2 2q2 0 2 2l-2 2l-2 2q-4 0 -4 2q-2 0 -2 2l-2 2q0 2 1 3t1 3q2 0 3 1t5 1q2 0 3 -1t3 -1q2 -2 2 -6h-4l-2 2l-2 2q-4 0 -4 -2v-2q0 -2 4 -2l4 -4q2 0 2 -4t-2 -6q-2 0 -3 -1t-3 -1q-4 0 -6 2q-2 0 -2 1t-2 1v4zM475 920 l4 26h6l-6 -26h-4zM498 934h12l-4 -10q0 -2 -4 -2q-2 -2 -6 -2q-2 0 -3 1t-4 1q-4 4 -4 8q0 6 2 8q0 2 5 6q2 0 4 1t4 1t3 -1t3 -1q4 -4 4 -6h-4l-2 2t-4 2l-4 -2l-4 -4v-6v-4q2 0 2 -1t2 -1h4l2 2l2 4h-6v4zM530 920h-4l-6 18l-4 -18h-4l4 26h4l8 -18l2 18h7zM537 920l4 26 h18v-6h-14v-4h12v-4h-14v-8h14l-2 -4h-18zM559 920l6 26h6q2 0 2 -1t2 -1h3h2l2 -2v-4q2 0 2 -4q0 -2 -1 -3t-1 -3l-4 -4q-2 -2 -5 -2q-2 -2 -6 -2h-8zM565 924h2q4 0 4 2h2l5 4v6v2l-3 2q-2 0 -2 1t-2 1h-2zM594 920l4 26h10q2 0 2 -1t2 -1h2l2 -2v-2v-4q-2 -2 -4 -2l2 -2 t2 -4t-2 -4l-2 -2q-2 0 -3 -1t-3 -1h-12zM600 924h4q4 0 4 2h2v2v2q-2 2 -4 2h-4zM602 936h4h4h2v2v2h-2h-4h-2zM631 920h-4l2 10l-8 16h6l4 -8v-4l2 2l2 4l4 6h6l-12 -16zM784 918h-4l-2 18l-8 -18h-6v26h4l2 -18l8 18h4l2 -18l9 18h4zM817 918h-4l-2 18l-8 -18h-6v26h4 v-18l10 18h4l2 -18l8 18h4zM850 918h-4l-2 18l-8 -18h-7v26h5v-18l10 18h4l2 -18l8 18h4zM858 924h4v-6h-6zM885 928l4 -2q0 -2 -4 -6q-2 0 -3 -1t-3 -1q-4 0 -9 4q-2 0 -2 6t2 8q0 2 4 6q2 0 3.5 1t3.5 1q4 0 5 -1t3 -1q0 -2 1 -3t1 -3h-4l-2 2q-2 0 -2 1t-2 1q-2 -2 -4 -2 q-2 -2 -3 -4q0 -2 -1 -3t-1 -3t1 -2t1 -2q2 0 2.5 -1t2.5 -1q2 2 4 2q2 2 2 4zM909 930h-10l-2 -12h-6l6 26h4l-2 -10h10l2 10h4l-4 -26h-6zM922 918h-4l4 26h10q2 0 3 -1t3 -1t2 -2v-4q0 -4 -2 -4q0 -2 -4 -2v-4q4 -4 4 -8h-4l-4 8q0 2 -2 2h-2h-2zM924 932h4h4l2 2l2 2 q0 2 -2 2q0 2 -2 2h-6zM942 918l4 26h6l-6 -26h-4zM952 926h4q0 -2 2 -2q2 -2 5 -2q2 0 2 2q2 0 2 2l-2 2l-2 2q-4 0 -5 2q-2 0 -2 2l-2 2q0 2 1 3t1 3q2 0 3.5 1t5.5 1q2 0 3 -1t3 -1q2 -2 2 -6h-4l-2 2l-2 2q-4 0 -4 -2v-2q0 -2 4 -2l4 -4q2 0 2 -4t-2 -6q-2 0 -3 -1 t-3 -1q-4 0 -7 2q-2 0 -2 1t-2 1v4zM987 918h-6l-4 26h4l4 -20l10 20h4zM997 918l4 26h7l-7 -26h-4zM1008 918l4 26h6l-4 -22h12l-2 -4h-16zM1028 918l6 26h19l-2 -4h-13l-2 -6h13v-4h-13l-2 -8h15l-2 -4h-19zM1053 924h4v-6h-6zM1079 928l4 -2q0 -2 -4 -6q-2 0 -3 -1t-3 -1 q-4 0 -8 4q-2 0 -2 6t2 8q0 2 4 6q2 0 3 1t3 1t2 -1t2 -1h2q4 -4 4 -6h-4l-2 2q-2 0 -2 1t-2 1q-2 -2 -4 -2q-2 -2 -2 -4t-1 -3t-1 -3t1 -2t1 -2q2 0 2 -1t2 -1q2 2 4 2q0 2 2 4zM1087 928v4q2 2 2.5 3t2.5 3q0 4 4 4q2 2 6 2q2 0 6 -4t4 -6q0 -4 -1 -5t-1 -3l-6 -6 q-2 0 -3 -1t-3 -1q-4 0 -6 2l-5 4v4zM1092 928q0 -2 1 -2t1 -2q2 0 2 -1t2 -1l4 2l4 4v6v4l-4 2q-6 0 -6 -4q-4 -4 -4 -8zM1126 918h-4v22l-4 -22h-6l6 26h6l2 -18l9 18h8l-6 -26h-4l4 20z" />
<glyph unicode="5" d="M750 754q-37 -66 -68 -120t-70 -126q-53 23 -94 56.5t-74 78.5t-54 102.5t-21 128.5q0 74 21.5 131.5t51.5 102.5q63 88 170 135v-260h138v432q-125 -6 -213 -51t-154 -111q-61 -61 -107 -157q-20 -47 -33.5 -100.5t-13.5 -116.5q0 -98 27 -171t66 -133q80 -119 210 -186 q23 -10 46.5 -19.5t50.5 -15.5q51 -14 114 -18h5h2v10v408zM784 995q39 66 69 119t69 127q104 -47 168 -137q33 -45 54 -101.5t21 -130.5q0 -72 -21.5 -130t-51.5 -101q-63 -90 -170 -137v262h-138v-432q125 6 213 51t154 111q68 68 106 157q20 45 34 99.5t14 115.5 q0 98 -26 172t-67 134q-78 119 -211 184q-41 20 -96 37q-27 6 -55.5 11t-56.5 5h-5l-4 2v-10v-408zM774 150q-147 0 -278 54t-236 158q-104 104 -158.5 235.5t-54.5 279.5q0 147 54.5 278t158.5 234q104 104 235.5 158.5t278.5 54.5q145 0 276.5 -54.5t235.5 -158.5 q104 -102 158.5 -233.5t54.5 -278.5t-54 -278.5t-159 -236.5q-104 -104 -235.5 -158t-276.5 -54zM774 1532q-135 0 -255 -51t-209 -140.5t-141 -209t-52 -254.5t52 -255t141 -209t209 -141.5t255 -52.5t254 52.5t208 141.5t141.5 208.5t52.5 255.5q0 135 -52.5 254.5 t-141.5 209t-208 140.5t-254 51zM455 840l20 -4q-6 -16 -18 -25q-16 -8 -27 -8q-14 0 -29 10q-8 10 -8 31q0 18 6 30q6 14 19 21q10 8 24 8t27 -8q10 -10 10 -23l-18 -2l-6 13q-2 2 -13 2q-10 0 -14 -4q-10 -6 -12 -17q-4 -12 -4 -20q0 -12 6 -19q6 -6 12 -6q8 0 14 6 q7 5 11 15zM549 848h-37l-10 -43h-19l19 96h20l-8 -37h37l8 37h21l-21 -96h-20zM600 805h-20l20 96h43q12 0 16 -2q8 -4 11 -8q4 -8 4 -14q0 -14 -8 -21q-4 -6 -23 -10q4 -2 5 -4t3 -4q4 -6 7.5 -14.5t7.5 -18.5h-21q-2 4 -4 10t-6 14q-4 4 -5 8.5t-3 6.5h-11h-8zM610 860 h11h22q2 2 4 3t4 3q2 4 2 11q0 6 -4 6q-2 2 -12 2h-21zM676 805l20 96h19l-21 -96h-18zM717 836l18 2q0 -8 4 -13q2 -6 15 -6q10 0 14 4q4 2 4 8t-2 9q-2 0 -14 6l-17 8q-6 2 -8 8q-2 4 -2 12q0 12 8 21q8 8 25 8q18 0 26 -8q10 -10 11 -21l-19 -2q0 6 -6 11q-2 4 -12 4 q-8 0 -10 -2q-4 -2 -4 -8q0 -4 2 -7q2 -2 6 -3t8 -5q10 -4 14 -6l8 -4q6 -10 7 -18q0 -10 -11 -21q-10 -10 -28 -10q-8 0 -21 4q-10 6 -12 12q-4 5 -4 17zM889 805h-21l-18 96h20l13 -74l39 74h20zM930 805l20 96h19l-19 -96h-20zM969 805l20 96h19l-17 -80h49l-4 -16h-67z M1051 805l18 96h72l-2 -16h-54l-4 -21h52l-5 -16h-49l-6 -27h55l-4 -16h-73zM403 920l5 26h8l2 -2h4h2l2 -2v-4v-4v-6l-4 -4q-2 -2 -4 -2q-2 -2 -6 -2h-9zM410 924h2q4 0 4 2h2q2 2 2 4q2 2 2 6v2l-2 2q-2 0 -2 1t-2 1h-2zM428 920l6 26h19l-2 -6h-13l-2 -4h13v-4h-13l-2 -8 h15v-4h-21zM453 928h4q0 -2 2 -2q0 -2 4 -2q2 0 2 2q2 0 2 2l-2 2l-2 2q-4 0 -4 2q-2 0 -2 2l-2 2q0 2 1 3t1 3q2 0 3 1t5 1q2 0 3 -1t3 -1q2 -2 2 -6h-4l-2 2l-2 2q-4 0 -4 -2v-2q0 -2 4 -2l4 -4q2 0 2 -4t-2 -6q-2 0 -3 -1t-3 -1q-4 0 -6 2q-2 0 -2 1t-2 1v4zM475 920 l4 26h6l-6 -26h-4zM498 934h12l-4 -10q0 -2 -4 -2q-2 -2 -6 -2q-2 0 -3 1t-4 1q-4 4 -4 8q0 6 2 8q0 2 5 6q2 0 4 1t4 1t3 -1t3 -1q4 -4 4 -6h-4l-2 2t-4 2l-4 -2l-4 -4v-6v-4q2 0 2 -1t2 -1h4l2 2l2 4h-6v4zM530 920h-4l-6 18l-4 -18h-4l4 26h4l8 -18l2 18h7zM537 920l4 26 h18v-6h-14v-4h12v-4h-14v-8h14l-2 -4h-18zM559 920l6 26h6q2 0 2 -1t2 -1h3h2l2 -2v-4q2 0 2 -4q0 -2 -1 -3t-1 -3l-4 -4q-2 -2 -5 -2q-2 -2 -6 -2h-8zM565 924h2q4 0 4 2h2l5 4v6v2l-3 2q-2 0 -2 1t-2 1h-2zM594 920l4 26h10q2 0 2 -1t2 -1h2l2 -2v-2v-4q-2 -2 -4 -2l2 -2 t2 -4t-2 -4l-2 -2q-2 0 -3 -1t-3 -1h-12zM600 924h4q4 0 4 2h2v2v2q-2 2 -4 2h-4zM602 936h4h4h2v2v2h-2h-4h-2zM631 920h-4l2 10l-8 16h6l4 -8v-4l2 2l2 4l4 6h6l-12 -16zM784 918h-4l-2 18l-8 -18h-6v26h4l2 -18l8 18h4l2 -18l9 18h4zM817 918h-4l-2 18l-8 -18h-6v26h4 v-18l10 18h4l2 -18l8 18h4zM850 918h-4l-2 18l-8 -18h-7v26h5v-18l10 18h4l2 -18l8 18h4zM858 924h4v-6h-6zM885 928l4 -2q0 -2 -4 -6q-2 0 -3 -1t-3 -1q-4 0 -9 4q-2 0 -2 6t2 8q0 2 4 6q2 0 3.5 1t3.5 1q4 0 5 -1t3 -1q0 -2 1 -3t1 -3h-4l-2 2q-2 0 -2 1t-2 1q-2 -2 -4 -2 q-2 -2 -3 -4q0 -2 -1 -3t-1 -3t1 -2t1 -2q2 0 2.5 -1t2.5 -1q2 2 4 2q2 2 2 4zM909 930h-10l-2 -12h-6l6 26h4l-2 -10h10l2 10h4l-4 -26h-6zM922 918h-4l4 26h10q2 0 3 -1t3 -1t2 -2v-4q0 -4 -2 -4q0 -2 -4 -2v-4q4 -4 4 -8h-4l-4 8q0 2 -2 2h-2h-2zM924 932h4h4l2 2l2 2 q0 2 -2 2q0 2 -2 2h-6zM942 918l4 26h6l-6 -26h-4zM952 926h4q0 -2 2 -2q2 -2 5 -2q2 0 2 2q2 0 2 2l-2 2l-2 2q-4 0 -5 2q-2 0 -2 2l-2 2q0 2 1 3t1 3q2 0 3.5 1t5.5 1q2 0 3 -1t3 -1q2 -2 2 -6h-4l-2 2l-2 2q-4 0 -4 -2v-2q0 -2 4 -2l4 -4q2 0 2 -4t-2 -6q-2 0 -3 -1 t-3 -1q-4 0 -7 2q-2 0 -2 1t-2 1v4zM987 918h-6l-4 26h4l4 -20l10 20h4zM997 918l4 26h7l-7 -26h-4zM1008 918l4 26h6l-4 -22h12l-2 -4h-16zM1028 918l6 26h19l-2 -4h-13l-2 -6h13v-4h-13l-2 -8h15l-2 -4h-19zM1053 924h4v-6h-6zM1079 928l4 -2q0 -2 -4 -6q-2 0 -3 -1t-3 -1 q-4 0 -8 4q-2 0 -2 6t2 8q0 2 4 6q2 0 3 1t3 1t2 -1t2 -1h2q4 -4 4 -6h-4l-2 2q-2 0 -2 1t-2 1q-2 -2 -4 -2q-2 -2 -2 -4t-1 -3t-1 -3t1 -2t1 -2q2 0 2 -1t2 -1q2 2 4 2q0 2 2 4zM1087 928v4q2 2 2.5 3t2.5 3q0 4 4 4q2 2 6 2q2 0 6 -4t4 -6q0 -4 -1 -5t-1 -3l-6 -6 q-2 0 -3 -1t-3 -1q-4 0 -6 2l-5 4v4zM1092 928q0 -2 1 -2t1 -2q2 0 2 -1t2 -1l4 2l4 4v6v4l-4 2q-6 0 -6 -4q-4 -4 -4 -8zM1126 918h-4v22l-4 -22h-6l6 26h6l2 -18l9 18h8l-6 -26h-4l4 20z" />
<glyph unicode="6" d="M750 754q-37 -66 -68 -120t-70 -126q-53 23 -94 56.5t-74 78.5t-54 102.5t-21 128.5q0 74 21.5 131.5t51.5 102.5q63 88 170 135v-260h138v432q-125 -6 -213 -51t-154 -111q-61 -61 -107 -157q-20 -47 -33.5 -100.5t-13.5 -116.5q0 -98 27 -171t66 -133q80 -119 210 -186 q23 -10 46.5 -19.5t50.5 -15.5q51 -14 114 -18h5h2v10v408zM784 995q39 66 69 119t69 127q104 -47 168 -137q33 -45 54 -101.5t21 -130.5q0 -72 -21.5 -130t-51.5 -101q-63 -90 -170 -137v262h-138v-432q125 6 213 51t154 111q68 68 106 157q20 45 34 99.5t14 115.5 q0 98 -26 172t-67 134q-78 119 -211 184q-41 20 -96 37q-27 6 -55.5 11t-56.5 5h-5l-4 2v-10v-408zM774 150q-147 0 -278 54t-236 158q-104 104 -158.5 235.5t-54.5 279.5q0 147 54.5 278t158.5 234q104 104 235.5 158.5t278.5 54.5q145 0 276.5 -54.5t235.5 -158.5 q104 -102 158.5 -233.5t54.5 -278.5t-54 -278.5t-159 -236.5q-104 -104 -235.5 -158t-276.5 -54zM774 1532q-135 0 -255 -51t-209 -140.5t-141 -209t-52 -254.5t52 -255t141 -209t209 -141.5t255 -52.5t254 52.5t208 141.5t141.5 208.5t52.5 255.5q0 135 -52.5 254.5 t-141.5 209t-208 140.5t-254 51zM455 840l20 -4q-6 -16 -18 -25q-16 -8 -27 -8q-14 0 -29 10q-8 10 -8 31q0 18 6 30q6 14 19 21q10 8 24 8t27 -8q10 -10 10 -23l-18 -2l-6 13q-2 2 -13 2q-10 0 -14 -4q-10 -6 -12 -17q-4 -12 -4 -20q0 -12 6 -19q6 -6 12 -6q8 0 14 6 q7 5 11 15zM549 848h-37l-10 -43h-19l19 96h20l-8 -37h37l8 37h21l-21 -96h-20zM600 805h-20l20 96h43q12 0 16 -2q8 -4 11 -8q4 -8 4 -14q0 -14 -8 -21q-4 -6 -23 -10q4 -2 5 -4t3 -4q4 -6 7.5 -14.5t7.5 -18.5h-21q-2 4 -4 10t-6 14q-4 4 -5 8.5t-3 6.5h-11h-8zM610 860 h11h22q2 2 4 3t4 3q2 4 2 11q0 6 -4 6q-2 2 -12 2h-21zM676 805l20 96h19l-21 -96h-18zM717 836l18 2q0 -8 4 -13q2 -6 15 -6q10 0 14 4q4 2 4 8t-2 9q-2 0 -14 6l-17 8q-6 2 -8 8q-2 4 -2 12q0 12 8 21q8 8 25 8q18 0 26 -8q10 -10 11 -21l-19 -2q0 6 -6 11q-2 4 -12 4 q-8 0 -10 -2q-4 -2 -4 -8q0 -4 2 -7q2 -2 6 -3t8 -5q10 -4 14 -6l8 -4q6 -10 7 -18q0 -10 -11 -21q-10 -10 -28 -10q-8 0 -21 4q-10 6 -12 12q-4 5 -4 17zM889 805h-21l-18 96h20l13 -74l39 74h20zM930 805l20 96h19l-19 -96h-20zM969 805l20 96h19l-17 -80h49l-4 -16h-67z M1051 805l18 96h72l-2 -16h-54l-4 -21h52l-5 -16h-49l-6 -27h55l-4 -16h-73zM403 920l5 26h8l2 -2h4h2l2 -2v-4v-4v-6l-4 -4q-2 -2 -4 -2q-2 -2 -6 -2h-9zM410 924h2q4 0 4 2h2q2 2 2 4q2 2 2 6v2l-2 2q-2 0 -2 1t-2 1h-2zM428 920l6 26h19l-2 -6h-13l-2 -4h13v-4h-13l-2 -8 h15v-4h-21zM453 928h4q0 -2 2 -2q0 -2 4 -2q2 0 2 2q2 0 2 2l-2 2l-2 2q-4 0 -4 2q-2 0 -2 2l-2 2q0 2 1 3t1 3q2 0 3 1t5 1q2 0 3 -1t3 -1q2 -2 2 -6h-4l-2 2l-2 2q-4 0 -4 -2v-2q0 -2 4 -2l4 -4q2 0 2 -4t-2 -6q-2 0 -3 -1t-3 -1q-4 0 -6 2q-2 0 -2 1t-2 1v4zM475 920 l4 26h6l-6 -26h-4zM498 934h12l-4 -10q0 -2 -4 -2q-2 -2 -6 -2q-2 0 -3 1t-4 1q-4 4 -4 8q0 6 2 8q0 2 5 6q2 0 4 1t4 1t3 -1t3 -1q4 -4 4 -6h-4l-2 2t-4 2l-4 -2l-4 -4v-6v-4q2 0 2 -1t2 -1h4l2 2l2 4h-6v4zM530 920h-4l-6 18l-4 -18h-4l4 26h4l8 -18l2 18h7zM537 920l4 26 h18v-6h-14v-4h12v-4h-14v-8h14l-2 -4h-18zM559 920l6 26h6q2 0 2 -1t2 -1h3h2l2 -2v-4q2 0 2 -4q0 -2 -1 -3t-1 -3l-4 -4q-2 -2 -5 -2q-2 -2 -6 -2h-8zM565 924h2q4 0 4 2h2l5 4v6v2l-3 2q-2 0 -2 1t-2 1h-2zM594 920l4 26h10q2 0 2 -1t2 -1h2l2 -2v-2v-4q-2 -2 -4 -2l2 -2 t2 -4t-2 -4l-2 -2q-2 0 -3 -1t-3 -1h-12zM600 924h4q4 0 4 2h2v2v2q-2 2 -4 2h-4zM602 936h4h4h2v2v2h-2h-4h-2zM631 920h-4l2 10l-8 16h6l4 -8v-4l2 2l2 4l4 6h6l-12 -16zM784 918h-4l-2 18l-8 -18h-6v26h4l2 -18l8 18h4l2 -18l9 18h4zM817 918h-4l-2 18l-8 -18h-6v26h4 v-18l10 18h4l2 -18l8 18h4zM850 918h-4l-2 18l-8 -18h-7v26h5v-18l10 18h4l2 -18l8 18h4zM858 924h4v-6h-6zM885 928l4 -2q0 -2 -4 -6q-2 0 -3 -1t-3 -1q-4 0 -9 4q-2 0 -2 6t2 8q0 2 4 6q2 0 3.5 1t3.5 1q4 0 5 -1t3 -1q0 -2 1 -3t1 -3h-4l-2 2q-2 0 -2 1t-2 1q-2 -2 -4 -2 q-2 -2 -3 -4q0 -2 -1 -3t-1 -3t1 -2t1 -2q2 0 2.5 -1t2.5 -1q2 2 4 2q2 2 2 4zM909 930h-10l-2 -12h-6l6 26h4l-2 -10h10l2 10h4l-4 -26h-6zM922 918h-4l4 26h10q2 0 3 -1t3 -1t2 -2v-4q0 -4 -2 -4q0 -2 -4 -2v-4q4 -4 4 -8h-4l-4 8q0 2 -2 2h-2h-2zM924 932h4h4l2 2l2 2 q0 2 -2 2q0 2 -2 2h-6zM942 918l4 26h6l-6 -26h-4zM952 926h4q0 -2 2 -2q2 -2 5 -2q2 0 2 2q2 0 2 2l-2 2l-2 2q-4 0 -5 2q-2 0 -2 2l-2 2q0 2 1 3t1 3q2 0 3.5 1t5.5 1q2 0 3 -1t3 -1q2 -2 2 -6h-4l-2 2l-2 2q-4 0 -4 -2v-2q0 -2 4 -2l4 -4q2 0 2 -4t-2 -6q-2 0 -3 -1 t-3 -1q-4 0 -7 2q-2 0 -2 1t-2 1v4zM987 918h-6l-4 26h4l4 -20l10 20h4zM997 918l4 26h7l-7 -26h-4zM1008 918l4 26h6l-4 -22h12l-2 -4h-16zM1028 918l6 26h19l-2 -4h-13l-2 -6h13v-4h-13l-2 -8h15l-2 -4h-19zM1053 924h4v-6h-6zM1079 928l4 -2q0 -2 -4 -6q-2 0 -3 -1t-3 -1 q-4 0 -8 4q-2 0 -2 6t2 8q0 2 4 6q2 0 3 1t3 1t2 -1t2 -1h2q4 -4 4 -6h-4l-2 2q-2 0 -2 1t-2 1q-2 -2 -4 -2q-2 -2 -2 -4t-1 -3t-1 -3t1 -2t1 -2q2 0 2 -1t2 -1q2 2 4 2q0 2 2 4zM1087 928v4q2 2 2.5 3t2.5 3q0 4 4 4q2 2 6 2q2 0 6 -4t4 -6q0 -4 -1 -5t-1 -3l-6 -6 q-2 0 -3 -1t-3 -1q-4 0 -6 2l-5 4v4zM1092 928q0 -2 1 -2t1 -2q2 0 2 -1t2 -1l4 2l4 4v6v4l-4 2q-6 0 -6 -4q-4 -4 -4 -8zM1126 918h-4v22l-4 -22h-6l6 26h6l2 -18l9 18h8l-6 -26h-4l4 20z" />
<glyph unicode="7" d="M750 754q-37 -66 -68 -120t-70 -126q-53 23 -94 56.5t-74 78.5t-54 102.5t-21 128.5q0 74 21.5 131.5t51.5 102.5q63 88 170 135v-260h138v432q-125 -6 -213 -51t-154 -111q-61 -61 -107 -157q-20 -47 -33.5 -100.5t-13.5 -116.5q0 -98 27 -171t66 -133q80 -119 210 -186 q23 -10 46.5 -19.5t50.5 -15.5q51 -14 114 -18h5h2v10v408zM784 995q39 66 69 119t69 127q104 -47 168 -137q33 -45 54 -101.5t21 -130.5q0 -72 -21.5 -130t-51.5 -101q-63 -90 -170 -137v262h-138v-432q125 6 213 51t154 111q68 68 106 157q20 45 34 99.5t14 115.5 q0 98 -26 172t-67 134q-78 119 -211 184q-41 20 -96 37q-27 6 -55.5 11t-56.5 5h-5l-4 2v-10v-408zM774 150q-147 0 -278 54t-236 158q-104 104 -158.5 235.5t-54.5 279.5q0 147 54.5 278t158.5 234q104 104 235.5 158.5t278.5 54.5q145 0 276.5 -54.5t235.5 -158.5 q104 -102 158.5 -233.5t54.5 -278.5t-54 -278.5t-159 -236.5q-104 -104 -235.5 -158t-276.5 -54zM774 1532q-135 0 -255 -51t-209 -140.5t-141 -209t-52 -254.5t52 -255t141 -209t209 -141.5t255 -52.5t254 52.5t208 141.5t141.5 208.5t52.5 255.5q0 135 -52.5 254.5 t-141.5 209t-208 140.5t-254 51zM455 840l20 -4q-6 -16 -18 -25q-16 -8 -27 -8q-14 0 -29 10q-8 10 -8 31q0 18 6 30q6 14 19 21q10 8 24 8t27 -8q10 -10 10 -23l-18 -2l-6 13q-2 2 -13 2q-10 0 -14 -4q-10 -6 -12 -17q-4 -12 -4 -20q0 -12 6 -19q6 -6 12 -6q8 0 14 6 q7 5 11 15zM549 848h-37l-10 -43h-19l19 96h20l-8 -37h37l8 37h21l-21 -96h-20zM600 805h-20l20 96h43q12 0 16 -2q8 -4 11 -8q4 -8 4 -14q0 -14 -8 -21q-4 -6 -23 -10q4 -2 5 -4t3 -4q4 -6 7.5 -14.5t7.5 -18.5h-21q-2 4 -4 10t-6 14q-4 4 -5 8.5t-3 6.5h-11h-8zM610 860 h11h22q2 2 4 3t4 3q2 4 2 11q0 6 -4 6q-2 2 -12 2h-21zM676 805l20 96h19l-21 -96h-18zM717 836l18 2q0 -8 4 -13q2 -6 15 -6q10 0 14 4q4 2 4 8t-2 9q-2 0 -14 6l-17 8q-6 2 -8 8q-2 4 -2 12q0 12 8 21q8 8 25 8q18 0 26 -8q10 -10 11 -21l-19 -2q0 6 -6 11q-2 4 -12 4 q-8 0 -10 -2q-4 -2 -4 -8q0 -4 2 -7q2 -2 6 -3t8 -5q10 -4 14 -6l8 -4q6 -10 7 -18q0 -10 -11 -21q-10 -10 -28 -10q-8 0 -21 4q-10 6 -12 12q-4 5 -4 17zM889 805h-21l-18 96h20l13 -74l39 74h20zM930 805l20 96h19l-19 -96h-20zM969 805l20 96h19l-17 -80h49l-4 -16h-67z M1051 805l18 96h72l-2 -16h-54l-4 -21h52l-5 -16h-49l-6 -27h55l-4 -16h-73zM403 920l5 26h8l2 -2h4h2l2 -2v-4v-4v-6l-4 -4q-2 -2 -4 -2q-2 -2 -6 -2h-9zM410 924h2q4 0 4 2h2q2 2 2 4q2 2 2 6v2l-2 2q-2 0 -2 1t-2 1h-2zM428 920l6 26h19l-2 -6h-13l-2 -4h13v-4h-13l-2 -8 h15v-4h-21zM453 928h4q0 -2 2 -2q0 -2 4 -2q2 0 2 2q2 0 2 2l-2 2l-2 2q-4 0 -4 2q-2 0 -2 2l-2 2q0 2 1 3t1 3q2 0 3 1t5 1q2 0 3 -1t3 -1q2 -2 2 -6h-4l-2 2l-2 2q-4 0 -4 -2v-2q0 -2 4 -2l4 -4q2 0 2 -4t-2 -6q-2 0 -3 -1t-3 -1q-4 0 -6 2q-2 0 -2 1t-2 1v4zM475 920 l4 26h6l-6 -26h-4zM498 934h12l-4 -10q0 -2 -4 -2q-2 -2 -6 -2q-2 0 -3 1t-4 1q-4 4 -4 8q0 6 2 8q0 2 5 6q2 0 4 1t4 1t3 -1t3 -1q4 -4 4 -6h-4l-2 2t-4 2l-4 -2l-4 -4v-6v-4q2 0 2 -1t2 -1h4l2 2l2 4h-6v4zM530 920h-4l-6 18l-4 -18h-4l4 26h4l8 -18l2 18h7zM537 920l4 26 h18v-6h-14v-4h12v-4h-14v-8h14l-2 -4h-18zM559 920l6 26h6q2 0 2 -1t2 -1h3h2l2 -2v-4q2 0 2 -4q0 -2 -1 -3t-1 -3l-4 -4q-2 -2 -5 -2q-2 -2 -6 -2h-8zM565 924h2q4 0 4 2h2l5 4v6v2l-3 2q-2 0 -2 1t-2 1h-2zM594 920l4 26h10q2 0 2 -1t2 -1h2l2 -2v-2v-4q-2 -2 -4 -2l2 -2 t2 -4t-2 -4l-2 -2q-2 0 -3 -1t-3 -1h-12zM600 924h4q4 0 4 2h2v2v2q-2 2 -4 2h-4zM602 936h4h4h2v2v2h-2h-4h-2zM631 920h-4l2 10l-8 16h6l4 -8v-4l2 2l2 4l4 6h6l-12 -16zM784 918h-4l-2 18l-8 -18h-6v26h4l2 -18l8 18h4l2 -18l9 18h4zM817 918h-4l-2 18l-8 -18h-6v26h4 v-18l10 18h4l2 -18l8 18h4zM850 918h-4l-2 18l-8 -18h-7v26h5v-18l10 18h4l2 -18l8 18h4zM858 924h4v-6h-6zM885 928l4 -2q0 -2 -4 -6q-2 0 -3 -1t-3 -1q-4 0 -9 4q-2 0 -2 6t2 8q0 2 4 6q2 0 3.5 1t3.5 1q4 0 5 -1t3 -1q0 -2 1 -3t1 -3h-4l-2 2q-2 0 -2 1t-2 1q-2 -2 -4 -2 q-2 -2 -3 -4q0 -2 -1 -3t-1 -3t1 -2t1 -2q2 0 2.5 -1t2.5 -1q2 2 4 2q2 2 2 4zM909 930h-10l-2 -12h-6l6 26h4l-2 -10h10l2 10h4l-4 -26h-6zM922 918h-4l4 26h10q2 0 3 -1t3 -1t2 -2v-4q0 -4 -2 -4q0 -2 -4 -2v-4q4 -4 4 -8h-4l-4 8q0 2 -2 2h-2h-2zM924 932h4h4l2 2l2 2 q0 2 -2 2q0 2 -2 2h-6zM942 918l4 26h6l-6 -26h-4zM952 926h4q0 -2 2 -2q2 -2 5 -2q2 0 2 2q2 0 2 2l-2 2l-2 2q-4 0 -5 2q-2 0 -2 2l-2 2q0 2 1 3t1 3q2 0 3.5 1t5.5 1q2 0 3 -1t3 -1q2 -2 2 -6h-4l-2 2l-2 2q-4 0 -4 -2v-2q0 -2 4 -2l4 -4q2 0 2 -4t-2 -6q-2 0 -3 -1 t-3 -1q-4 0 -7 2q-2 0 -2 1t-2 1v4zM987 918h-6l-4 26h4l4 -20l10 20h4zM997 918l4 26h7l-7 -26h-4zM1008 918l4 26h6l-4 -22h12l-2 -4h-16zM1028 918l6 26h19l-2 -4h-13l-2 -6h13v-4h-13l-2 -8h15l-2 -4h-19zM1053 924h4v-6h-6zM1079 928l4 -2q0 -2 -4 -6q-2 0 -3 -1t-3 -1 q-4 0 -8 4q-2 0 -2 6t2 8q0 2 4 6q2 0 3 1t3 1t2 -1t2 -1h2q4 -4 4 -6h-4l-2 2q-2 0 -2 1t-2 1q-2 -2 -4 -2q-2 -2 -2 -4t-1 -3t-1 -3t1 -2t1 -2q2 0 2 -1t2 -1q2 2 4 2q0 2 2 4zM1087 928v4q2 2 2.5 3t2.5 3q0 4 4 4q2 2 6 2q2 0 6 -4t4 -6q0 -4 -1 -5t-1 -3l-6 -6 q-2 0 -3 -1t-3 -1q-4 0 -6 2l-5 4v4zM1092 928q0 -2 1 -2t1 -2q2 0 2 -1t2 -1l4 2l4 4v6v4l-4 2q-6 0 -6 -4q-4 -4 -4 -8zM1126 918h-4v22l-4 -22h-6l6 26h6l2 -18l9 18h8l-6 -26h-4l4 20z" />
<glyph unicode="8" d="M750 754q-37 -66 -68 -120t-70 -126q-53 23 -94 56.5t-74 78.5t-54 102.5t-21 128.5q0 74 21.5 131.5t51.5 102.5q63 88 170 135v-260h138v432q-125 -6 -213 -51t-154 -111q-61 -61 -107 -157q-20 -47 -33.5 -100.5t-13.5 -116.5q0 -98 27 -171t66 -133q80 -119 210 -186 q23 -10 46.5 -19.5t50.5 -15.5q51 -14 114 -18h5h2v10v408zM784 995q39 66 69 119t69 127q104 -47 168 -137q33 -45 54 -101.5t21 -130.5q0 -72 -21.5 -130t-51.5 -101q-63 -90 -170 -137v262h-138v-432q125 6 213 51t154 111q68 68 106 157q20 45 34 99.5t14 115.5 q0 98 -26 172t-67 134q-78 119 -211 184q-41 20 -96 37q-27 6 -55.5 11t-56.5 5h-5l-4 2v-10v-408zM774 150q-147 0 -278 54t-236 158q-104 104 -158.5 235.5t-54.5 279.5q0 147 54.5 278t158.5 234q104 104 235.5 158.5t278.5 54.5q145 0 276.5 -54.5t235.5 -158.5 q104 -102 158.5 -233.5t54.5 -278.5t-54 -278.5t-159 -236.5q-104 -104 -235.5 -158t-276.5 -54zM774 1532q-135 0 -255 -51t-209 -140.5t-141 -209t-52 -254.5t52 -255t141 -209t209 -141.5t255 -52.5t254 52.5t208 141.5t141.5 208.5t52.5 255.5q0 135 -52.5 254.5 t-141.5 209t-208 140.5t-254 51zM455 840l20 -4q-6 -16 -18 -25q-16 -8 -27 -8q-14 0 -29 10q-8 10 -8 31q0 18 6 30q6 14 19 21q10 8 24 8t27 -8q10 -10 10 -23l-18 -2l-6 13q-2 2 -13 2q-10 0 -14 -4q-10 -6 -12 -17q-4 -12 -4 -20q0 -12 6 -19q6 -6 12 -6q8 0 14 6 q7 5 11 15zM549 848h-37l-10 -43h-19l19 96h20l-8 -37h37l8 37h21l-21 -96h-20zM600 805h-20l20 96h43q12 0 16 -2q8 -4 11 -8q4 -8 4 -14q0 -14 -8 -21q-4 -6 -23 -10q4 -2 5 -4t3 -4q4 -6 7.5 -14.5t7.5 -18.5h-21q-2 4 -4 10t-6 14q-4 4 -5 8.5t-3 6.5h-11h-8zM610 860 h11h22q2 2 4 3t4 3q2 4 2 11q0 6 -4 6q-2 2 -12 2h-21zM676 805l20 96h19l-21 -96h-18zM717 836l18 2q0 -8 4 -13q2 -6 15 -6q10 0 14 4q4 2 4 8t-2 9q-2 0 -14 6l-17 8q-6 2 -8 8q-2 4 -2 12q0 12 8 21q8 8 25 8q18 0 26 -8q10 -10 11 -21l-19 -2q0 6 -6 11q-2 4 -12 4 q-8 0 -10 -2q-4 -2 -4 -8q0 -4 2 -7q2 -2 6 -3t8 -5q10 -4 14 -6l8 -4q6 -10 7 -18q0 -10 -11 -21q-10 -10 -28 -10q-8 0 -21 4q-10 6 -12 12q-4 5 -4 17zM889 805h-21l-18 96h20l13 -74l39 74h20zM930 805l20 96h19l-19 -96h-20zM969 805l20 96h19l-17 -80h49l-4 -16h-67z M1051 805l18 96h72l-2 -16h-54l-4 -21h52l-5 -16h-49l-6 -27h55l-4 -16h-73zM403 920l5 26h8l2 -2h4h2l2 -2v-4v-4v-6l-4 -4q-2 -2 -4 -2q-2 -2 -6 -2h-9zM410 924h2q4 0 4 2h2q2 2 2 4q2 2 2 6v2l-2 2q-2 0 -2 1t-2 1h-2zM428 920l6 26h19l-2 -6h-13l-2 -4h13v-4h-13l-2 -8 h15v-4h-21zM453 928h4q0 -2 2 -2q0 -2 4 -2q2 0 2 2q2 0 2 2l-2 2l-2 2q-4 0 -4 2q-2 0 -2 2l-2 2q0 2 1 3t1 3q2 0 3 1t5 1q2 0 3 -1t3 -1q2 -2 2 -6h-4l-2 2l-2 2q-4 0 -4 -2v-2q0 -2 4 -2l4 -4q2 0 2 -4t-2 -6q-2 0 -3 -1t-3 -1q-4 0 -6 2q-2 0 -2 1t-2 1v4zM475 920 l4 26h6l-6 -26h-4zM498 934h12l-4 -10q0 -2 -4 -2q-2 -2 -6 -2q-2 0 -3 1t-4 1q-4 4 -4 8q0 6 2 8q0 2 5 6q2 0 4 1t4 1t3 -1t3 -1q4 -4 4 -6h-4l-2 2t-4 2l-4 -2l-4 -4v-6v-4q2 0 2 -1t2 -1h4l2 2l2 4h-6v4zM530 920h-4l-6 18l-4 -18h-4l4 26h4l8 -18l2 18h7zM537 920l4 26 h18v-6h-14v-4h12v-4h-14v-8h14l-2 -4h-18zM559 920l6 26h6q2 0 2 -1t2 -1h3h2l2 -2v-4q2 0 2 -4q0 -2 -1 -3t-1 -3l-4 -4q-2 -2 -5 -2q-2 -2 -6 -2h-8zM565 924h2q4 0 4 2h2l5 4v6v2l-3 2q-2 0 -2 1t-2 1h-2zM594 920l4 26h10q2 0 2 -1t2 -1h2l2 -2v-2v-4q-2 -2 -4 -2l2 -2 t2 -4t-2 -4l-2 -2q-2 0 -3 -1t-3 -1h-12zM600 924h4q4 0 4 2h2v2v2q-2 2 -4 2h-4zM602 936h4h4h2v2v2h-2h-4h-2zM631 920h-4l2 10l-8 16h6l4 -8v-4l2 2l2 4l4 6h6l-12 -16zM784 918h-4l-2 18l-8 -18h-6v26h4l2 -18l8 18h4l2 -18l9 18h4zM817 918h-4l-2 18l-8 -18h-6v26h4 v-18l10 18h4l2 -18l8 18h4zM850 918h-4l-2 18l-8 -18h-7v26h5v-18l10 18h4l2 -18l8 18h4zM858 924h4v-6h-6zM885 928l4 -2q0 -2 -4 -6q-2 0 -3 -1t-3 -1q-4 0 -9 4q-2 0 -2 6t2 8q0 2 4 6q2 0 3.5 1t3.5 1q4 0 5 -1t3 -1q0 -2 1 -3t1 -3h-4l-2 2q-2 0 -2 1t-2 1q-2 -2 -4 -2 q-2 -2 -3 -4q0 -2 -1 -3t-1 -3t1 -2t1 -2q2 0 2.5 -1t2.5 -1q2 2 4 2q2 2 2 4zM909 930h-10l-2 -12h-6l6 26h4l-2 -10h10l2 10h4l-4 -26h-6zM922 918h-4l4 26h10q2 0 3 -1t3 -1t2 -2v-4q0 -4 -2 -4q0 -2 -4 -2v-4q4 -4 4 -8h-4l-4 8q0 2 -2 2h-2h-2zM924 932h4h4l2 2l2 2 q0 2 -2 2q0 2 -2 2h-6zM942 918l4 26h6l-6 -26h-4zM952 926h4q0 -2 2 -2q2 -2 5 -2q2 0 2 2q2 0 2 2l-2 2l-2 2q-4 0 -5 2q-2 0 -2 2l-2 2q0 2 1 3t1 3q2 0 3.5 1t5.5 1q2 0 3 -1t3 -1q2 -2 2 -6h-4l-2 2l-2 2q-4 0 -4 -2v-2q0 -2 4 -2l4 -4q2 0 2 -4t-2 -6q-2 0 -3 -1 t-3 -1q-4 0 -7 2q-2 0 -2 1t-2 1v4zM987 918h-6l-4 26h4l4 -20l10 20h4zM997 918l4 26h7l-7 -26h-4zM1008 918l4 26h6l-4 -22h12l-2 -4h-16zM1028 918l6 26h19l-2 -4h-13l-2 -6h13v-4h-13l-2 -8h15l-2 -4h-19zM1053 924h4v-6h-6zM1079 928l4 -2q0 -2 -4 -6q-2 0 -3 -1t-3 -1 q-4 0 -8 4q-2 0 -2 6t2 8q0 2 4 6q2 0 3 1t3 1t2 -1t2 -1h2q4 -4 4 -6h-4l-2 2q-2 0 -2 1t-2 1q-2 -2 -4 -2q-2 -2 -2 -4t-1 -3t-1 -3t1 -2t1 -2q2 0 2 -1t2 -1q2 2 4 2q0 2 2 4zM1087 928v4q2 2 2.5 3t2.5 3q0 4 4 4q2 2 6 2q2 0 6 -4t4 -6q0 -4 -1 -5t-1 -3l-6 -6 q-2 0 -3 -1t-3 -1q-4 0 -6 2l-5 4v4zM1092 928q0 -2 1 -2t1 -2q2 0 2 -1t2 -1l4 2l4 4v6v4l-4 2q-6 0 -6 -4q-4 -4 -4 -8zM1126 918h-4v22l-4 -22h-6l6 26h6l2 -18l9 18h8l-6 -26h-4l4 20z" />
<glyph unicode="9" d="M750 754q-37 -66 -68 -120t-70 -126q-53 23 -94 56.5t-74 78.5t-54 102.5t-21 128.5q0 74 21.5 131.5t51.5 102.5q63 88 170 135v-260h138v432q-125 -6 -213 -51t-154 -111q-61 -61 -107 -157q-20 -47 -33.5 -100.5t-13.5 -116.5q0 -98 27 -171t66 -133q80 -119 210 -186 q23 -10 46.5 -19.5t50.5 -15.5q51 -14 114 -18h5h2v10v408zM784 995q39 66 69 119t69 127q104 -47 168 -137q33 -45 54 -101.5t21 -130.5q0 -72 -21.5 -130t-51.5 -101q-63 -90 -170 -137v262h-138v-432q125 6 213 51t154 111q68 68 106 157q20 45 34 99.5t14 115.5 q0 98 -26 172t-67 134q-78 119 -211 184q-41 20 -96 37q-27 6 -55.5 11t-56.5 5h-5l-4 2v-10v-408zM774 150q-147 0 -278 54t-236 158q-104 104 -158.5 235.5t-54.5 279.5q0 147 54.5 278t158.5 234q104 104 235.5 158.5t278.5 54.5q145 0 276.5 -54.5t235.5 -158.5 q104 -102 158.5 -233.5t54.5 -278.5t-54 -278.5t-159 -236.5q-104 -104 -235.5 -158t-276.5 -54zM774 1532q-135 0 -255 -51t-209 -140.5t-141 -209t-52 -254.5t52 -255t141 -209t209 -141.5t255 -52.5t254 52.5t208 141.5t141.5 208.5t52.5 255.5q0 135 -52.5 254.5 t-141.5 209t-208 140.5t-254 51zM455 840l20 -4q-6 -16 -18 -25q-16 -8 -27 -8q-14 0 -29 10q-8 10 -8 31q0 18 6 30q6 14 19 21q10 8 24 8t27 -8q10 -10 10 -23l-18 -2l-6 13q-2 2 -13 2q-10 0 -14 -4q-10 -6 -12 -17q-4 -12 -4 -20q0 -12 6 -19q6 -6 12 -6q8 0 14 6 q7 5 11 15zM549 848h-37l-10 -43h-19l19 96h20l-8 -37h37l8 37h21l-21 -96h-20zM600 805h-20l20 96h43q12 0 16 -2q8 -4 11 -8q4 -8 4 -14q0 -14 -8 -21q-4 -6 -23 -10q4 -2 5 -4t3 -4q4 -6 7.5 -14.5t7.5 -18.5h-21q-2 4 -4 10t-6 14q-4 4 -5 8.5t-3 6.5h-11h-8zM610 860 h11h22q2 2 4 3t4 3q2 4 2 11q0 6 -4 6q-2 2 -12 2h-21zM676 805l20 96h19l-21 -96h-18zM717 836l18 2q0 -8 4 -13q2 -6 15 -6q10 0 14 4q4 2 4 8t-2 9q-2 0 -14 6l-17 8q-6 2 -8 8q-2 4 -2 12q0 12 8 21q8 8 25 8q18 0 26 -8q10 -10 11 -21l-19 -2q0 6 -6 11q-2 4 -12 4 q-8 0 -10 -2q-4 -2 -4 -8q0 -4 2 -7q2 -2 6 -3t8 -5q10 -4 14 -6l8 -4q6 -10 7 -18q0 -10 -11 -21q-10 -10 -28 -10q-8 0 -21 4q-10 6 -12 12q-4 5 -4 17zM889 805h-21l-18 96h20l13 -74l39 74h20zM930 805l20 96h19l-19 -96h-20zM969 805l20 96h19l-17 -80h49l-4 -16h-67z M1051 805l18 96h72l-2 -16h-54l-4 -21h52l-5 -16h-49l-6 -27h55l-4 -16h-73zM403 920l5 26h8l2 -2h4h2l2 -2v-4v-4v-6l-4 -4q-2 -2 -4 -2q-2 -2 -6 -2h-9zM410 924h2q4 0 4 2h2q2 2 2 4q2 2 2 6v2l-2 2q-2 0 -2 1t-2 1h-2zM428 920l6 26h19l-2 -6h-13l-2 -4h13v-4h-13l-2 -8 h15v-4h-21zM453 928h4q0 -2 2 -2q0 -2 4 -2q2 0 2 2q2 0 2 2l-2 2l-2 2q-4 0 -4 2q-2 0 -2 2l-2 2q0 2 1 3t1 3q2 0 3 1t5 1q2 0 3 -1t3 -1q2 -2 2 -6h-4l-2 2l-2 2q-4 0 -4 -2v-2q0 -2 4 -2l4 -4q2 0 2 -4t-2 -6q-2 0 -3 -1t-3 -1q-4 0 -6 2q-2 0 -2 1t-2 1v4zM475 920 l4 26h6l-6 -26h-4zM498 934h12l-4 -10q0 -2 -4 -2q-2 -2 -6 -2q-2 0 -3 1t-4 1q-4 4 -4 8q0 6 2 8q0 2 5 6q2 0 4 1t4 1t3 -1t3 -1q4 -4 4 -6h-4l-2 2t-4 2l-4 -2l-4 -4v-6v-4q2 0 2 -1t2 -1h4l2 2l2 4h-6v4zM530 920h-4l-6 18l-4 -18h-4l4 26h4l8 -18l2 18h7zM537 920l4 26 h18v-6h-14v-4h12v-4h-14v-8h14l-2 -4h-18zM559 920l6 26h6q2 0 2 -1t2 -1h3h2l2 -2v-4q2 0 2 -4q0 -2 -1 -3t-1 -3l-4 -4q-2 -2 -5 -2q-2 -2 -6 -2h-8zM565 924h2q4 0 4 2h2l5 4v6v2l-3 2q-2 0 -2 1t-2 1h-2zM594 920l4 26h10q2 0 2 -1t2 -1h2l2 -2v-2v-4q-2 -2 -4 -2l2 -2 t2 -4t-2 -4l-2 -2q-2 0 -3 -1t-3 -1h-12zM600 924h4q4 0 4 2h2v2v2q-2 2 -4 2h-4zM602 936h4h4h2v2v2h-2h-4h-2zM631 920h-4l2 10l-8 16h6l4 -8v-4l2 2l2 4l4 6h6l-12 -16zM784 918h-4l-2 18l-8 -18h-6v26h4l2 -18l8 18h4l2 -18l9 18h4zM817 918h-4l-2 18l-8 -18h-6v26h4 v-18l10 18h4l2 -18l8 18h4zM850 918h-4l-2 18l-8 -18h-7v26h5v-18l10 18h4l2 -18l8 18h4zM858 924h4v-6h-6zM885 928l4 -2q0 -2 -4 -6q-2 0 -3 -1t-3 -1q-4 0 -9 4q-2 0 -2 6t2 8q0 2 4 6q2 0 3.5 1t3.5 1q4 0 5 -1t3 -1q0 -2 1 -3t1 -3h-4l-2 2q-2 0 -2 1t-2 1q-2 -2 -4 -2 q-2 -2 -3 -4q0 -2 -1 -3t-1 -3t1 -2t1 -2q2 0 2.5 -1t2.5 -1q2 2 4 2q2 2 2 4zM909 930h-10l-2 -12h-6l6 26h4l-2 -10h10l2 10h4l-4 -26h-6zM922 918h-4l4 26h10q2 0 3 -1t3 -1t2 -2v-4q0 -4 -2 -4q0 -2 -4 -2v-4q4 -4 4 -8h-4l-4 8q0 2 -2 2h-2h-2zM924 932h4h4l2 2l2 2 q0 2 -2 2q0 2 -2 2h-6zM942 918l4 26h6l-6 -26h-4zM952 926h4q0 -2 2 -2q2 -2 5 -2q2 0 2 2q2 0 2 2l-2 2l-2 2q-4 0 -5 2q-2 0 -2 2l-2 2q0 2 1 3t1 3q2 0 3.5 1t5.5 1q2 0 3 -1t3 -1q2 -2 2 -6h-4l-2 2l-2 2q-4 0 -4 -2v-2q0 -2 4 -2l4 -4q2 0 2 -4t-2 -6q-2 0 -3 -1 t-3 -1q-4 0 -7 2q-2 0 -2 1t-2 1v4zM987 918h-6l-4 26h4l4 -20l10 20h4zM997 918l4 26h7l-7 -26h-4zM1008 918l4 26h6l-4 -22h12l-2 -4h-16zM1028 918l6 26h19l-2 -4h-13l-2 -6h13v-4h-13l-2 -8h15l-2 -4h-19zM1053 924h4v-6h-6zM1079 928l4 -2q0 -2 -4 -6q-2 0 -3 -1t-3 -1 q-4 0 -8 4q-2 0 -2 6t2 8q0 2 4 6q2 0 3 1t3 1t2 -1t2 -1h2q4 -4 4 -6h-4l-2 2q-2 0 -2 1t-2 1q-2 -2 -4 -2q-2 -2 -2 -4t-1 -3t-1 -3t1 -2t1 -2q2 0 2 -1t2 -1q2 2 4 2q0 2 2 4zM1087 928v4q2 2 2.5 3t2.5 3q0 4 4 4q2 2 6 2q2 0 6 -4t4 -6q0 -4 -1 -5t-1 -3l-6 -6 q-2 0 -3 -1t-3 -1q-4 0 -6 2l-5 4v4zM1092 928q0 -2 1 -2t1 -2q2 0 2 -1t2 -1l4 2l4 4v6v4l-4 2q-6 0 -6 -4q-4 -4 -4 -8zM1126 918h-4v22l-4 -22h-6l6 26h6l2 -18l9 18h8l-6 -26h-4l4 20z" />
<glyph unicode="A" horiz-adv-x="1187" d="M778 492q-6 33 13 61q4 6 5 15.5t3 19.5q-16 2 -28.5 2t-27.5 2q8 23 14.5 45t14.5 45q-12 2 -19.5 -5t-13.5 -14.5t-14 -13.5t-23 -2q-29 98 -57.5 196.5t-58.5 203.5q-4 -10 -7.5 -17.5t-5.5 -15.5q-25 -86 -49 -171t-49 -171q-8 -31 -20.5 -39t-44.5 -8 q-8 2 -13.5 -2.5t-27.5 -28.5q14 2 27.5 3t25.5 3q27 -31 14 -76q-37 -123 -71.5 -246.5t-69.5 -246.5q-2 -8 -4 -14.5t-6 -16.5h-236q0 27 4 37q33 111 66 218t65 218q4 10 10.5 18.5t14.5 18.5l-4 8q-10 23 12 27q12 0 22.5 2t14.5 18q4 14 -4 22.5t-19 18.5q2 0 -6 8 q14 23 16.5 50.5t24.5 50.5l2 2q-10 12 -5 21.5t18 13.5q16 6 34.5 11t36.5 -5q14 -8 29 -10q39 -12 68 16q12 12 23 24.5t24 24.5q-2 0 -2 2l-2 2h-41t-41 -2q-18 -2 -39 -16q-35 -18 -72 -13q-4 0 -8 3.5t-12 7.5q23 4 42 8t35 8q6 10 10.5 16.5t8.5 16.5q4 6 6 15t-2 11 q-12 10 -31 7q-10 -2 -20.5 -7.5t-24.5 -11.5q18 72 38.5 139.5t41.5 135.5q20 68 40.5 135t43.5 137h240q4 -10 7 -20.5t7 -20.5q35 -111 67.5 -221.5t67.5 -222.5q4 -14 6 -31t4 -35q4 -8 12.5 -18.5t12.5 -22.5q59 -197 120.5 -390.5t121.5 -391.5q2 -6 3 -13.5t5 -15.5 q-12 -2 -44 -4t-70 -2h-75t-59 2q-35 115 -67.5 228.5t-65.5 224.5q2 14 15 18t5 21h-2zM287 309q0 16 -13.5 34.5t-27.5 18.5q-16 2 -28.5 -9t-14.5 -25q-2 -16 13 -35t32 -19q16 0 27.5 10.5t11.5 24.5zM643 1176q-66 -16 -78 -68q25 10 46.5 24.5t31.5 43.5zM502 1225 q-27 -10 -32 -20.5t1 -33.5q27 14 30 21.5t1 32.5zM358 557q2 4 3 5t4 5q-4 6 -8.5 11.5t-14.5 1.5q-2 0 -6 -11q16 -8 22 -12zM743 915q2 -4 2 -6t3 -4q10 -2 18 1t14 22q-12 -4 -20.5 -6.5t-16.5 -6.5zM707 1292l12 13q-2 8 -12 12q-2 0 -5 -2q-4 -4 -2 -4q1 -7 7 -19z M711 963q2 -2 3 -4.5t3 -4.5q8 2 13 5.5t5 13.5l-2 2q-2 0 -4 2q-4 -4 -9 -7t-9 -7zM664 1376q4 6 8 15q-6 6 -8 6q-2 -2 -11 -15q2 -2 4 -2q2 -2 3.5 -2t3.5 -2zM426 575q-4 2 -7 4.5t-7 2.5l-6 -7q6 -6 10 -8q-2 0 10 8zM780 492h-30q-4 20 -10.5 39.5t-10.5 41.5 q8 -4 15.5 -7t15.5 -7q4 -16 0 -35.5t18 -31.5h2z" />
<glyph unicode="B" horiz-adv-x="993" d="M160 -2q-8 37 -43 31q-8 -2 -16.5 2t-16.5 8q-16 -10 -9 -19.5t9 -19.5h-27v242q18 4 35 4t33 -17q35 23 70.5 20t70.5 -7q8 0 14.5 -2t16.5 2t19.5 4h19.5q53 2 107.5 1t109.5 3q121 4 143 125q4 31 3 61.5t-11 59.5q-29 94 -119 102q-31 4 -61.5 6t-61.5 2 q-86 2 -172 1t-172 -1h-45v244q10 2 31 2q66 0 128.5 1t127.5 -1q41 -2 81 1t81 1q29 -2 54.5 6t49.5 21q8 4 12.5 12t10.5 16q29 43 29 88t-17 93q-23 57 -82 67q-41 6 -78 6h-383h-45q-4 61 -1 122t1 124q16 0 30.5 1t31.5 -1q10 0 22 -12q25 -20 43 0q8 10 15.5 11 t17.5 1q90 -2 178 -2t178 -4q240 -12 299 -248q16 -72 11.5 -143.5t-37.5 -139.5q-35 -74 -105 -122q135 -63 177 -207q-20 -25 -44 -44.5t-34 -49.5q23 14 39 35.5t47 25.5q10 -35 12 -67.5t-2 -67.5q-6 -104 -51 -195q-39 -80 -101.5 -126t-154.5 -50q-117 -4 -232.5 -4 t-236.5 -2zM360 1362q-16 0 -28.5 -11.5t-12.5 -25.5q0 -18 15.5 -35.5t32.5 -17.5q16 2 26 12t10 25q0 18 -14.5 35.5t-28.5 17.5zM152 1241q-4 16 -6.5 29.5t-6.5 23.5q-2 6 -10 10.5t-14 2.5q-4 -2 -11.5 -8.5t-7.5 -10.5q4 -12 8.5 -23.5t12.5 -19.5q4 -4 14.5 -3 t20.5 -1zM887 547q-25 14 -33 -8q-2 -4 0 -9.5t6 -7.5q18 -6 29 19v2q-2 2 -2 4zM154 1360q-4 -6 -9.5 -9t-5.5 -8q0 -4 4 -8t9 -8q12 8 14 14q0 3 -12 19zM162 35q20 8 6 26q-2 2 -7 2t-7 -2q-12 -18 8 -26zM582 1235q4 6 8 10t6 8q2 0 -2 5.5t-8 5.5q-4 -2 -8.5 -5.5 t-8.5 -7.5q9 -8 13 -16zM659 836l-7 -10.5t-7 -8.5l7 -7t7 -3q12 4 13 12q2 4 -3.5 7.5t-9.5 9.5zM737 381q16 2 20.5 5t10.5 20zM770 1288q-4 4 -8 6t-8 6l-6 -10q0 -6 8 -10q2 0 14 8zM154 199q-4 -4 -7.5 -8.5t-3.5 -6.5q4 -4 7.5 -5t7.5 -5q2 4 4 6t2 6q0 2 -3 5.5 t-7 7.5z" />
<glyph unicode="C" horiz-adv-x="1038" d="M991 842h-221q-6 39 -12 75.5t-15 73.5q-6 33 -18 60q-18 49 -51 78.5t-72 41t-81 7.5t-77 -23q-8 -4 -16 -9t-16 -9q-6 8 -11.5 15t-13.5 17q-12 -16 -6 -27.5t16 -21.5q-16 -16 -31.5 -29.5t-31.5 -29.5q-12 -16 -12 -29v-17t-15 -9q2 -4 5 -9.5t-1 -7.5 q-10 -12 -13 -27.5t-3 -31t-1 -29.5t-9 -29q-10 -4 -25.5 -4t-19.5 -22q12 -12 22 -4t25 6q-8 -68 -13 -137q-2 -16 1.5 -30.5t3.5 -31.5q4 -53 9 -108.5t21 -108.5q10 -37 27.5 -69.5t44.5 -61.5q33 -39 75 -57.5t84 -16.5t83 22.5t71 61.5q59 74 72 176q4 16 5 34t3 38 h221q4 -49 1 -95t-13 -91q-16 -84 -53 -156t-99 -131q-70 -66 -152.5 -90.5t-176.5 -18.5q-106 10 -185 59.5t-139 133.5q-53 74 -81.5 157t-41.5 173q-6 43 -8 87t-6 87q0 10 3 21.5t7 21.5q-2 10 -6 18t-2 19q2 16 0 33.5t12 31.5q-10 14 -7 28.5t5 31.5q4 14 7 26.5 t8 26.5q2 10 0 18t2 19q16 86 51 164.5t94 146.5q47 55 105.5 90t121 50.5t127 13.5t125.5 -23q78 -27 136.5 -77t93.5 -128q41 -86 55 -176t12 -188zM786 492q47 -27 75 -33t48 4q-29 23 -59.5 28t-63.5 1zM803 1303q-10 -10 -17.5 -18.5t-1.5 -22.5q12 -23 37 -13 q6 2 12.5 8.5t6.5 12.5q2 16 -11.5 21.5t-25.5 11.5zM252 987q-8 -10 -13.5 -14t-7.5 -10q-2 -10 2.5 -18.5t16.5 -10.5q4 0 10 7t6 11q2 8 -4 16.5t-10 18.5zM246 514q-8 -10 -12.5 -14t-8.5 -8q6 -4 12.5 -9.5t12.5 -9.5q2 -2 7 4t5 10q-2 4 -16 27zM180 817q16 -4 26.5 0 t16.5 21q-8 4 -15 9t-18 11q-4 -12 -5 -21.5t-5 -19.5zM88 637q23 4 27 8t10 23q-16 2 -23.5 -6.5t-13.5 -24.5zM670 1245q-4 4 -8.5 9.5t-6.5 2.5q-10 -4 -14 -12q0 -4 4 -8l8 -8zM324 1217q2 16 -4.5 22t-28.5 2q10 -6 17.5 -12t15.5 -12zM854 950q-8 4 -13 8.5t-10 4.5 q-4 0 -8 -3.5t-2 -7.5q0 -4 3 -8t7 -4t9.5 3t13.5 7zM63 862q16 -8 21 -8q2 0 3 3t5 7q-8 8 -14 10q1 0 -15 -12zM244 717q-6 4 -9.5 7t-7.5 3t-6 -4l-4 -8q0 -8 8 -8q5 0 19 10z" />
<glyph unicode="D" horiz-adv-x="1005" d="M59 0v244q10 0 17.5 1t17.5 1h209q10 0 17.5 -3t17.5 -5q10 -4 14 -2q29 6 37 5t27 -16q10 16 23.5 19.5t29.5 3.5q27 0 55 6q47 10 83 37.5t52 75.5q14 35 21.5 72.5t17.5 76.5q4 10 4 23.5t3 23.5q25 0 34 2q2 0 3 6.5t-1 6.5l-16 8t-18 8q0 51 1 105.5t-1 109.5 q-2 45 -8.5 89t-20.5 85q-10 31 -21 51q-55 113 -180 121q-35 2 -70.5 3t-72.5 3q-57 2 -113.5 0t-116.5 0h-41q-4 10 -5 44t-2 73t0 75t5 54h60q4 -6 8 -18q2 0 3 1t3 1h2q8 18 31 18q92 -2 183 -2t184 -4q84 -4 149.5 -41t116.5 -102q55 -74 86 -157t43 -175 q16 -115 17 -228.5t-17 -228.5q-18 -137 -82 -252q-41 2 -45 -11t12 -38q-10 -29 -33.5 -40t-46.5 -24q4 -4 6 -7t7 -9q-100 -82 -224 -88q-61 -2 -123.5 -2h-124.5h-178h-39zM375 162q0 -16 -1 -29.5t3 -26.5q8 -16 22 -20q6 -2 15.5 3t9.5 9q8 18 -6 33q-6 10 -17.5 15.5 t-25.5 15.5zM752 199q10 -35 36 -43q10 23 2.5 32t-38.5 11zM721 358q-4 -25 1 -32t30 -13q0 37 -31 45zM393 51q-6 4 -10 10.5t-8 4.5t-7 -7.5t-8 -9.5q10 -10 15 -10q4 0 8 4t10 8zM539 86q4 10 8 15t4 10q0 4 -5 9t-9 3q-14 -4 -15 -14q0 -4 5.5 -9.5t11.5 -13.5z M786 967q-8 4 -12 8t-8 4t-14 -10q4 -4 7 -8.5t7 -6.5q4 0 8 4.5t12 8.5zM766 1190q0 27 -23 24q-2 0 -4 -4t-2 -8q6 -22 29 -12zM285 123q16 20 18 24q0 2 -4 6.5t-8 2.5q-12 -4 -15 -13q0 -4 2.5 -8t6.5 -12zM866 512l-6 6q-4 2 -5 0t-5 -2q4 -8 8 -10q0 -2 8 6zM305 1227 l-12 -8q2 -2 3 -5.5t3 -5.5h2q2 0 4 2q2 0 4 2q0 3 -4 15zM817 762q-14 6 -16 6q-2 -2 -6 -10q6 -6 8 -4q2 0 14 8zM842 469h10q0 4 -1 9t-1 11q-2 -2 -4 -2h-4q-2 -4 -1 -9t1 -9zM760 256q-8 8 -12 8t-9 -8q4 -2 5 -4t6 -2q4 0 10 6z" />
<glyph unicode="E" horiz-adv-x="815" d="M778 1405v-242h-733v240zM43 715v94h735v-246h-241h-248q-59 2 -121 0t-123 2q-2 12 -2 23.5t-2 23.5q27 29 47 60q-6 2 -6 11t-3 18.5t-10.5 14.5t-25.5 -1zM580 627q-23 -2 -27 -5.5t-8 -19.5q27 -4 35 25zM422 639q10 10 10 12q-2 4 -10 13q-2 0 -4 -2l-4 -5 q2 -6 8 -18zM379 723q2 4 4 7t4 7q-6 6 -8 4q-4 -2 -5 -5t-5 -7l2 -2q4 -4 8 -4zM438 -4q-20 4 -35.5 7t-29.5 9q-29 12 -57.5 13.5t-57.5 -25.5q-4 6 -8 11t-8 9q-16 23 -29.5 26t-36.5 -11q-14 -8 -26.5 -12.5t-28.5 0.5q-6 0 -19 -9q-14 -10 -26.5 -13t-28.5 1 q-4 16 -5 38.5t0 45.5t2 43.5t5 30.5q10 -4 19.5 -6t19.5 -7q49 -18 82 21q12 16 20 25q6 4 23 12l-4 8h-44.5t-43.5 -2q-10 -2 -17.5 -6t-17.5 -8q-8 -4 -15.5 -7.5t-17.5 -5.5q-2 0 -16 15q35 8 51 37q4 6 16.5 8t22.5 2h430h57q8 0 16.5 1t10.5 -16q2 -2 6 -2h8 q10 16 25.5 16.5t30.5 0.5h67v-246h-313q6 23 11 41t13 45q-10 -6 -17 -9t-11 -7q-8 -6 -14.5 -13.5t-14.5 -15.5q-10 -8 -11 -14.5t15 -10.5v-6q0 -8 2 -14zM281 66h34q-20 20 -34 0z" />
<glyph unicode="F" horiz-adv-x="765" d="M246 592v-592h-230v838h734v-244q-31 -4 -63 -3t-62 1h-125h-127h-127zM115 500q-59 20 -88 -35q16 -14 33.5 -11t33.5 11q10 4 18.5 11.5t2.5 23.5zM367 647q12 -10 23 -11t22 13q-25 25 -45 -2zM522 817q4 -23 23 -14q2 0 4 4t0 8q-9 16 -27 2zM248 743q-16 -10 -6 -22 q0 -4 5 -4t5 2q12 12 -4 24zM16 1163v244h734v-244h-734zM690 1219q-6 12 -10 14q-2 2 -6 1t-4 -3q0 -10 4 -12h16z" />
<glyph unicode="G" horiz-adv-x="1134" d="M436 510v248h641q2 -12 2 -23.5v-21.5q-6 -10 -19 -10.5t-9 -14.5q2 -6 10 -11t18 -13v-33q0 -82 1 -164t-1 -166q0 -14 2 -29.5t-12 -27.5q0 -2 2 -7.5t4 -9.5q2 -6 6 -22q-10 0 -21 1t-18 -3q-6 -4 -8 -13.5t-6 -19.5l-7 -17.5t-3 -11.5q-23 -4 -39 -6t-35 -6 q-4 8 -16 21q-6 -8 -12.5 -14.5t-10.5 -12.5q6 -12 8 -25.5t-10 -29.5q-6 6 -12 11t-10 9q-16 -10 -10 -22.5t3 -26.5q-10 -4 -38 -19q-6 8 -11.5 16.5t-9.5 14.5t-8 13.5t-8 11.5q-8 2 -16.5 0t-16.5 -4q2 -8 2 -16.5t4 -14.5q6 -8 15.5 -12t19.5 -13q-6 -4 -12 -10 q-143 -45 -274.5 -25.5t-248.5 117.5q-47 41 -81.5 91.5t-57.5 107.5q-14 35 -25.5 73t-23.5 72q-4 14 -1 24.5t28 18.5q-39 8 -41 33q-23 145 -13.5 286.5t64.5 278.5q16 39 35.5 76t44.5 72q82 117 194.5 164t253.5 35q53 -2 107 -19q164 -43 239 -199q51 -109 64 -233 q4 -35 5 -68.5t3 -68.5h-229q-4 29 -5.5 55.5t-7.5 52.5q-12 53 -34 113q-25 57 -70 84t-105 31q-166 12 -251 -134q-16 -29 -26.5 -60.5t-25.5 -59.5q-4 -10 -10 -20.5l-14 -24.5q10 -14 9 -34t-3 -42q-6 -84 -1 -166t28 -164q18 -66 53 -120t92 -95q6 -4 13 -5t16 -5 q72 -29 138 -17.5t130 50.5q31 18 47 29.5t24.5 25.5t9.5 33.5t1 56.5v84h-410zM1001 420q2 -10 1 -16.5t2 -10.5q4 -4 7 -11t7 -7q12 0 20 12q18 35 11 72q-4 14 -15 14q-16 0 -20 -12q-4 -10 -6.5 -21.5t-6.5 -19.5zM979 262q-25 -35 -6 -67q33 28 6 67zM793 1307 q-35 6 -43 -19q-4 -8 6 -14q23 -8 37 33zM748 16q10 25 2.5 34t-33.5 7q0 -27 31 -41zM680 219q0 -29 5 -35t28 -8q-2 16 -8.5 27.5t-24.5 15.5zM303 297q-6 4 -10 9t-8 5q-6 0 -19 -8q4 -4 7 -9t8 -7q4 -2 9 2t13 8zM940 1063q8 -10 13 -14.5t16 4.5q8 4 2 14 q-11 16 -31 -4zM895 117q-12 4 -20.5 5t-18.5 5q4 -25 8 -25.5t31 15.5zM117 438q2 -27 28 -14q-1 26 -28 14zM991 152q4 6 7 9t6 7q0 4 -2.5 6t-4.5 6q-4 -2 -8 -3t-4 -5q-2 -2 6 -20zM442 172l-6 -12q6 -4 13.5 -6t13.5 -7q4 8 4 11q-17 8 -25 14zM324 104q-12 8 -15 9 q-4 -2 -5 -5.5t-3 -5.5q4 -8 10 -8q4 2 6.5 4t6.5 6zM201 778q2 6 4 9.5t2 7.5q-2 2 -10 6q-6 -6 -7 -8q0 -4 3.5 -6.5t7.5 -8.5z" />
<glyph unicode="H" horiz-adv-x="1028" d="M78 1407h227q2 -45 1 -89t-1 -91v-180v-185h418v545h229v-1036q-23 -6 -48 -10.5t-36 -34.5q10 -4 16.5 -7.5t14.5 -3.5t19.5 3.5t33.5 7.5v-326h-229q0 31 -1 60.5t1 60.5q2 29 1 59.5t-1 61.5v118v125v121h-416v-606h-225q20 20 37.5 36.5t38.5 37.5h-80v1333zM125 426 q12 6 23.5 13t15.5 22q0 4 -1 9t-5 9q-2 2 -8.5 1t-10.5 -3q-10 -10 -15 -22.5t1 -28.5zM102 825q4 10 8.5 15.5t6.5 9.5q0 4 -5.5 8t-9.5 4q-4 -2 -8 -6t-6 -8q0 -4 5 -9.5t9 -13.5zM737 985q25 -4 28 0t-1 27zM219 823q-4 4 -8 4q-2 -6 -10 -18q4 0 8 -4q8 12 10 18z M332 647q-2 2 -3 2t-3 2q-2 0 -4 2q-4 -4 -5.5 -7l-3.5 -7q2 0 4 -2t5 0q4 2 5 4t5 6z" />
<glyph unicode="I" horiz-adv-x="380" d="M80 1407h219l2 -1407h-221v1407zM125 506q20 -16 37 -2q6 6 0 12q-21 19 -37 -10zM240 68q4 -10 8 -27q4 2 7 2t5 4q7 19 -20 21z" />
<glyph unicode="J" horiz-adv-x="886" d="M709 127q2 -10 4 -18.5t-6 -18.5q-80 -80 -175.5 -102.5t-201.5 0.5q-96 16 -148.5 78.5t-79.5 152.5q-2 8 1 16.5t6 18.5q-4 4 -9.5 8t-7.5 10q-6 27 -9 54.5t-5 51t-3 40t-1 18.5v123h219q0 -6 1 -24.5t3 -40l4 -43t2 -33.5l4 -40l4 -40q0 -10 2 -18.5t6 -18.5 q23 -66 89 -72q14 0 28.5 -1t28.5 -1q82 6 100 82q6 33 10.5 65t6.5 64q2 68 1 134.5t-1 134.5v655v45h217q2 -4 4 -10t4 -13q2 -16 4 -30.5t2 -30.5v-813q0 -61 -3 -124.5t-19 -125.5q-6 -25 -16.5 -50.5t-20.5 -49.5q-10 -20 -16 -23.5t-29 -9.5zM780 1241q-6 -8 -12 -13 t-4 -9q2 -6 7 -13.5t9 -7.5q10 -2 15.5 4t1.5 15q0 6 -5.5 11t-11.5 13zM166 219q10 -10 17 -15t18 5q4 4 5 10t-3 8q-19 19 -37 -8zM727 1341q-18 -18 -18 -22t6 -9t10 -7q2 0 8 4t6 8t-4 10t-8 16zM621 319q-8 -8 -13.5 -15t4.5 -17q2 -4 9.5 -3t9.5 3q8 10 4 17t-14 15z M272 92q-4 -4 -9 -7t-5 -7q-2 -4 1 -8t7 -4q10 0 15 8zM647 1100l-12 8q-4 0 -7 -3t-7 -5q4 -4 5 -7t5 -3q2 0 16 10zM662 1280q-4 2 -7.5 4t-5.5 2q-4 -2 -5 -4t-5 -4q4 -2 5 -5t5 -3t6.5 3t6.5 7z" />
<glyph unicode="K" horiz-adv-x="1077" d="M57 1313q8 4 9 4q29 0 34.5 7t-0.5 34q-2 10 -2 18t11 17q8 -27 21 -48.5t42 -31.5q8 16 15.5 34.5t17.5 34.5q4 4 9 8.5t9 8.5q4 -6 8.5 -12.5t6.5 -12.5t-2.5 -12t-4.5 -12q-2 -6 -2 -13.5t4 -11.5t11.5 -4t13.5 2q4 2 9 4t12 6q6 -18 6 -21t-11 -5q-4 -2 -7 -3t-7 -4 q8 -8 14 -12l13 -4q0 -20 -1 -38.5t1 -39.5q4 -25 -6.5 -49t-6.5 -47t8.5 -47.5t4.5 -46.5v-164v-37q2 0 3 -1t5 -1q31 37 59.5 76t59.5 78q29 37 58.5 75.5t57.5 77.5q29 39 60 78t61 80q47 -53 103 -8q2 -16 2 -28.5t4 -29.5q27 16 50.5 29.5t47.5 28.5q-23 39 4 78 q18 31 -18 32h-31q2 29 35 29h168l4 -4v-4q0 -2 -2 -4q-4 -8 -8 -13q-98 -131 -195.5 -261t-196.5 -263v-2q0 -2 -1 -2t-1 -2q61 -131 123 -262t123 -264q-20 -23 -38.5 -42.5t-37.5 -39.5q2 -2 3.5 -4t3.5 -4q12 6 20 15t17.5 19.5t19.5 17.5t27 7q12 -29 32 -72 q16 -37 42 -92t61 -127l-262 -4q-74 160 -128.5 279.5t-91.5 201.5q-43 94 -73 162q-12 -12 -25 -29q-31 -41 -60.5 -79.5t-62.5 -79.5q-25 -35 -22 -74v-338v-45q-59 0 -114.5 -1t-113.5 1v1053q10 2 22.5 6t12.5 20t-11 19.5t-26 1.5v102q10 2 23 6q29 -43 47 -28 q14 10 14 28q-2 27 -49 29q-10 18 -17.5 37t-17.5 39zM106 1114q10 10 18.5 16.5t12.5 14.5q10 10 4 20q-4 4 -10 5t-10 -3q-10 -6 -18.5 -14t-18.5 -18q8 -6 13 -11.5t9 -9.5zM690 172q20 4 23.5 7t5.5 20q-10 -8 -16.5 -14.5zM535 1059q-4 -6 -7.5 -10.5t-3.5 -8.5 q-2 -2 3 -6t10 -2q4 2 6 5t6 7zM131 1243q0 2 4 10q-6 6 -13 8.5t-24 -4.5l17.5 -7t15.5 -7zM252 39q-8 4 -11 6t-8 2q-8 -4 -8 -14q-2 0 2 -3t9 -3q4 2 7 5t9 7zM106 811q-4 -8 -4 -10q0 -8 7 -8q6 0 6 6q-1 2 -9 12zM776 1262q-14 10 -27.5 22t-29.5 25l8 4q2 2 6 4 q12 -12 28.5 -15.5t35.5 -7.5q4 10 7 22.5t7 26.5q-16 4 -28.5 6.5t-26.5 6.5q4 8 8 14t2 12q0 4 -6 9.5t-15 13.5h46q-4 -47 36 -53q2 -16 2 -32.5t2 -33.5z" />
<glyph unicode="L" horiz-adv-x="774" d="M2 1395h227q4 -16 4 -25v-385q0 -4 1.5 -11t-3.5 -9q-25 -14 -18.5 -26.5t18.5 -27.5q6 -8 -1 -22.5t-21 -22.5q-4 -4 -10 -5t-11 -3q-23 -8 -28.5 -14t-1.5 -29q2 -29 -13 -43q-18 -18 -12 -41q6 -16 7 -35.5t22 -29.5q6 -4 11 -9.5t11 -11.5h49v-399h541v-246h-770 q0 10 -1 19.5t-1 19.5q0 117 1 233.5t1 233.5q0 14 -1 26.5t-1 24.5q0 4 3 10t7 13q0 2 -4 6t-6 8q-2 6 -1 12t1 10v744v35zM457 172q-4 25 -31 25q-25 -4 -20 -27q4 -25 26 -20q25 4 25 22zM16 612q18 -4 23.5 -2t17.5 19q-8 4 -14 9t-16 11q-4 -12 -6.5 -20.5t-4.5 -16.5z M106 279q-10 6 -16 11t-10 5q-4 2 -9 -3t-10 -9q4 -4 9.5 -10.5t9.5 -8.5t10 3.5t16 11.5zM115 657q-23 4 -27 1t-12 -23q23 -4 27 -1t12 23zM152 582q-27 18 -31 -7q0 -2 2 -4l4 -4q6 4 12.5 7.5t12.5 7.5zM135 496q-6 4 -10 7t-8 1q-2 0 -13 -10l7.5 -7.5t7.5 -3.5t7 4.5 t9 8.5zM270 223q-6 4 -9 8.5t-7 4.5q-2 2 -6 -1.5t-4 -5.5q4 -12 8 -14t8 1t10 7zM213 1341q-4 4 -8 7.5t-8 5.5l-4 -4q-2 -2 -3 -4q0 -2 -2 -3q2 -10 13 -12q2 0 4 2zM59 522q-8 -12 -8 -16t4 -5t8 -3q2 4 4.5 7t2.5 7q1 2 -11 10zM61 903l-4 -8q4 -2 9.5 -4t9.5 -4l4 4z M164 1016l-6 12q-2 -2 -5 -3t-3 -3q-2 -2 4 -12q4 2 5 3t5 3z" />
<glyph unicode="M" horiz-adv-x="1206" d="M287 1001v-1001h-211v1407h336q47 -227 93 -452.5t93 -454.5q23 74 38 148.5t32 150.5q16 76 30.5 150.5t30.5 152.5q16 76 31.5 151.5t32.5 153.5h335q2 -10 2 -19.5v-19.5v-1108q0 -14 -1 -27.5t-23 -21.5q23 -16 25 -33.5t-1 -38.5v-137h-57q-6 4 -4 18.5t-18 12.5 q-18 0 -21.5 -11.5t-7.5 -21.5h-107v997h-8q-49 -250 -97 -497.5t-97 -499.5h-221l-197 1001h-8zM571 225q-23 27 -59.5 35t-71.5 -8q37 -4 66.5 -18.5t64.5 -8.5zM410 1323q-14 16 -17 18q-20 6 -24 -14q-2 -4 1 -10t5 -4q8 2 16.5 4t18.5 6zM479 731q4 -18 10.5 -22 t16.5 0q2 2 2 7t2 9q-8 2 -14.5 3t-16.5 3zM991 332q0 25 -22 16q-2 0 -4 -5t0 -7q10 -20 26 -4zM209 651q-18 -12 -8 -24q6 -6 10 -2q14 10 -2 26zM549 12q8 16 8 19q-4 8 -12 12q-2 0 -7.5 -4t-2.5 -6q2 -5 14 -21zM870 1253q14 20 15 23q-4 8 -13 8q-8 0 -12 -10 q0 -4 3 -8.5t7 -12.5z" />
<glyph unicode="N" horiz-adv-x="1017" d="M295 1243q-2 8 -3 16.5t-3 16.5q-94 25 -123 -59q6 -4 12 -5.5t10 -5.5q6 -10 13.5 -19t21.5 -5t25.5 9t15.5 26q6 -4 12.5 -7.5t10.5 -7.5q-10 -10 -20.5 -17t-14.5 -18q-4 -10 -2 -24.5t4 -30.5q-2 -2 -4 -2q-2 -2 -5 -2t-7 -2q39 -8 68.5 -1t47.5 44q2 2 5 3t8 3 q16 8 17 13.5t-9 17.5q-4 4 -9.5 5t-9.5 5q8 10 12.5 16.5t12.5 16.5l3 -6l3 -6l98 -209q8 -14 4 -25q-6 -29 -1.5 -35t32.5 -14q51 -104 100.5 -208.5t98.5 -209.5h6q0 2 1 2t1 2q2 2 2 10v865q0 2 1 3t1 3t1 2t1 4h209v-1825q-47 78 -86 159t-80 161t-80 159.5t-80 161.5 l-159 326q-41 80 -81 161t-81 160q-6 -43 -6 -86v-86v-174v-174v-174v-176h-213v1407h221q16 -35 31.5 -67.5t31.5 -67.5q-10 -27 -26 -30t-39 1zM281 944q20 -31 32.5 -36t40.5 7q-4 6 -9 11.5t-9 11.5q-14 23 -22 22.5t-33 -16.5zM340 1026q-18 12 -24.5 13t-10.5 -5 q-18 -25 8 -41q6 8 12.5 15.5t14.5 17.5zM403 1108q-10 4 -15 7t-9 1q-14 -8 -17 -20q-2 -2 2.5 -7.5t8.5 -9.5q6 4 12 11.5t18 17.5zM168 752q-23 -16 -24 -21.5t12 -21.5q26 16 12 43zM856 1225q-10 4 -14 6t-8 2q-10 -4 -15 -14q-2 -2 2 -7.5t6 -5.5q9 3 29 19zM766 1346 q-16 12 -25 -5q0 -4 2 -8t5 -4q18 -3 18 17zM121 741q-8 -12 -8 -10q0 -4 2 -6t4 -6l6 6q0 4 -1 7zM217 1147q0 6 2 8q-12 4 -18 8q-2 -2 -2 -3t-2 -3q4 -4 10 -5t10 -5zM289 1116q-8 8 -13.5 14.5t-9.5 12.5q2 0 6 4q6 -4 14.5 -7.5t2.5 -23.5z" />
<glyph unicode="O" horiz-adv-x="1171" d="M72 643q-4 -2 -7.5 -2t-9.5 -2v70h232q4 -39 5 -76t9 -72q12 -76 41 -153q10 -33 30.5 -59.5t43.5 -51.5q41 -41 89 -55.5t101 -18.5q16 -2 33.5 7.5t36.5 15.5q18 2 43 6q4 4 6 13t8 14q92 82 119 206q53 231 -2 457q-23 90 -82 156q-61 70 -162 80q-8 2 -26 2v252 q29 4 55.5 -0.5t52.5 -10.5q94 -18 166 -68t125 -128q45 -61 71.5 -131t41.5 -146q27 -143 23.5 -284.5t-42.5 -282.5q-35 -133 -123 -238q-76 -92 -174 -132t-215 -34q-141 4 -241.5 70t-167.5 189q-27 47 -44.5 97t-25.5 103q-4 20 -8 39t-8 39q-2 16 -3.5 31.5t-5.5 32.5 q-2 16 -1.5 33.5t16.5 31.5zM918 414q20 -16 36 -2q2 0 2 5t-2 7q-24 15 -36 -10zM227 440q-18 4 -22 2t-10 -20q16 2 20 4t12 14zM209 350q10 6 20.5 11.5t20.5 11.5q-35 10 -41 -23zM238 174q4 2 5 3t5 3q6 6 4 10t-10 13q-4 -4 -7.5 -6t-3.5 -7q0 -4 2.5 -8t4.5 -8z M367 164q-12 29 -27 16q-2 -2 -2 -8q4 -2 11.5 -3t17.5 -5z" />
<glyph unicode="P" horiz-adv-x="899" d="M825 1212q-20 -4 -21 -14t5 -22q6 -8 13 -13.5t24 0.5q6 -29 11 -55.5t9 -54.5q4 -59 3 -103.5t-17 -103.5q-16 -63 -46 -117.5t-83 -97.5q-47 -41 -101.5 -53.5t-113.5 -16.5q-25 0 -65 -1t-77.5 -1h-68.5h-37v-559h-227q-2 8 -3 14t-1 15v82q-2 23 2 44t37 35 q-25 6 -37 11v606h49h99.5t115.5 1t100 1q27 0 52.5 2t52.5 6q66 6 100 64q8 14 17.5 24t31.5 13q-16 14 -17 13t-1 15q-2 27 -3 54.5t-10 52.5q-33 98 -137 102q-78 4 -156.5 4t-156.5 2h-137v246q4 0 8 1t8 1q125 -2 250 -3t250 -3q98 0 165.5 -49.5t112.5 -141.5z M426 590v10q-10 2 -18.5 4t-18.5 0t-13 -9t1 -17q6 -16 24 -5q6 4 12.5 8.5t12.5 8.5zM700 1141q4 -12 5.5 -22.5t5.5 -16.5q4 -4 11 -4t11 -2q2 6 4 13t-2 9q-6 6 -15.5 11.5t-19.5 11.5zM528 645q4 12 8.5 19.5t6.5 15.5q2 4 -5.5 8t-9.5 4q-16 -12 -18 -20q0 -4 5 -10.5 t13 -16.5zM782 1034q-18 -23 -18 -26q0 -14 14 -19q10 -4 15.5 2t3.5 17q0 4 -4.5 10t-10.5 16zM145 125q16 -12 22.5 -14t12.5 8q2 4 2 10t-4 8q-23 15 -33 -12zM354 1346l-7 -10.5t-3 -8.5q0 -2 5 -6t7 -2q4 2 7.5 6t7.5 8q-4 4 -8.5 6.5t-8.5 6.5zM563 756 q-4 -6 -9 -11.5t-3 -9.5q0 -8 14 -12q0 -2 5 3t5 9t-4 8.5t-8 12.5zM637 1184l-8 8q-8 -4 -13 -8q6 -6 7 -6q4 0 14 6zM459 1333q-4 2 -6 4t-4 2q-4 0 -5.5 -2t-5.5 -4q4 -10 8 -10t6.5 3t6.5 7zM786 1231l-14 10q-4 0 -6 -3t-6 -5q4 -2 5 -5t5 -3q2 -2 16 6z" />
<glyph unicode="Q" horiz-adv-x="1179" d="M1040 315q16 -16 10 -28.5t-14 -22.5q-20 -20 -27.5 -45.5t-25.5 -48.5q31 -45 60.5 -90t62.5 -92q-47 -33 -94 -63.5t-97 -63.5q-14 20 -27.5 38.5t-25.5 39.5q-14 20 -26.5 38.5t-26.5 36.5q-35 -12 -64 -20q-23 -4 -44 -14.5t-46 6.5h-8q-47 -23 -96 -16t-96 18 q-106 25 -193 106q-78 72 -125 176q-41 90 -61.5 208t-16.5 222q10 2 37 4.5t60.5 3.5t70.5 -1t68 -5v-43q4 -59 11 -115.5t28 -111.5q23 -61 60.5 -110.5t97.5 -77.5q6 -4 9 -9.5t7 -9.5q8 0 15 2t16 0q29 -4 58.5 -4t64.5 13q-29 41 -54.5 79.5t-54.5 81.5q47 31 94 63 t96 64q23 -29 42.5 -60.5t43.5 -60.5q14 20 20.5 41t10.5 43q47 213 0 428q-10 41 -25.5 79t-39.5 73q-20 33 -4 61q6 6 10 17q8 25 -17 26h-36q8 23 14 45.5t14 47.5q-12 0 -19 -6.5t-13.5 -14.5t-12.5 -14t-18 -4q4 -16 11 -27.5t5 -26.5q0 -10 11.5 -19t27.5 -9 q-4 -8 -5 -15.5t-5 -17.5q-8 10 -13.5 17.5t-11.5 11.5q-8 4 -16 5t-19 5q2 10 3 17.5t4 17.5q-29 8 -59 16t-62 19q-6 8 -1 16t11 12q-16 45 -12 89t0 87q41 6 78.5 0t72.5 -16q74 -23 133.5 -66t106.5 -104q47 -63 76.5 -135t46.5 -150q29 -141 25.5 -281.5t-38.5 -281.5 q-4 -20 -11 -42t-32 -32zM836 121q-2 4 -7 8q-68 -27 -100 -100q27 23 53.5 46t53.5 46zM426 82q-20 10 -27 -6q-2 -2 0 -5t4 -3q17 -9 23 14zM782 236q4 -8 4 -11q10 0 16.5 4t10.5 21l-17.5 -7t-13.5 -7z" />
<glyph unicode="R" horiz-adv-x="1103" d="M678 616q92 -154 183 -306t186 -308q-10 -2 -18.5 -2h-14.5h-205q-39 -2 -55 29q-78 129 -158 257t-158 257q-10 14 -20 27.5t-21 27.5q-6 8 -18 12q-12 2 -23.5 3t-27.5 3v-32q-10 -2 -18.5 -2t-20.5 -2v-156q-12 -4 -25.5 -6t-13.5 -21q0 -16 13 -15t24 -5v-377h-226 v436q29 4 57.5 1t55.5 -17q27 -12 43 14q20 33 49 49q16 8 16.5 21.5t-16.5 23.5q-35 18 -37 58q-6 51 -59 57q-35 6 -51 31q-14 -10 -25.5 -19.5t-34.5 -3.5q-2 39 -1 79t-1 83q10 2 17.5 3t13.5 1q61 0 122.5 1t121.5 -1q61 -2 121.5 0t121.5 4q68 4 99 37t41 90l8 40 t0 36q-6 25 -18.5 47.5t-26.5 44.5q-27 39 -80 39l-160 6h-352h-23q-2 10 -4 44t-2 73t1 75t3 54q8 0 15.5 1t15.5 1q111 0 221.5 1t223.5 -1q41 -2 80.5 -5t80.5 -9q129 -18 197 -140q37 -66 50 -137t9 -147q-4 -39 -10 -78t-22 -76q-31 -72 -82.5 -119t-124.5 -69 q-17 -7 -37 -13zM197 315q0 4 2 6.5t0 6.5t-4 6t-5 6q-6 6 -6 -2q0 -10 2 -16q2 -2 4.5 -2.5t6.5 -2.5q8 -2 15 -6t13 8q-10 10 -16 5t-12 -9zM109 754q-4 -10 -7.5 -15.5t-1.5 -9.5q4 -6 8.5 -9t8.5 -7q10 10 10 16q-2 6 -7 10.5t-11 14.5zM289 272q-6 4 -10.5 9.5 t-8.5 5.5q-4 -2 -8 -5t-8 -8q4 -4 7 -9t7 -5t8.5 4t12.5 8zM700 430q8 -33 25 -22q4 2 4 7t2 9q-6 2 -13.5 3t-17.5 3zM137 2q4 0 6 1t7 1v23q-4 -2 -11 -2h-4q0 -6 1 -11.5t1 -11.5zM872 825q-4 4 -5 7.5t-5 7.5q-2 0 -6 -1t-4 -3q0 -10 4 -13q2 -2 16 2zM272 369 q-4 0 -8 4q-2 -4 -4 -7.5t-2 -7.5t3 -5t5 -5q8 4 10 8q0 4 -2 6.5t-2 6.5z" />
<glyph unicode="S" horiz-adv-x="999" d="M53 559h223q4 -18 5.5 -35.5t1.5 -36.5q4 -29 11 -54t15 -52q10 -37 25 -66q27 -47 75 -69.5t101 -22.5t100 19.5t70 58.5q20 31 33 74q4 16 4 31.5t16 23.5q-10 14 -18 27.5t-17 25.5q-14 25 -34.5 40.5t-45.5 25.5q-35 14 -68.5 25.5t-68.5 23.5q-39 14 -76.5 27.5 t-74.5 29.5q-74 33 -123 83t-76 108.5t-34 121t-1 122.5q6 53 29 112q39 100 111.5 154.5t177.5 70.5q125 18 241 -18q127 -37 193 -152q35 -61 50 -128.5t17 -141.5h-227l-6 25q-6 18 -10 37.5t-13 40.5q-31 74 -110 92q-41 8 -81 5t-79 -22q-31 -14 -50.5 -37.5 t-23.5 -62.5q-4 -82 62 -115q35 -16 69.5 -30.5t69.5 -26.5q47 -18 93 -33.5t91 -34.5q119 -49 176.5 -140t67.5 -216q4 -59 -1 -118.5t-28 -117.5q-78 -219 -305 -249q-55 -10 -110.5 -9.5t-110.5 13.5q-195 39 -272 225q-25 57 -36 115.5t-18 117.5q-4 27 -5 54.5t-5 58.5 zM684 61q-6 -8 -11 -13t-5 -7q4 -8 18 -16q2 0 7 4t3 8q-2 6 -5 11t-7 13zM811 1110l-9 6t-7 2q-2 2 -5.5 -2t-3.5 -6q4 -6 11 -10q4 0 14 10zM897 289q-4 -6 -6 -9.5t-2 -7.5q6 -6 10 -6q2 -2 4 1t2 5q0 4 -2 7.5t-6 9.5z" />
<glyph unicode="T" horiz-adv-x="927" d="M582 0h-232q4 31 -1 60.5t13 58.5v10q-16 10 -14 23.5t2 27.5v928v51q-41 4 -80 2t-80 0h-159v246h864l2 -246h-315v-1161zM555 172q-10 8 -12 6q-2 0 -11 -8q4 -4 6.5 -5t6.5 -5q2 2 10 12zM397 428q-8 4 -10 4l-4 -8l-4 -8l6 -6zM496 238q10 10 10 12t-3 4t-5 4 q-2 -4 -4 -5t-5 -5q0 -2 2.5 -4t4.5 -6z" />
<glyph unicode="U" horiz-adv-x="1017" d="M74 1407h225q0 -4 1 -48t1 -114.5t1 -159t1 -179.5v-176v-150q0 -47 2 -92.5t10 -92.5q8 -53 39 -92t73 -59.5t92 -19.5t97 26q72 37 84 117q8 41 11.5 80.5t3.5 80.5q2 76 2 151v152v304v268l227 4v-723q0 -141 -2 -235q0 -47 -7 -93.5t-17 -93.5q-31 -129 -118 -200.5 t-218 -81.5q-49 -4 -97.5 -2t-95.5 10q-78 12 -136 53t-99 106q-35 53 -50.5 110.5t-19.5 119.5q-4 66 -7 131t-3 131v141v164v166v146.5v105.5v45zM428 111q25 -14 39 -2q2 2 2 7t-4 7q-21 15 -37 -12zM252 907q2 -16 6 -26q10 0 12 2q9 16 -18 24zM246 125q2 8 6 16 q0 6 -8 6q-2 -2 -5 -4t-3 -4q0 -4 10 -14z" />
<glyph unicode="V" horiz-adv-x="1120" d="M733 184q-6 10 -10 15.5t-8 11.5q-4 4 -5 10t-5 10q-6 10 -18.5 11.5t-18.5 -4.5q-16 -16 6 -37q4 -4 8 -5t8 -6l7 -7t12 -7q-31 -12 -59.5 -23.5t-57.5 -21.5q4 -4 6 -5t4 -3q10 -4 24.5 -8t10.5 -21q-2 -12 -9 -23.5t-18 -21.5q-14 -14 -13 -22.5t21 -24.5 q-47 -4 -89 -3t-89 1q-10 39 -21 77t-22 79q-10 39 -21 76.5t-18 78.5q-6 41 -21 78t-26 76q-12 41 -22 79t-21 79q-10 39 -21 77.5t-22 77.5q-10 41 -22.5 79t-22.5 77q-10 41 -21.5 81t-21.5 81l-43 153q-10 39 -21.5 78t-21.5 80h248q68 -252 134.5 -501t131.5 -503h6 q6 23 12.5 42.5t10.5 39.5q10 35 17 67t16 64q4 20 11 38t9 38t9.5 40t11.5 42q6 18 10 37.5t10 40.5l19 80q4 18 10 37.5t10 40.5q6 20 11 40.5t10 41.5q6 20 11 39.5t9 39.5q14 51 26.5 102.5t26.5 102.5q2 10 10 31h193l4 -8l4 -8q8 4 16.5 10t22.5 16q-2 -14 -2 -22.5 t-4 -16.5q-53 -199 -108.5 -394.5t-110.5 -393.5q-18 -66 -34.5 -131.5t-37.5 -130.5q-10 -35 -18.5 -70t-22.5 -74zM362 881q0 2 1.5 4t1.5 4q-8 -2 -13.5 3t-9.5 9t-10 6t-15 -4q-25 -20 -8 -47q14 6 27.5 12.5t25.5 12.5zM645 180q20 12 4 29q-6 10 -14 15t-21 -3 q4 -33 31 -41zM733 776q-16 -4 -28.5 -8t-12.5 -25q27 -4 33 0t8 33zM578 383q2 -29 6 -35t26 -10q3 33 -32 45zM647 324q-29 16 -41 -11q-2 -4 1 -9t5 -5q29 -6 35 25zM266 1294q18 16 21.5 22.5t1.5 29.5q-18 -12 -21.5 -18.5t-1.5 -33.5zM727 537q-4 2 -5 4t-5 2 q-2 0 -3 -2t-5 -2q2 -4 8 -11q2 1 10 9zM700 492h11v18q0 2 -11 2v-20zM174 1235q-2 2 -2 4t-2 4q-4 0 -6 2t-6 2q-2 -2 -3 -4t-3 -4q4 -2 6 -4t6 -2q2 0 4 1t6 1zM1004 1239q4 6 6 8t4 6q-2 2 -2 4q-2 2 -2 5q-4 -2 -7.5 -2t-5.5 -5q1 -4 7 -16zM561 84q-8 -12 -6 -14 q0 -6 10 -7q8 0 8 11q-2 2 -5 4t-7 6zM612 270q2 4 3 5t3 6q-4 2 -8 3t-8 3l-4 -4q4 -4 7 -6.5t7 -6.5zM668 2q-8 -2 -15.5 -2h-13.5v6q6 4 13.5 7t15.5 -11z" />
<glyph unicode="W" horiz-adv-x="1533" d="M49 1407h234q2 -8 4 -14.5t4 -14.5q29 -160 54.5 -318.5t53.5 -318.5q2 -16 4.5 -30.5t-12.5 -24.5q8 -10 14.5 -18.5t8.5 -18.5t-2 -20.5t-6 -20.5q4 0 7 -1l9 -3q4 -27 9 -54.5l11 -60.5q4 12 7.5 19.5t5.5 15.5q41 199 82 397.5t81 397.5q2 12 5.5 22.5t21.5 12.5 q6 2 8 9t-6 13q-6 4 -11 8.5t-1 14.5t12 10h17h221q12 0 22 -2q45 -231 89 -461.5t89 -462.5h9q8 43 15 85t15 87q8 4 16.5 7.5t20.5 7.5q-10 8 -16 13t-15 11q31 178 61 355.5t60 357.5h234l-264 -1407h-242q-14 41 -19.5 82t-15.5 82t-17 83t-18 83q-10 43 -18 85t-17 85 q-10 41 -17 83t-17 85q-10 41 -17.5 83t-17.5 83t-18.5 82.5t-20.5 82.5q-8 -18 -10 -32q-29 -145 -58.5 -288.5t-60.5 -287.5q-2 -12 -7 -23.5t-9 -23.5q-2 -6 1 -13t1 -16q-16 -78 -33 -156.5t-33 -158.5q-63 0 -123.5 -1t-124.5 15l25 86q-2 2 -3 2t-3 2q-8 -4 -15.5 -9 t-17.5 -13q-61 334 -123 662.5t-123 662.5zM676 1169q-33 0 -27 -32q29 1 27 32zM899 1128q-8 -10 -11 -17t7 -17q2 -2 6 -2t6 4q10 10 6 17t-14 15zM1280 672q-4 -8 -8 -13.5t-4 -9.5t4 -6t8 -6q6 6 10 16q0 4 -3 7.5t-7 11.5zM342 334q-4 4 -4 8q-10 2 -18.5 -1t-14.5 -22 q12 4 20.5 7.5t16.5 7.5zM455 446l-7.5 7.5t-7.5 3.5q-2 0 -12 -11q8 -8 14 -10q3 0 13 10zM565 418q-12 33 -35 10q8 -2 15.5 -4t19.5 -6zM1255 1139q-10 10 -14 12q-2 2 -6 -2t-4 -6q0 -4 3 -8.5t5 -8.5q8 9 16 13zM285 729q-12 8 -15 8q-6 -6 -8 -10q8 -8 12 -10 q3 0 11 12zM301 389q-25 8 -27 -20q10 8 16.5 12t10.5 8zM215 803q2 -2 4 -3t4 -3q4 4 6 7t7 7l-7 6l-7 -7zM590 629q-16 6 -19 6q-10 0 -10 -8t8 -9q1 1 21 11zM1286 782q-4 4 -6 7.5t-6 3.5t-10 -7q4 -10 10 -12zM256 881q12 6 14 8q2 4 2 8t4 10l-9 -6t-5 -4z" />
<glyph unicode="X" horiz-adv-x="1116" d="M182 260q4 10 8.5 21.5t8.5 21.5q53 109 108 214.5t111 215.5q-16 35 -33.5 69t-34.5 68q16 31 12 38t-34 7q-20 29 -31.5 60t-30.5 59q-16 31 -30.5 62.5t-30.5 62.5t-30.5 60.5t-31.5 60.5l-63 127h268q8 -16 16.5 -33.5t18.5 -36.5q10 -18 20.5 -35.5t12.5 -37.5 q2 -23 17.5 -35t19.5 -33q4 -20 14 -37.5t20 -36.5q10 -18 17.5 -36.5t17.5 -36.5t19.5 -37t19.5 -43q53 115 105.5 222t103.5 216h264q-10 -23 -19 -42t-20 -40l-86 -176t-88 -176q-6 -10 -16 -19.5t-21 -21.5q8 -16 1 -31.5t-15 -32.5q-16 -29 -30.5 -59.5t-30.5 -60.5 q-10 -25 2 -50q33 -70 86 -170q45 -86 111.5 -215t158.5 -309l-274 -4q-117 231 -177 352q-35 70 -59 121q-14 -29 -26.5 -53.5t-24.5 -46.5q-6 -12 -12.5 -23.5t-22.5 -15.5q-8 -2 -13 -11.5t7 -21.5q4 -4 -4 -18q-33 -66 -64.5 -132.5t-66.5 -132.5q-6 -18 -27 -18h-244 q-6 0 -10 4q2 2 2 5t2 7q29 55 57.5 111.5t57.5 112.5q4 6 7 11t7 11q-2 -10 -4 -18t8 -17q12 12 12 16.5t-16 16.5zM356 1047q14 4 15 4q14 23 33.5 38t41.5 27q8 4 14.5 11.5t4.5 19.5q-31 -10 -60 -35.5t-49 -64.5zM766 1323q4 -6 5 -12t5 -6q16 -4 30.5 -6.5t31.5 -4.5 q2 0 2 2t2 4t2 7q-10 8 -16.5 18t-22.5 6q-10 -2 -19.5 -3t-19.5 -5zM692 403q29 2 29 27q4 23 -21 23q-25 -2 -20 -29q2 -6 6 -11.5t6 -9.5zM778 1104q-2 -4 -3 -5t-3 -5q6 -4 6 -10.5v-12.5t2 -12t13 -8q4 8 12 20q8 6 10 14.5t-6 14.5q-6 4 -14.5 3t-16.5 1zM737 883 q-33 10 -43 -13q0 -4 2 -9t6 -5q29 -6 35 27zM805 90q-6 6 -10 11t-9 5q-6 -2 -18 -14q4 -4 8 -7t8 -5q4 0 9.5 3t11.5 7zM872 1403q-29 -6 -31.5 -10t9.5 -23q4 8 9 15.5t13 17.5zM641 737q-23 16 -31 2v-4q0 -2 2 -4q11 0 29 6z" />
<glyph unicode="Y" horiz-adv-x="1099" d="M666 72q-14 4 -23.5 5t-19.5 3q0 -4 -2 -6q10 -6 20 -11.5t21 -11.5v-51h-228q0 10 -1 16.5t-1 14.5v278v250q0 35 -14 64q-92 186 -181.5 369.5t-181.5 369.5q-4 10 -9 20.5t-9 20.5q4 2 7 4t5 2h248q10 -14 15 -22.5t5 -15.5t-3 -17.5t-11 -26.5q6 4 12.5 7t16.5 9 q53 -117 108.5 -235.5t112.5 -241.5q14 29 18 39q53 119 105.5 235.5t105.5 233.5q4 6 13 15q14 14 43 22l225 -2q-4 -10 -8 -18.5t-6 -12.5q-4 -6 -5 -10q-86 -193 -179 -376t-185 -371q-6 -12 -9 -26.5t-9 -27.5q-4 -12 -10.5 -23.5t-14.5 -25.5q23 -10 25 -28.5t2 -36.5 v-141.5t-2 -141.5q0 -12 -6.5 -25.5t-6.5 -25.5q2 -12 7.5 -23.5t9.5 -23.5zM635 682q29 6 29 29q0 20 -23 20q-12 -2 -16 -10t-2 -19q2 -6 6 -11t6 -9zM621 6q35 14 18 43q-26 -8 -18 -43zM199 1262q27 -10 30 22q-8 -6 -15 -11t-15 -11zM913 1329q-4 -6 -7 -9t-3 -7t2 -6 l4 -4q10 4 15 10q0 2 -3.5 6t-7.5 10zM471 1012q-8 12 -10 12q-4 2 -12 -2q2 -4 2 -7t4 -7zM756 1014q-8 -8 -6 -10q0 -4 8 -9l6 6q-4 9 -8 13z" />
<glyph unicode="Z" horiz-adv-x="974" d="M479 502q-6 -12 -12 -24.5t-12 -22.5q-33 -51 -64 -101.5t-65 -105.5q14 0 24 -1t21 -1h516q12 0 23.5 -1t23.5 -3v-209q-14 2 -25 -17q8 -2 13.5 -3t11.5 -3v-8q-10 -2 -21.5 -2h-21.5h-805h-43v211q-2 47 25 90q96 154 190 304.5t191 301.5q8 12 14 25.5t26 11.5 q2 0 3 2q0 2 2 4l4 8q-10 12 -4 20.5t10 16.5l80 129q4 8 8 15.5t12 21.5h-561v246h868q0 -29 -2 -56.5t2 -56.5q8 -59 -9 -111.5t-52 -101.5q-35 -47 -64.5 -96t-58.5 -98q-16 -27 -39 -27q-20 0 -35.5 -7t-25.5 -28q-4 -8 -10.5 -13t-12.5 -11q12 -12 22.5 -20.5 t20.5 -18.5q-37 -59 -71.5 -114.5t-69.5 -110.5q-6 -10 -13.5 -18.5t-13.5 -18.5q-4 6 -5 14t-13 4q-25 -6 -10 -33q8 4 14 8.5t14 8.5zM715 1372q-27 -6 -32 -14t1 -35q25 4 29 11t2 38zM342 563q6 8 12 13.5t4 9.5q-4 14 -18 18q-10 4 -15.5 -2t-2.5 -14q2 -6 8 -11.5 t12 -13.5zM186 27q16 -2 25.5 2t11.5 22q-29 3 -37 -24zM371 532q10 14 10 19l-4 4l-4 4q-10 -6 -13 -12q0 -4 3.5 -7.5zM84 76q-8 6 -16 10l-5 -4q-2 -2 -4 -2q2 -6 11 -14q2 0 6 3t8 7zM74 250q-4 4 -6 4l-13 -18q2 0 6 -5z" />
<glyph unicode="a" horiz-adv-x="1198" d="M360 582q2 -4 4.5 -8.5t4.5 -8.5q4 -29 11 -35t36 -2q2 0 14 4v-15t2 -17q-16 8 -29.5 14t-29.5 -4q-12 -10 -12.5 -22.5t4.5 -24.5q-16 -12 -33 -4t-37 -2q20 -29 43.5 -26t50.5 -1q-4 8 -6 11t-4 8q10 -4 18.5 -6.5t18.5 -6.5q-61 -221 -123 -436h-246 q109 354 214.5 703.5t211.5 703.5h240q111 -354 218 -702.5t218 -704.5q-66 -4 -128.5 -2t-125.5 0h-252h-262q14 59 29.5 115.5t29.5 113.5h391q-59 205 -118.5 406t-118.5 405h-6q-35 -119 -68 -235.5t-67 -235.5q-14 -4 -26.5 -8t-27.5 -8q-10 10 -19 19.5t7 33.5 q-4 -2 -6 -2t-6 -2q-4 -4 -7 -9t-8 -11q-4 0 -7 1t-7 -1q-14 -4 -26.5 -15.5t-30.5 -7.5q-10 2 -12.5 -11.5t8.5 -17.5q16 -6 16 -20q0 -10 1 -17.5t1 -17.5q45 0 47 33q2 16 -8 25.5t-43 15.5q10 2 29 2q34 0 32 33zM668 1239q-10 10 -13 10q-2 2 -5 -1t-3 -7q-2 0 0 -3 t4 -5q4 0 7.5 2t9.5 4z" />
<glyph unicode="b" horiz-adv-x="993" d="M160 -2q-8 37 -43 31q-8 -2 -16.5 2t-16.5 8q-16 -10 -9 -19.5t9 -19.5h-27v242q18 4 35 4t33 -17q35 23 70.5 20t70.5 -7q8 0 14.5 -2t16.5 2t19.5 4h19.5q53 2 107.5 1t109.5 3q121 4 143 125q4 31 3 61.5t-11 59.5q-29 94 -119 102q-31 4 -61.5 6t-61.5 2 q-86 2 -172 1t-172 -1h-45v244q10 2 31 2q66 0 128.5 1t127.5 -1q41 -2 81 1t81 1q29 -2 54.5 6t49.5 21q8 4 12.5 12t10.5 16q29 43 29 88t-17 93q-23 57 -82 67q-41 6 -78 6h-383h-45q-4 61 -1 122t1 124q16 0 30.5 1t31.5 -1q10 0 22 -12q25 -20 43 0q8 10 15.5 11 t17.5 1q90 -2 178 -2t178 -4q240 -12 299 -248q16 -72 11.5 -143.5t-37.5 -139.5q-35 -74 -105 -122q135 -63 177 -207q-20 -25 -44 -44.5t-34 -49.5q23 14 39 35.5t47 25.5q10 -35 12 -67.5t-2 -67.5q-6 -104 -51 -195q-39 -80 -101.5 -126t-154.5 -50q-117 -4 -232.5 -4 t-236.5 -2zM360 1362q-16 0 -28.5 -11.5t-12.5 -25.5q0 -18 15.5 -35.5t32.5 -17.5q16 2 26 12t10 25q0 18 -14.5 35.5t-28.5 17.5zM152 1241q-4 16 -6.5 29.5t-6.5 23.5q-2 6 -10 10.5t-14 2.5q-4 -2 -11.5 -8.5t-7.5 -10.5q4 -12 8.5 -23.5t12.5 -19.5q4 -4 14.5 -3 t20.5 -1zM887 547q-25 14 -33 -8q-2 -4 0 -9.5t6 -7.5q18 -6 29 19v2q-2 2 -2 4zM154 1360q-4 -6 -9.5 -9t-5.5 -8q0 -4 4 -8t9 -8q12 8 14 14q0 3 -12 19zM162 35q20 8 6 26q-2 2 -7 2t-7 -2q-12 -18 8 -26zM582 1235q4 6 8 10t6 8q2 0 -2 5.5t-8 5.5q-4 -2 -8.5 -5.5 t-8.5 -7.5q9 -8 13 -16zM659 836l-7 -10.5t-7 -8.5l7 -7t7 -3q12 4 13 12q2 4 -3.5 7.5t-9.5 9.5zM737 381q16 2 20.5 5t10.5 20zM770 1288q-4 4 -8 6t-8 6l-6 -10q0 -6 8 -10q2 0 14 8zM154 199q-4 -4 -7.5 -8.5t-3.5 -6.5q4 -4 7.5 -5t7.5 -5q2 4 4 6t2 6q0 2 -3 5.5 t-7 7.5z" />
<glyph unicode="c" horiz-adv-x="1038" d="M991 842h-221q-6 39 -12 75.5t-15 73.5q-6 33 -18 60q-18 49 -51 78.5t-72 41t-81 7.5t-77 -23q-8 -4 -16 -9t-16 -9q-6 8 -11.5 15t-13.5 17q-12 -16 -6 -27.5t16 -21.5q-16 -16 -31.5 -29.5t-31.5 -29.5q-12 -16 -12 -29v-17t-15 -9q2 -4 5 -9.5t-1 -7.5 q-10 -12 -13 -27.5t-3 -31t-1 -29.5t-9 -29q-10 -4 -25.5 -4t-19.5 -22q12 -12 22 -4t25 6q-8 -68 -13 -137q-2 -16 1.5 -30.5t3.5 -31.5q4 -53 9 -108.5t21 -108.5q10 -37 27.5 -69.5t44.5 -61.5q33 -39 75 -57.5t84 -16.5t83 22.5t71 61.5q59 74 72 176q4 16 5 34t3 38 h221q4 -49 1 -95t-13 -91q-16 -84 -53 -156t-99 -131q-70 -66 -152.5 -90.5t-176.5 -18.5q-106 10 -185 59.5t-139 133.5q-53 74 -81.5 157t-41.5 173q-6 43 -8 87t-6 87q0 10 3 21.5t7 21.5q-2 10 -6 18t-2 19q2 16 0 33.5t12 31.5q-10 14 -7 28.5t5 31.5q4 14 7 26.5 t8 26.5q2 10 0 18t2 19q16 86 51 164.5t94 146.5q47 55 105.5 90t121 50.5t127 13.5t125.5 -23q78 -27 136.5 -77t93.5 -128q41 -86 55 -176t12 -188zM786 492q47 -27 75 -33t48 4q-29 23 -59.5 28t-63.5 1zM803 1303q-10 -10 -17.5 -18.5t-1.5 -22.5q12 -23 37 -13 q6 2 12.5 8.5t6.5 12.5q2 16 -11.5 21.5t-25.5 11.5zM252 987q-8 -10 -13.5 -14t-7.5 -10q-2 -10 2.5 -18.5t16.5 -10.5q4 0 10 7t6 11q2 8 -4 16.5t-10 18.5zM246 514q-8 -10 -12.5 -14t-8.5 -8q6 -4 12.5 -9.5t12.5 -9.5q2 -2 7 4t5 10q-2 4 -16 27zM180 817q16 -4 26.5 0 t16.5 21q-8 4 -15 9t-18 11q-4 -12 -5 -21.5t-5 -19.5zM88 637q23 4 27 8t10 23q-16 2 -23.5 -6.5t-13.5 -24.5zM670 1245q-4 4 -8.5 9.5t-6.5 2.5q-10 -4 -14 -12q0 -4 4 -8l8 -8zM324 1217q2 16 -4.5 22t-28.5 2q10 -6 17.5 -12t15.5 -12zM854 950q-8 4 -13 8.5t-10 4.5 q-4 0 -8 -3.5t-2 -7.5q0 -4 3 -8t7 -4t9.5 3t13.5 7zM63 862q16 -8 21 -8q2 0 3 3t5 7q-8 8 -14 10q1 0 -15 -12zM244 717q-6 4 -9.5 7t-7.5 3t-6 -4l-4 -8q0 -8 8 -8q5 0 19 10z" />
<glyph unicode="d" horiz-adv-x="1005" d="M59 0v244q10 0 17.5 1t17.5 1h209q10 0 17.5 -3t17.5 -5q10 -4 14 -2q29 6 37 5t27 -16q10 16 23.5 19.5t29.5 3.5q27 0 55 6q47 10 83 37.5t52 75.5q14 35 21.5 72.5t17.5 76.5q4 10 4 23.5t3 23.5q25 0 34 2q2 0 3 6.5t-1 6.5l-16 8t-18 8q0 51 1 105.5t-1 109.5 q-2 45 -8.5 89t-20.5 85q-10 31 -21 51q-55 113 -180 121q-35 2 -70.5 3t-72.5 3q-57 2 -113.5 0t-116.5 0h-41q-4 10 -5 44t-2 73t0 75t5 54h60q4 -6 8 -18q2 0 3 1t3 1h2q8 18 31 18q92 -2 183 -2t184 -4q84 -4 149.5 -41t116.5 -102q55 -74 86 -157t43 -175 q16 -115 17 -228.5t-17 -228.5q-18 -137 -82 -252q-41 2 -45 -11t12 -38q-10 -29 -33.5 -40t-46.5 -24q4 -4 6 -7t7 -9q-100 -82 -224 -88q-61 -2 -123.5 -2h-124.5h-178h-39zM375 162q0 -16 -1 -29.5t3 -26.5q8 -16 22 -20q6 -2 15.5 3t9.5 9q8 18 -6 33q-6 10 -17.5 15.5 t-25.5 15.5zM752 199q10 -35 36 -43q10 23 2.5 32t-38.5 11zM721 358q-4 -25 1 -32t30 -13q0 37 -31 45zM393 51q-6 4 -10 10.5t-8 4.5t-7 -7.5t-8 -9.5q10 -10 15 -10q4 0 8 4t10 8zM539 86q4 10 8 15t4 10q0 4 -5 9t-9 3q-14 -4 -15 -14q0 -4 5.5 -9.5t11.5 -13.5z M786 967q-8 4 -12 8t-8 4t-14 -10q4 -4 7 -8.5t7 -6.5q4 0 8 4.5t12 8.5zM766 1190q0 27 -23 24q-2 0 -4 -4t-2 -8q6 -22 29 -12zM285 123q16 20 18 24q0 2 -4 6.5t-8 2.5q-12 -4 -15 -13q0 -4 2.5 -8t6.5 -12zM866 512l-6 6q-4 2 -5 0t-5 -2q4 -8 8 -10q0 -2 8 6zM305 1227 l-12 -8q2 -2 3 -5.5t3 -5.5h2q2 0 4 2q2 0 4 2q0 3 -4 15zM817 762q-14 6 -16 6q-2 -2 -6 -10q6 -6 8 -4q2 0 14 8zM842 469h10q0 4 -1 9t-1 11q-2 -2 -4 -2h-4q-2 -4 -1 -9t1 -9zM760 256q-8 8 -12 8t-9 -8q4 -2 5 -4t6 -2q4 0 10 6z" />
<glyph unicode="e" horiz-adv-x="815" d="M778 1405v-242h-733v240zM43 715v94h735v-246h-241h-248q-59 2 -121 0t-123 2q-2 12 -2 23.5t-2 23.5q27 29 47 60q-6 2 -6 11t-3 18.5t-10.5 14.5t-25.5 -1zM580 627q-23 -2 -27 -5.5t-8 -19.5q27 -4 35 25zM422 639q10 10 10 12q-2 4 -10 13q-2 0 -4 -2l-4 -5 q2 -6 8 -18zM379 723q2 4 4 7t4 7q-6 6 -8 4q-4 -2 -5 -5t-5 -7l2 -2q4 -4 8 -4zM438 -4q-20 4 -35.5 7t-29.5 9q-29 12 -57.5 13.5t-57.5 -25.5q-4 6 -8 11t-8 9q-16 23 -29.5 26t-36.5 -11q-14 -8 -26.5 -12.5t-28.5 0.5q-6 0 -19 -9q-14 -10 -26.5 -13t-28.5 1 q-4 16 -5 38.5t0 45.5t2 43.5t5 30.5q10 -4 19.5 -6t19.5 -7q49 -18 82 21q12 16 20 25q6 4 23 12l-4 8h-44.5t-43.5 -2q-10 -2 -17.5 -6t-17.5 -8q-8 -4 -15.5 -7.5t-17.5 -5.5q-2 0 -16 15q35 8 51 37q4 6 16.5 8t22.5 2h430h57q8 0 16.5 1t10.5 -16q2 -2 6 -2h8 q10 16 25.5 16.5t30.5 0.5h67v-246h-313q6 23 11 41t13 45q-10 -6 -17 -9t-11 -7q-8 -6 -14.5 -13.5t-14.5 -15.5q-10 -8 -11 -14.5t15 -10.5v-6q0 -8 2 -14zM281 66h34q-20 20 -34 0z" />
<glyph unicode="f" horiz-adv-x="765" d="M246 592v-592h-230v838h734v-244q-31 -4 -63 -3t-62 1h-125h-127h-127zM115 500q-59 20 -88 -35q16 -14 33.5 -11t33.5 11q10 4 18.5 11.5t2.5 23.5zM367 647q12 -10 23 -11t22 13q-25 25 -45 -2zM522 817q4 -23 23 -14q2 0 4 4t0 8q-9 16 -27 2zM248 743q-16 -10 -6 -22 q0 -4 5 -4t5 2q12 12 -4 24zM16 1163v244h734v-244h-734zM690 1219q-6 12 -10 14q-2 2 -6 1t-4 -3q0 -10 4 -12h16z" />
<glyph unicode="g" horiz-adv-x="1134" d="M436 510v248h641q2 -12 2 -23.5v-21.5q-6 -10 -19 -10.5t-9 -14.5q2 -6 10 -11t18 -13v-33q0 -82 1 -164t-1 -166q0 -14 2 -29.5t-12 -27.5q0 -2 2 -7.5t4 -9.5q2 -6 6 -22q-10 0 -21 1t-18 -3q-6 -4 -8 -13.5t-6 -19.5l-7 -17.5t-3 -11.5q-23 -4 -39 -6t-35 -6 q-4 8 -16 21q-6 -8 -12.5 -14.5t-10.5 -12.5q6 -12 8 -25.5t-10 -29.5q-6 6 -12 11t-10 9q-16 -10 -10 -22.5t3 -26.5q-10 -4 -38 -19q-6 8 -11.5 16.5t-9.5 14.5t-8 13.5t-8 11.5q-8 2 -16.5 0t-16.5 -4q2 -8 2 -16.5t4 -14.5q6 -8 15.5 -12t19.5 -13q-6 -4 -12 -10 q-143 -45 -274.5 -25.5t-248.5 117.5q-47 41 -81.5 91.5t-57.5 107.5q-14 35 -25.5 73t-23.5 72q-4 14 -1 24.5t28 18.5q-39 8 -41 33q-23 145 -13.5 286.5t64.5 278.5q16 39 35.5 76t44.5 72q82 117 194.5 164t253.5 35q53 -2 107 -19q164 -43 239 -199q51 -109 64 -233 q4 -35 5 -68.5t3 -68.5h-229q-4 29 -5.5 55.5t-7.5 52.5q-12 53 -34 113q-25 57 -70 84t-105 31q-166 12 -251 -134q-16 -29 -26.5 -60.5t-25.5 -59.5q-4 -10 -10 -20.5l-14 -24.5q10 -14 9 -34t-3 -42q-6 -84 -1 -166t28 -164q18 -66 53 -120t92 -95q6 -4 13 -5t16 -5 q72 -29 138 -17.5t130 50.5q31 18 47 29.5t24.5 25.5t9.5 33.5t1 56.5v84h-410zM1001 420q2 -10 1 -16.5t2 -10.5q4 -4 7 -11t7 -7q12 0 20 12q18 35 11 72q-4 14 -15 14q-16 0 -20 -12q-4 -10 -6.5 -21.5t-6.5 -19.5zM979 262q-25 -35 -6 -67q33 28 6 67zM793 1307 q-35 6 -43 -19q-4 -8 6 -14q23 -8 37 33zM748 16q10 25 2.5 34t-33.5 7q0 -27 31 -41zM680 219q0 -29 5 -35t28 -8q-2 16 -8.5 27.5t-24.5 15.5zM303 297q-6 4 -10 9t-8 5q-6 0 -19 -8q4 -4 7 -9t8 -7q4 -2 9 2t13 8zM940 1063q8 -10 13 -14.5t16 4.5q8 4 2 14 q-11 16 -31 -4zM895 117q-12 4 -20.5 5t-18.5 5q4 -25 8 -25.5t31 15.5zM117 438q2 -27 28 -14q-1 26 -28 14zM991 152q4 6 7 9t6 7q0 4 -2.5 6t-4.5 6q-4 -2 -8 -3t-4 -5q-2 -2 6 -20zM442 172l-6 -12q6 -4 13.5 -6t13.5 -7q4 8 4 11q-17 8 -25 14zM324 104q-12 8 -15 9 q-4 -2 -5 -5.5t-3 -5.5q4 -8 10 -8q4 2 6.5 4t6.5 6zM201 778q2 6 4 9.5t2 7.5q-2 2 -10 6q-6 -6 -7 -8q0 -4 3.5 -6.5t7.5 -8.5z" />
<glyph unicode="h" horiz-adv-x="1028" d="M78 1407h227q2 -45 1 -89t-1 -91v-180v-185h418v545h229v-1036q-23 -6 -48 -10.5t-36 -34.5q10 -4 16.5 -7.5t14.5 -3.5t19.5 3.5t33.5 7.5v-326h-229q0 31 -1 60.5t1 60.5q2 29 1 59.5t-1 61.5v118v125v121h-416v-606h-225q20 20 37.5 36.5t38.5 37.5h-80v1333zM125 426 q12 6 23.5 13t15.5 22q0 4 -1 9t-5 9q-2 2 -8.5 1t-10.5 -3q-10 -10 -15 -22.5t1 -28.5zM102 825q4 10 8.5 15.5t6.5 9.5q0 4 -5.5 8t-9.5 4q-4 -2 -8 -6t-6 -8q0 -4 5 -9.5t9 -13.5zM737 985q25 -4 28 0t-1 27zM219 823q-4 4 -8 4q-2 -6 -10 -18q4 0 8 -4q8 12 10 18z M332 647q-2 2 -3 2t-3 2q-2 0 -4 2q-4 -4 -5.5 -7l-3.5 -7q2 0 4 -2t5 0q4 2 5 4t5 6z" />
<glyph unicode="i" horiz-adv-x="380" d="M80 1407h219l2 -1407h-221v1407zM125 506q20 -16 37 -2q6 6 0 12q-21 19 -37 -10zM240 68q4 -10 8 -27q4 2 7 2t5 4q7 19 -20 21z" />
<glyph unicode="j" horiz-adv-x="886" d="M709 127q2 -10 4 -18.5t-6 -18.5q-80 -80 -175.5 -102.5t-201.5 0.5q-96 16 -148.5 78.5t-79.5 152.5q-2 8 1 16.5t6 18.5q-4 4 -9.5 8t-7.5 10q-6 27 -9 54.5t-5 51t-3 40t-1 18.5v123h219q0 -6 1 -24.5t3 -40l4 -43t2 -33.5l4 -40l4 -40q0 -10 2 -18.5t6 -18.5 q23 -66 89 -72q14 0 28.5 -1t28.5 -1q82 6 100 82q6 33 10.5 65t6.5 64q2 68 1 134.5t-1 134.5v655v45h217q2 -4 4 -10t4 -13q2 -16 4 -30.5t2 -30.5v-813q0 -61 -3 -124.5t-19 -125.5q-6 -25 -16.5 -50.5t-20.5 -49.5q-10 -20 -16 -23.5t-29 -9.5zM780 1241q-6 -8 -12 -13 t-4 -9q2 -6 7 -13.5t9 -7.5q10 -2 15.5 4t1.5 15q0 6 -5.5 11t-11.5 13zM166 219q10 -10 17 -15t18 5q4 4 5 10t-3 8q-19 19 -37 -8zM727 1341q-18 -18 -18 -22t6 -9t10 -7q2 0 8 4t6 8t-4 10t-8 16zM621 319q-8 -8 -13.5 -15t4.5 -17q2 -4 9.5 -3t9.5 3q8 10 4 17t-14 15z M272 92q-4 -4 -9 -7t-5 -7q-2 -4 1 -8t7 -4q10 0 15 8zM647 1100l-12 8q-4 0 -7 -3t-7 -5q4 -4 5 -7t5 -3q2 0 16 10zM662 1280q-4 2 -7.5 4t-5.5 2q-4 -2 -5 -4t-5 -4q4 -2 5 -5t5 -3t6.5 3t6.5 7z" />
<glyph unicode="k" horiz-adv-x="1077" d="M57 1313q8 4 9 4q29 0 34.5 7t-0.5 34q-2 10 -2 18t11 17q8 -27 21 -48.5t42 -31.5q8 16 15.5 34.5t17.5 34.5q4 4 9 8.5t9 8.5q4 -6 8.5 -12.5t6.5 -12.5t-2.5 -12t-4.5 -12q-2 -6 -2 -13.5t4 -11.5t11.5 -4t13.5 2q4 2 9 4t12 6q6 -18 6 -21t-11 -5q-4 -2 -7 -3t-7 -4 q8 -8 14 -12l13 -4q0 -20 -1 -38.5t1 -39.5q4 -25 -6.5 -49t-6.5 -47t8.5 -47.5t4.5 -46.5v-164v-37q2 0 3 -1t5 -1q31 37 59.5 76t59.5 78q29 37 58.5 75.5t57.5 77.5q29 39 60 78t61 80q47 -53 103 -8q2 -16 2 -28.5t4 -29.5q27 16 50.5 29.5t47.5 28.5q-23 39 4 78 q18 31 -18 32h-31q2 29 35 29h168l4 -4v-4q0 -2 -2 -4q-4 -8 -8 -13q-98 -131 -195.5 -261t-196.5 -263v-2q0 -2 -1 -2t-1 -2q61 -131 123 -262t123 -264q-20 -23 -38.5 -42.5t-37.5 -39.5q2 -2 3.5 -4t3.5 -4q12 6 20 15t17.5 19.5t19.5 17.5t27 7q12 -29 32 -72 q16 -37 42 -92t61 -127l-262 -4q-74 160 -128.5 279.5t-91.5 201.5q-43 94 -73 162q-12 -12 -25 -29q-31 -41 -60.5 -79.5t-62.5 -79.5q-25 -35 -22 -74v-338v-45q-59 0 -114.5 -1t-113.5 1v1053q10 2 22.5 6t12.5 20t-11 19.5t-26 1.5v102q10 2 23 6q29 -43 47 -28 q14 10 14 28q-2 27 -49 29q-10 18 -17.5 37t-17.5 39zM106 1114q10 10 18.5 16.5t12.5 14.5q10 10 4 20q-4 4 -10 5t-10 -3q-10 -6 -18.5 -14t-18.5 -18q8 -6 13 -11.5t9 -9.5zM690 172q20 4 23.5 7t5.5 20q-10 -8 -16.5 -14.5zM535 1059q-4 -6 -7.5 -10.5t-3.5 -8.5 q-2 -2 3 -6t10 -2q4 2 6 5t6 7zM131 1243q0 2 4 10q-6 6 -13 8.5t-24 -4.5l17.5 -7t15.5 -7zM252 39q-8 4 -11 6t-8 2q-8 -4 -8 -14q-2 0 2 -3t9 -3q4 2 7 5t9 7zM106 811q-4 -8 -4 -10q0 -8 7 -8q6 0 6 6q-1 2 -9 12zM776 1262q-14 10 -27.5 22t-29.5 25l8 4q2 2 6 4 q12 -12 28.5 -15.5t35.5 -7.5q4 10 7 22.5t7 26.5q-16 4 -28.5 6.5t-26.5 6.5q4 8 8 14t2 12q0 4 -6 9.5t-15 13.5h46q-4 -47 36 -53q2 -16 2 -32.5t2 -33.5z" />
<glyph unicode="l" horiz-adv-x="774" d="M2 1395h227q4 -16 4 -25v-385q0 -4 1.5 -11t-3.5 -9q-25 -14 -18.5 -26.5t18.5 -27.5q6 -8 -1 -22.5t-21 -22.5q-4 -4 -10 -5t-11 -3q-23 -8 -28.5 -14t-1.5 -29q2 -29 -13 -43q-18 -18 -12 -41q6 -16 7 -35.5t22 -29.5q6 -4 11 -9.5t11 -11.5h49v-399h541v-246h-770 q0 10 -1 19.5t-1 19.5q0 117 1 233.5t1 233.5q0 14 -1 26.5t-1 24.5q0 4 3 10t7 13q0 2 -4 6t-6 8q-2 6 -1 12t1 10v744v35zM457 172q-4 25 -31 25q-25 -4 -20 -27q4 -25 26 -20q25 4 25 22zM16 612q18 -4 23.5 -2t17.5 19q-8 4 -14 9t-16 11q-4 -12 -6.5 -20.5t-4.5 -16.5z M106 279q-10 6 -16 11t-10 5q-4 2 -9 -3t-10 -9q4 -4 9.5 -10.5t9.5 -8.5t10 3.5t16 11.5zM115 657q-23 4 -27 1t-12 -23q23 -4 27 -1t12 23zM152 582q-27 18 -31 -7q0 -2 2 -4l4 -4q6 4 12.5 7.5t12.5 7.5zM135 496q-6 4 -10 7t-8 1q-2 0 -13 -10l7.5 -7.5t7.5 -3.5t7 4.5 t9 8.5zM270 223q-6 4 -9 8.5t-7 4.5q-2 2 -6 -1.5t-4 -5.5q4 -12 8 -14t8 1t10 7zM213 1341q-4 4 -8 7.5t-8 5.5l-4 -4q-2 -2 -3 -4q0 -2 -2 -3q2 -10 13 -12q2 0 4 2zM59 522q-8 -12 -8 -16t4 -5t8 -3q2 4 4.5 7t2.5 7q1 2 -11 10zM61 903l-4 -8q4 -2 9.5 -4t9.5 -4l4 4z M164 1016l-6 12q-2 -2 -5 -3t-3 -3q-2 -2 4 -12q4 2 5 3t5 3z" />
<glyph unicode="m" horiz-adv-x="1206" d="M287 1001v-1001h-211v1407h336q47 -227 93 -452.5t93 -454.5q23 74 38 148.5t32 150.5q16 76 30.5 150.5t30.5 152.5q16 76 31.5 151.5t32.5 153.5h335q2 -10 2 -19.5v-19.5v-1108q0 -14 -1 -27.5t-23 -21.5q23 -16 25 -33.5t-1 -38.5v-137h-57q-6 4 -4 18.5t-18 12.5 q-18 0 -21.5 -11.5t-7.5 -21.5h-107v997h-8q-49 -250 -97 -497.5t-97 -499.5h-221l-197 1001h-8zM571 225q-23 27 -59.5 35t-71.5 -8q37 -4 66.5 -18.5t64.5 -8.5zM410 1323q-14 16 -17 18q-20 6 -24 -14q-2 -4 1 -10t5 -4q8 2 16.5 4t18.5 6zM479 731q4 -18 10.5 -22 t16.5 0q2 2 2 7t2 9q-8 2 -14.5 3t-16.5 3zM991 332q0 25 -22 16q-2 0 -4 -5t0 -7q10 -20 26 -4zM209 651q-18 -12 -8 -24q6 -6 10 -2q14 10 -2 26zM549 12q8 16 8 19q-4 8 -12 12q-2 0 -7.5 -4t-2.5 -6q2 -5 14 -21zM870 1253q14 20 15 23q-4 8 -13 8q-8 0 -12 -10 q0 -4 3 -8.5t7 -12.5z" />
<glyph unicode="n" horiz-adv-x="1021" d="M588 279q-12 16 -17 24q-49 104 -98 204.5t-98 205.5q-18 39 -37 77.5t-37 77.5h-10v-168v-170v-168q-10 -4 -17.5 -9t-17.5 -9q8 -6 15.5 -12t19.5 -17v-194q-8 2 -14.5 2t-12.5 2q-10 -27 10 -39q29 -16 15 -43q-2 -4 -2 -10v-14.5t4 -18.5h-213v1403l221 4 q106 -225 185 -391t132 -279q61 -131 107 -223q2 0 4 1t4 1v891h213v-1014q-29 -8 -35 -18t-8 -41q6 4 11.5 5t9.5 5q4 2 22 16v-360h-129q0 2 -1 3t-1 3q0 23 2 33q-10 0 -20.5 2t-20.5 -2q-16 -6 -29.5 -14.5t-29.5 -18.5q-16 29 -29.5 59.5t-30.5 59.5q4 6 9.5 11t9.5 14 q-10 2 -16.5 3t-16.5 3q-12 29 -25.5 60.5t-27.5 64.5q6 0 13 -1t11 3q16 10 21.5 43.5t-4.5 48.5q-14 18 -27 0q-12 -18 -14 -39q-2 -14 -1 -27.5t1 -29.5zM748 436q14 -2 23 4t15.5 14.5t12.5 16.5t14 10q-4 10 -5 16.5t-5 12.5t-9.5 14t-9.5 8q-6 0 -14 -5t-12 -9 q-28 -37 -10 -82zM739 274q31 23 21 39q-6 6 -17 2q-18 -10 -4 -41zM901 756q-18 14 -20 14q-14 -4 -15 -14q0 -4 5.5 -10.5t7.5 -6.5q4 2 9 7.5t13 9.5zM670 598q-8 4 -13.5 8t-9.5 4t-8 -6t-4 -10q2 -4 7 -8t9 -4t8.5 5t10.5 11zM778 334q4 10 8.5 16t6.5 10q0 4 -4.5 6.5 t-8.5 6.5q-4 -4 -7 -9.5t-5 -9.5q0 -2 10 -20z" />
<glyph unicode="o" horiz-adv-x="1171" d="M72 643q-4 -2 -7.5 -2t-9.5 -2v70h232q4 -39 5 -76t9 -72q12 -76 41 -153q10 -33 30.5 -59.5t43.5 -51.5q41 -41 89 -55.5t101 -18.5q16 -2 33.5 7.5t36.5 15.5q18 2 43 6q4 4 6 13t8 14q92 82 119 206q53 231 -2 457q-23 90 -82 156q-61 70 -162 80q-8 2 -26 2v252 q29 4 55.5 -0.5t52.5 -10.5q94 -18 166 -68t125 -128q45 -61 71.5 -131t41.5 -146q27 -143 23.5 -284.5t-42.5 -282.5q-35 -133 -123 -238q-76 -92 -174 -132t-215 -34q-141 4 -241.5 70t-167.5 189q-27 47 -44.5 97t-25.5 103q-4 20 -8 39t-8 39q-2 16 -3.5 31.5t-5.5 32.5 q-2 16 -1.5 33.5t16.5 31.5zM918 414q20 -16 36 -2q2 0 2 5t-2 7q-24 15 -36 -10zM227 440q-18 4 -22 2t-10 -20q16 2 20 4t12 14zM209 350q10 6 20.5 11.5t20.5 11.5q-35 10 -41 -23zM238 174q4 2 5 3t5 3q6 6 4 10t-10 13q-4 -4 -7.5 -6t-3.5 -7q0 -4 2.5 -8t4.5 -8z M367 164q-12 29 -27 16q-2 -2 -2 -8q4 -2 11.5 -3t17.5 -5z" />
<glyph unicode="p" horiz-adv-x="899" d="M825 1212q-20 -4 -21 -14t5 -22q6 -8 13 -13.5t24 0.5q6 -29 11 -55.5t9 -54.5q4 -59 3 -103.5t-17 -103.5q-16 -63 -46 -117.5t-83 -97.5q-47 -41 -101.5 -53.5t-113.5 -16.5q-25 0 -65 -1t-77.5 -1h-68.5h-37v-559h-227q-2 8 -3 14t-1 15v82q-2 23 2 44t37 35 q-25 6 -37 11v606h49h99.5t115.5 1t100 1q27 0 52.5 2t52.5 6q66 6 100 64q8 14 17.5 24t31.5 13q-16 14 -17 13t-1 15q-2 27 -3 54.5t-10 52.5q-33 98 -137 102q-78 4 -156.5 4t-156.5 2h-137v246q4 0 8 1t8 1q125 -2 250 -3t250 -3q98 0 165.5 -49.5t112.5 -141.5z M426 590v10q-10 2 -18.5 4t-18.5 0t-13 -9t1 -17q6 -16 24 -5q6 4 12.5 8.5t12.5 8.5zM700 1141q4 -12 5.5 -22.5t5.5 -16.5q4 -4 11 -4t11 -2q2 6 4 13t-2 9q-6 6 -15.5 11.5t-19.5 11.5zM528 645q4 12 8.5 19.5t6.5 15.5q2 4 -5.5 8t-9.5 4q-16 -12 -18 -20q0 -4 5 -10.5 t13 -16.5zM782 1034q-18 -23 -18 -26q0 -14 14 -19q10 -4 15.5 2t3.5 17q0 4 -4.5 10t-10.5 16zM145 125q16 -12 22.5 -14t12.5 8q2 4 2 10t-4 8q-23 15 -33 -12zM354 1346l-7 -10.5t-3 -8.5q0 -2 5 -6t7 -2q4 2 7.5 6t7.5 8q-4 4 -8.5 6.5t-8.5 6.5zM563 756 q-4 -6 -9 -11.5t-3 -9.5q0 -8 14 -12q0 -2 5 3t5 9t-4 8.5t-8 12.5zM637 1184l-8 8q-8 -4 -13 -8q6 -6 7 -6q4 0 14 6zM459 1333q-4 2 -6 4t-4 2q-4 0 -5.5 -2t-5.5 -4q4 -10 8 -10t6.5 3t6.5 7zM786 1231l-14 10q-4 0 -6 -3t-6 -5q4 -2 5 -5t5 -3q2 -2 16 6z" />
<glyph unicode="q" horiz-adv-x="1179" d="M1040 315q16 -16 10 -28.5t-14 -22.5q-20 -20 -27.5 -45.5t-25.5 -48.5q31 -45 60.5 -90t62.5 -92q-47 -33 -94 -63.5t-97 -63.5q-14 20 -27.5 38.5t-25.5 39.5q-14 20 -26.5 38.5t-26.5 36.5q-35 -12 -64 -20q-23 -4 -44 -14.5t-46 6.5h-8q-47 -23 -96 -16t-96 18 q-106 25 -193 106q-78 72 -125 176q-41 90 -61.5 208t-16.5 222q10 2 37 4.5t60.5 3.5t70.5 -1t68 -5v-43q4 -59 11 -115.5t28 -111.5q23 -61 60.5 -110.5t97.5 -77.5q6 -4 9 -9.5t7 -9.5q8 0 15 2t16 0q29 -4 58.5 -4t64.5 13q-29 41 -54.5 79.5t-54.5 81.5q47 31 94 63 t96 64q23 -29 42.5 -60.5t43.5 -60.5q14 20 20.5 41t10.5 43q47 213 0 428q-10 41 -25.5 79t-39.5 73q-20 33 -4 61q6 6 10 17q8 25 -17 26h-36q8 23 14 45.5t14 47.5q-12 0 -19 -6.5t-13.5 -14.5t-12.5 -14t-18 -4q4 -16 11 -27.5t5 -26.5q0 -10 11.5 -19t27.5 -9 q-4 -8 -5 -15.5t-5 -17.5q-8 10 -13.5 17.5t-11.5 11.5q-8 4 -16 5t-19 5q2 10 3 17.5t4 17.5q-29 8 -59 16t-62 19q-6 8 -1 16t11 12q-16 45 -12 89t0 87q41 6 78.5 0t72.5 -16q74 -23 133.5 -66t106.5 -104q47 -63 76.5 -135t46.5 -150q29 -141 25.5 -281.5t-38.5 -281.5 q-4 -20 -11 -42t-32 -32zM836 121q-2 4 -7 8q-68 -27 -100 -100q27 23 53.5 46t53.5 46zM426 82q-20 10 -27 -6q-2 -2 0 -5t4 -3q17 -9 23 14zM782 236q4 -8 4 -11q10 0 16.5 4t10.5 21l-17.5 -7t-13.5 -7z" />
<glyph unicode="r" horiz-adv-x="1103" d="M678 616q92 -154 183 -306t186 -308q-10 -2 -18.5 -2h-14.5h-205q-39 -2 -55 29q-78 129 -158 257t-158 257q-10 14 -20 27.5t-21 27.5q-6 8 -18 12q-12 2 -23.5 3t-27.5 3v-32q-10 -2 -18.5 -2t-20.5 -2v-156q-12 -4 -25.5 -6t-13.5 -21q0 -16 13 -15t24 -5v-377h-226 v436q29 4 57.5 1t55.5 -17q27 -12 43 14q20 33 49 49q16 8 16.5 21.5t-16.5 23.5q-35 18 -37 58q-6 51 -59 57q-35 6 -51 31q-14 -10 -25.5 -19.5t-34.5 -3.5q-2 39 -1 79t-1 83q10 2 17.5 3t13.5 1q61 0 122.5 1t121.5 -1q61 -2 121.5 0t121.5 4q68 4 99 37t41 90l8 40 t0 36q-6 25 -18.5 47.5t-26.5 44.5q-27 39 -80 39l-160 6h-352h-23q-2 10 -4 44t-2 73t1 75t3 54q8 0 15.5 1t15.5 1q111 0 221.5 1t223.5 -1q41 -2 80.5 -5t80.5 -9q129 -18 197 -140q37 -66 50 -137t9 -147q-4 -39 -10 -78t-22 -76q-31 -72 -82.5 -119t-124.5 -69 q-17 -7 -37 -13zM197 315q0 4 2 6.5t0 6.5t-4 6t-5 6q-6 6 -6 -2q0 -10 2 -16q2 -2 4.5 -2.5t6.5 -2.5q8 -2 15 -6t13 8q-10 10 -16 5t-12 -9zM109 754q-4 -10 -7.5 -15.5t-1.5 -9.5q4 -6 8.5 -9t8.5 -7q10 10 10 16q-2 6 -7 10.5t-11 14.5zM289 272q-6 4 -10.5 9.5 t-8.5 5.5q-4 -2 -8 -5t-8 -8q4 -4 7 -9t7 -5t8.5 4t12.5 8zM700 430q8 -33 25 -22q4 2 4 7t2 9q-6 2 -13.5 3t-17.5 3zM137 2q4 0 6 1t7 1v23q-4 -2 -11 -2h-4q0 -6 1 -11.5t1 -11.5zM872 825q-4 4 -5 7.5t-5 7.5q-2 0 -6 -1t-4 -3q0 -10 4 -13q2 -2 16 2zM272 369 q-4 0 -8 4q-2 -4 -4 -7.5t-2 -7.5t3 -5t5 -5q8 4 10 8q0 4 -2 6.5t-2 6.5z" />
<glyph unicode="s" horiz-adv-x="999" d="M53 559h223q4 -18 5.5 -35.5t1.5 -36.5q4 -29 11 -54t15 -52q10 -37 25 -66q27 -47 75 -69.5t101 -22.5t100 19.5t70 58.5q20 31 33 74q4 16 4 31.5t16 23.5q-10 14 -18 27.5t-17 25.5q-14 25 -34.5 40.5t-45.5 25.5q-35 14 -68.5 25.5t-68.5 23.5q-39 14 -76.5 27.5 t-74.5 29.5q-74 33 -123 83t-76 108.5t-34 121t-1 122.5q6 53 29 112q39 100 111.5 154.5t177.5 70.5q125 18 241 -18q127 -37 193 -152q35 -61 50 -128.5t17 -141.5h-227l-6 25q-6 18 -10 37.5t-13 40.5q-31 74 -110 92q-41 8 -81 5t-79 -22q-31 -14 -50.5 -37.5 t-23.5 -62.5q-4 -82 62 -115q35 -16 69.5 -30.5t69.5 -26.5q47 -18 93 -33.5t91 -34.5q119 -49 176.5 -140t67.5 -216q4 -59 -1 -118.5t-28 -117.5q-78 -219 -305 -249q-55 -10 -110.5 -9.5t-110.5 13.5q-195 39 -272 225q-25 57 -36 115.5t-18 117.5q-4 27 -5 54.5t-5 58.5 zM684 61q-6 -8 -11 -13t-5 -7q4 -8 18 -16q2 0 7 4t3 8q-2 6 -5 11t-7 13zM811 1110l-9 6t-7 2q-2 2 -5.5 -2t-3.5 -6q4 -6 11 -10q4 0 14 10zM897 289q-4 -6 -6 -9.5t-2 -7.5q6 -6 10 -6q2 -2 4 1t2 5q0 4 -2 7.5t-6 9.5z" />
<glyph unicode="t" horiz-adv-x="927" d="M582 0h-232q4 31 -1 60.5t13 58.5v10q-16 10 -14 23.5t2 27.5v928v51q-41 4 -80 2t-80 0h-159v246h864l2 -246h-315v-1161zM555 172q-10 8 -12 6q-2 0 -11 -8q4 -4 6.5 -5t6.5 -5q2 2 10 12zM397 428q-8 4 -10 4l-4 -8l-4 -8l6 -6zM496 238q10 10 10 12t-3 4t-5 4 q-2 -4 -4 -5t-5 -5q0 -2 2.5 -4t4.5 -6z" />
<glyph unicode="u" horiz-adv-x="1017" d="M74 1407h225q0 -4 1 -48t1 -114.5t1 -159t1 -179.5v-176v-150q0 -47 2 -92.5t10 -92.5q8 -53 39 -92t73 -59.5t92 -19.5t97 26q72 37 84 117q8 41 11.5 80.5t3.5 80.5q2 76 2 151v152v304v268l227 4v-723q0 -141 -2 -235q0 -47 -7 -93.5t-17 -93.5q-31 -129 -118 -200.5 t-218 -81.5q-49 -4 -97.5 -2t-95.5 10q-78 12 -136 53t-99 106q-35 53 -50.5 110.5t-19.5 119.5q-4 66 -7 131t-3 131v141v164v166v146.5v105.5v45zM428 111q25 -14 39 -2q2 2 2 7t-4 7q-21 15 -37 -12zM252 907q2 -16 6 -26q10 0 12 2q9 16 -18 24zM246 125q2 8 6 16 q0 6 -8 6q-2 -2 -5 -4t-3 -4q0 -4 10 -14z" />
<glyph unicode="v" horiz-adv-x="1120" d="M733 184q-6 10 -10 15.5t-8 11.5q-4 4 -5 10t-5 10q-6 10 -18.5 11.5t-18.5 -4.5q-16 -16 6 -37q4 -4 8 -5t8 -6l7 -7t12 -7q-31 -12 -59.5 -23.5t-57.5 -21.5q4 -4 6 -5t4 -3q10 -4 24.5 -8t10.5 -21q-2 -12 -9 -23.5t-18 -21.5q-14 -14 -13 -22.5t21 -24.5 q-47 -4 -89 -3t-89 1q-10 39 -21 77t-22 79q-10 39 -21 76.5t-18 78.5q-6 41 -21 78t-26 76q-12 41 -22 79t-21 79q-10 39 -21 77.5t-22 77.5q-10 41 -22.5 79t-22.5 77q-10 41 -21.5 81t-21.5 81l-43 153q-10 39 -21.5 78t-21.5 80h248q68 -252 134.5 -501t131.5 -503h6 q6 23 12.5 42.5t10.5 39.5q10 35 17 67t16 64q4 20 11 38t9 38t9.5 40t11.5 42q6 18 10 37.5t10 40.5l19 80q4 18 10 37.5t10 40.5q6 20 11 40.5t10 41.5q6 20 11 39.5t9 39.5q14 51 26.5 102.5t26.5 102.5q2 10 10 31h193l4 -8l4 -8q8 4 16.5 10t22.5 16q-2 -14 -2 -22.5 t-4 -16.5q-53 -199 -108.5 -394.5t-110.5 -393.5q-18 -66 -34.5 -131.5t-37.5 -130.5q-10 -35 -18.5 -70t-22.5 -74zM362 881q0 2 1.5 4t1.5 4q-8 -2 -13.5 3t-9.5 9t-10 6t-15 -4q-25 -20 -8 -47q14 6 27.5 12.5t25.5 12.5zM645 180q20 12 4 29q-6 10 -14 15t-21 -3 q4 -33 31 -41zM733 776q-16 -4 -28.5 -8t-12.5 -25q27 -4 33 0t8 33zM578 383q2 -29 6 -35t26 -10q3 33 -32 45zM647 324q-29 16 -41 -11q-2 -4 1 -9t5 -5q29 -6 35 25zM266 1294q18 16 21.5 22.5t1.5 29.5q-18 -12 -21.5 -18.5t-1.5 -33.5zM727 537q-4 2 -5 4t-5 2 q-2 0 -3 -2t-5 -2q2 -4 8 -11q2 1 10 9zM700 492h11v18q0 2 -11 2v-20zM174 1235q-2 2 -2 4t-2 4q-4 0 -6 2t-6 2q-2 -2 -3 -4t-3 -4q4 -2 6 -4t6 -2q2 0 4 1t6 1zM1004 1239q4 6 6 8t4 6q-2 2 -2 4q-2 2 -2 5q-4 -2 -7.5 -2t-5.5 -5q1 -4 7 -16zM561 84q-8 -12 -6 -14 q0 -6 10 -7q8 0 8 11q-2 2 -5 4t-7 6zM612 270q2 4 3 5t3 6q-4 2 -8 3t-8 3l-4 -4q4 -4 7 -6.5t7 -6.5zM668 2q-8 -2 -15.5 -2h-13.5v6q6 4 13.5 7t15.5 -11z" />
<glyph unicode="w" horiz-adv-x="1533" d="M49 1407h234q2 -8 4 -14.5t4 -14.5q29 -160 54.5 -318.5t53.5 -318.5q2 -16 4.5 -30.5t-12.5 -24.5q8 -10 14.5 -18.5t8.5 -18.5t-2 -20.5t-6 -20.5q4 0 7 -1l9 -3q4 -27 9 -54.5l11 -60.5q4 12 7.5 19.5t5.5 15.5q41 199 80.5 397.5t80.5 397.5l7.5 22.5t21.5 12.5 q6 2 8 9t-6 13q-6 4 -11 8.5t-1 14.5t12 10h17h221q12 0 22 -2q45 -231 89 -461.5t89 -462.5h9q8 43 15 85t15 87q8 4 16.5 7.5t20.5 7.5q-10 8 -16 13t-15 11q31 178 61 355.5t60 357.5h234l-264 -1407h-242q-14 41 -19.5 82t-15.5 82t-17 83t-18 83q-10 43 -18 85t-17 85 q-10 41 -17 83t-17 85q-10 41 -17.5 83t-17.5 83t-18.5 82.5t-20.5 82.5q-8 -18 -10 -32q-29 -145 -58.5 -288.5t-60.5 -287.5q-2 -12 -7 -23.5t-9 -23.5q-2 -6 1 -13t1 -16q-16 -78 -33 -156.5t-33 -158.5q-63 0 -123.5 -1t-124.5 15l25 86q-2 2 -3 2t-3 2q-8 -4 -15.5 -9 t-17.5 -13q-61 334 -123 662.5t-123 662.5zM676 1169q-33 0 -27 -32q29 1 27 32zM899 1128q-8 -10 -11 -17t7 -17q2 -2 6 -2t6 4q10 10 6 17t-14 15zM1280 672q-4 -8 -8 -13.5t-4 -9.5t4 -6t8 -6q6 6 10 16q0 4 -3 7.5t-7 11.5zM342 334q-4 4 -4 8q-10 2 -18.5 -1t-14.5 -22 q12 4 20.5 7.5t16.5 7.5zM455 446l-7.5 7.5t-7.5 3.5q-2 0 -12 -11q8 -8 14 -10q3 0 13 10zM565 418q-12 33 -35 10q8 -2 15.5 -4t19.5 -6zM1255 1139q-10 10 -14 12q-2 2 -6 -2t-4 -6q0 -4 3 -8.5t5 -8.5q8 9 16 13zM285 729q-12 8 -15 8q-6 -6 -8 -10q8 -8 12 -10 q3 0 11 12zM301 389q-25 8 -27 -20q10 8 16.5 12t10.5 8zM215 803q2 -2 4 -3t4 -3q4 4 6 7t7 7l-7 6l-7 -7zM590 629q-16 6 -19 6q-10 0 -10 -8t8 -9q1 1 21 11zM1286 782q-4 4 -6 7.5t-6 3.5t-10 -7q4 -10 10 -12zM256 881q12 6 14 8q2 4 2 8t4 10l-9 -6t-5 -4z" />
<glyph unicode="x" horiz-adv-x="1116" d="M182 260q4 10 8.5 21.5t8.5 21.5q53 109 108 214.5t111 215.5q-16 35 -33.5 69t-34.5 68q16 31 12 38t-34 7q-20 29 -31.5 60t-30.5 59q-16 31 -30.5 62.5t-30.5 62.5t-30.5 60.5t-31.5 60.5l-63 127h268q8 -16 16.5 -33.5t18.5 -36.5q10 -18 20.5 -35.5t12.5 -37.5 q2 -23 17.5 -35t19.5 -33q4 -20 14 -37.5t20 -36.5q10 -18 17.5 -36.5t17.5 -36.5t19.5 -37t19.5 -43q53 115 105.5 222t103.5 216h264q-10 -23 -19 -42t-20 -40l-86 -176t-88 -176q-6 -10 -16 -19.5t-21 -21.5q8 -16 1 -31.5t-15 -32.5q-16 -29 -30.5 -59.5t-30.5 -60.5 q-10 -25 2 -50q33 -70 86 -170q45 -86 111.5 -215t158.5 -309l-274 -4q-117 231 -177 352q-35 70 -59 121q-14 -29 -26.5 -53.5t-24.5 -46.5q-6 -12 -12.5 -23.5t-22.5 -15.5q-8 -2 -13 -11.5t7 -21.5q4 -4 -4 -18q-33 -66 -64.5 -132.5t-66.5 -132.5q-6 -18 -27 -18h-244 q-6 0 -10 4q2 2 2 5t2 7q29 55 57.5 111.5t57.5 112.5q4 6 7 11t7 11q-2 -10 -4 -18t8 -17q12 12 12 16.5t-16 16.5zM356 1047q14 4 15 4q14 23 33.5 38t41.5 27q8 4 14.5 11.5t4.5 19.5q-31 -10 -60 -35.5t-49 -64.5zM766 1323q4 -6 5 -12t5 -6q16 -4 30.5 -6.5t31.5 -4.5 q2 0 2 2t2 4t2 7q-10 8 -16.5 18t-22.5 6q-10 -2 -19.5 -3t-19.5 -5zM692 403q29 2 29 27q4 23 -21 23q-25 -2 -20 -29q2 -6 6 -11.5t6 -9.5zM778 1104q-2 -4 -3 -5t-3 -5q6 -4 6 -10.5v-12.5t2 -12t13 -8q4 8 12 20q8 6 10 14.5t-6 14.5q-6 4 -14.5 3t-16.5 1zM737 883 q-33 10 -43 -13q0 -4 2 -9t6 -5q29 -6 35 27zM805 90q-6 6 -10 11t-9 5q-6 -2 -18 -14q4 -4 8 -7t8 -5q4 0 9.5 3t11.5 7zM872 1403q-29 -6 -31.5 -10t9.5 -23q4 8 9 15.5t13 17.5zM641 737q-23 16 -31 2v-4q0 -2 2 -4q11 0 29 6z" />
<glyph unicode="y" horiz-adv-x="1099" d="M666 72q-14 4 -23.5 5t-19.5 3q0 -4 -2 -6q10 -6 20 -11.5t21 -11.5v-51h-228q0 10 -1 16.5t-1 14.5v278v250q0 35 -14 64q-92 186 -181.5 369.5t-181.5 369.5q-4 10 -9 20.5t-9 20.5q4 2 7 4t5 2h248q10 -14 15 -22.5t5 -15.5t-3 -17.5t-11 -26.5q6 4 12.5 7t16.5 9 q53 -117 108.5 -235.5t112.5 -241.5q14 29 18 39q53 119 105.5 235.5t105.5 233.5q4 6 13 15q14 14 43 22l225 -2q-4 -10 -8 -18.5t-6 -12.5q-4 -6 -5 -10q-86 -193 -179 -376t-185 -371q-6 -12 -9 -26.5t-9 -27.5q-4 -12 -10.5 -23.5t-14.5 -25.5q23 -10 25 -28.5t2 -36.5 v-141.5t-2 -141.5q0 -12 -6.5 -25.5t-6.5 -25.5q2 -12 7.5 -23.5t9.5 -23.5zM635 682q29 6 29 29q0 20 -23 20q-12 -2 -16 -10t-2 -19q2 -6 6 -11t6 -9zM621 6q35 14 18 43q-26 -8 -18 -43zM199 1262q27 -10 30 22q-8 -6 -15 -11t-15 -11zM913 1329q-4 -6 -7 -9t-3 -7t2 -6 l4 -4q10 4 15 10q0 2 -3.5 6t-7.5 10zM471 1012q-8 12 -10 12q-4 2 -12 -2q2 -4 2 -7t4 -7zM756 1014q-8 -8 -6 -10q0 -4 8 -9l6 6q-4 9 -8 13z" />
<glyph unicode="z" horiz-adv-x="974" d="M479 502q-6 -12 -12 -24.5t-12 -22.5q-33 -51 -64 -101.5t-65 -105.5q14 0 24 -1t21 -1h516q12 0 23.5 -1t23.5 -3v-209q-14 2 -25 -17q8 -2 13.5 -3t11.5 -3v-8q-10 -2 -21.5 -2h-21.5h-805h-43v211q-2 47 25 90q96 154 190 304.5t191 301.5q8 12 14 25.5t26 11.5 q2 0 3 2q0 2 2 4l4 8q-10 12 -4 20.5t10 16.5l80 129q4 8 8 15.5t12 21.5h-561v246h868q0 -29 -2 -56.5t2 -56.5q8 -59 -9 -111.5t-52 -101.5q-35 -47 -64.5 -96t-58.5 -98q-16 -27 -39 -27q-20 0 -35.5 -7t-25.5 -28q-4 -8 -10.5 -13t-12.5 -11q12 -12 22.5 -20.5 t20.5 -18.5q-37 -59 -71.5 -114.5t-69.5 -110.5q-6 -10 -13.5 -18.5t-13.5 -18.5q-4 6 -5 14t-13 4q-25 -6 -10 -33q8 4 14 8.5t14 8.5zM715 1372q-27 -6 -32 -14t1 -35q25 4 29 11t2 38zM342 563q6 8 12 13.5t4 9.5q-4 14 -18 18q-10 4 -15.5 -2t-2.5 -14q2 -6 8 -11.5 t12 -13.5zM186 27q16 -2 25.5 2t11.5 22q-29 3 -37 -24zM371 532q10 14 10 19l-4 4l-4 4q-10 -6 -13 -12q0 -4 3.5 -7.5zM84 76q-8 6 -16 10l-5 -4q-2 -2 -4 -2q2 -6 11 -14q2 0 6 3t8 7zM74 250q-4 4 -6 4l-13 -18q2 0 6 -5z" />
<glyph unicode="&#x2000;" horiz-adv-x="801" />
<glyph unicode="&#x2001;" horiz-adv-x="1602" />
<glyph unicode="&#x2002;" horiz-adv-x="801" />
<glyph unicode="&#x2003;" horiz-adv-x="1602" />
<glyph unicode="&#x2004;" horiz-adv-x="534" />
<glyph unicode="&#x2005;" horiz-adv-x="400" />
<glyph unicode="&#x2006;" horiz-adv-x="267" />
<glyph unicode="&#x2007;" horiz-adv-x="267" />
<glyph unicode="&#x2008;" horiz-adv-x="200" />
<glyph unicode="&#x2009;" horiz-adv-x="320" />
<glyph unicode="&#x200a;" horiz-adv-x="89" />
<glyph unicode="&#x202f;" horiz-adv-x="320" />
<glyph unicode="&#x205f;" horiz-adv-x="400" />
<glyph unicode="&#x25fc;" horiz-adv-x="1402" d="M0 1403h1403v-1403h-1403v1403z" />
</font>
</defs>
</svg>
